<!DOCTYPE svg PUBLIC "-//W3C//DTD SVG 1.1//EN" "http://www.w3.org/Graphics/SVG/1.1/DTD/svg11.dtd"><svg version="1.1" xmlns="http://www.w3.org/2000/svg" xmlns:xlink="http://www.w3.org/1999/xlink" xml:space="preserve" width="8.600000in" height="6.500000in" viewBox="0.000000 0.000000 8.600000 6.500000">
<!-- Generated by genCarrier.py   https://github.com/ajkunen/beseler23c -->

<!-- Ring  OD=4.7250", ID=3.7250" -->
  <path stroke="black" fill="none" stroke-width=".01" d=" M5.612500,3.250000 L5.612410,3.270588 L5.612141,3.291174 L5.611693,3.311757 L5.611065,3.332336 L5.610258,3.352908 L5.609271,3.373472 L5.608106,3.394027 L5.606761,3.414571 L5.605237,3.435103 L5.603535,3.455621 L5.601654,3.476122 L5.599594,3.496607 L5.597356,3.517073 L5.594939,3.537519 L5.592344,3.557943 L5.589572,3.578343 L5.586622,3.598719 L5.583494,3.619068 L5.580189,3.639389 L5.576708,3.659681 L5.573049,3.679941 L5.569214,3.700169 L5.565203,3.720362 L5.561016,3.740520 L5.556654,3.760641 L5.552116,3.780722 L5.547404,3.800764 L5.542517,3.820764 L5.537456,3.840720 L5.532222,3.860631 L5.526814,3.880496 L5.521233,3.900314 L5.515479,3.920081 L5.509554,3.939798 L5.503457,3.959463 L5.497189,3.979074 L5.490750,3.998629 L5.484141,4.018127 L5.477363,4.037567 L5.470415,4.056948 L5.463298,4.076267 L5.456014,4.095523 L5.448562,4.114715 L5.440943,4.133841 L5.433157,4.152901 L5.425206,4.171891 L5.417090,4.190812 L5.408809,4.209661 L5.400364,4.228438 L5.391756,4.247140 L5.382985,4.265766 L5.374052,4.284315 L5.364958,4.302786 L5.355703,4.321177 L5.346289,4.339486 L5.336715,4.357712 L5.326983,4.375855 L5.317093,4.393912 L5.307046,4.411882 L5.296842,4.429764 L5.286484,4.447556 L5.275970,4.465257 L5.265303,4.482867 L5.254483,4.500382 L5.243510,4.517802 L5.232386,4.535127 L5.221112,4.552353 L5.209688,4.569481 L5.198115,4.586508 L5.186394,4.603434 L5.174526,4.620257 L5.162512,4.636977 L5.150353,4.653590 L5.138049,4.670098 L5.125602,4.686497 L5.113013,4.702787 L5.100282,4.718967 L5.087410,4.735035 L5.074399,4.750991 L5.061250,4.766833 L5.047962,4.782559 L5.034539,4.798169 L5.020980,4.813662 L5.007286,4.829035 L4.993459,4.844289 L4.979499,4.859422 L4.965408,4.874432 L4.951187,4.889319 L4.936837,4.904082 L4.922359,4.918719 L4.907753,4.933229 L4.893022,4.947612 L4.878166,4.961865 L4.863186,4.975989 L4.848084,4.989981 L4.832860,5.003842 L4.817516,5.017569 L4.802053,5.031162 L4.786473,5.044619 L4.770775,5.057941 L4.754962,5.071125 L4.739035,5.084170 L4.722995,5.097077 L4.706842,5.109843 L4.690580,5.122468 L4.674208,5.134951 L4.657727,5.147290 L4.641140,5.159486 L4.624447,5.171536 L4.607650,5.183441 L4.590749,5.195199 L4.573747,5.206809 L4.556644,5.218270 L4.539442,5.229582 L4.522142,5.240744 L4.504746,5.251754 L4.487254,5.262612 L4.469668,5.273318 L4.451990,5.283870 L4.434220,5.294267 L4.416361,5.304509 L4.398413,5.314596 L4.380377,5.324525 L4.362256,5.334297 L4.344050,5.343910 L4.325762,5.353365 L4.307391,5.362660 L4.288940,5.371794 L4.270411,5.380767 L4.251803,5.389578 L4.233120,5.398227 L4.214362,5.406713 L4.195531,5.415035 L4.176628,5.423193 L4.157655,5.431185 L4.138613,5.439012 L4.119503,5.446673 L4.100327,5.454167 L4.081087,5.461493 L4.061783,5.468651 L4.042418,5.475641 L4.022993,5.482462 L4.003509,5.489114 L3.983968,5.495595 L3.964371,5.501906 L3.944719,5.508046 L3.925015,5.514014 L3.905260,5.519811 L3.885455,5.525435 L3.865602,5.530886 L3.845702,5.536164 L3.825757,5.541268 L3.805768,5.546199 L3.785737,5.550955 L3.765665,5.555536 L3.745554,5.559942 L3.725405,5.564173 L3.705220,5.568228 L3.685001,5.572107 L3.664749,5.575809 L3.644465,5.579335 L3.624151,5.582685 L3.603809,5.585857 L3.583440,5.588851 L3.563045,5.591668 L3.542627,5.594307 L3.522187,5.596768 L3.501726,5.599051 L3.481245,5.601155 L3.460748,5.603081 L3.440234,5.604829 L3.419706,5.606397 L3.399164,5.607786 L3.378612,5.608997 L3.358050,5.610028 L3.337479,5.610880 L3.316902,5.611553 L3.296320,5.612046 L3.275735,5.612360 L3.255147,5.612494 L3.234559,5.612450 L3.213972,5.612225 L3.193388,5.611822 L3.172808,5.611239 L3.152234,5.610476 L3.131668,5.609535 L3.111110,5.608414 L3.090563,5.607114 L3.070029,5.605635 L3.049507,5.603977 L3.029001,5.602141 L3.008512,5.600126 L2.988041,5.597932 L2.967590,5.595560 L2.947161,5.593010 L2.926754,5.590282 L2.906373,5.587376 L2.886017,5.584293 L2.865688,5.581032 L2.845389,5.577595 L2.825121,5.573980 L2.804885,5.570189 L2.784683,5.566222 L2.764516,5.562079 L2.744386,5.557761 L2.724294,5.553267 L2.704243,5.548599 L2.684232,5.543755 L2.664265,5.538738 L2.644342,5.533547 L2.624465,5.528182 L2.604636,5.522644 L2.584856,5.516934 L2.565126,5.511051 L2.545448,5.504997 L2.525824,5.498772 L2.506255,5.492376 L2.486742,5.485809 L2.467287,5.479073 L2.447892,5.472168 L2.428557,5.465093 L2.409285,5.457851 L2.390077,5.450441 L2.370934,5.442863 L2.351858,5.435119 L2.332850,5.427210 L2.313911,5.419135 L2.295044,5.410895 L2.276250,5.402491 L2.257529,5.393923 L2.238883,5.385193 L2.220315,5.376301 L2.201824,5.367247 L2.183414,5.358032 L2.165084,5.348657 L2.146836,5.339123 L2.128673,5.329431 L2.110594,5.319580 L2.092602,5.309572 L2.074698,5.299408 L2.056883,5.289088 L2.039159,5.278613 L2.021527,5.267984 L2.003988,5.257202 L1.986544,5.246268 L1.969195,5.235182 L1.951944,5.223945 L1.934792,5.212558 L1.917739,5.201022 L1.900788,5.189338 L1.883939,5.177507 L1.867193,5.165529 L1.850553,5.153406 L1.834019,5.141138 L1.817593,5.128727 L1.801275,5.116173 L1.785068,5.103478 L1.768971,5.090641 L1.752987,5.077665 L1.737117,5.064550 L1.721362,5.051297 L1.705722,5.037907 L1.690200,5.024382 L1.674797,5.010722 L1.659513,4.996928 L1.644350,4.983002 L1.629309,4.968943 L1.614391,4.954755 L1.599597,4.940437 L1.584928,4.925990 L1.570386,4.911416 L1.555972,4.896716 L1.541686,4.881891 L1.527530,4.866942 L1.513504,4.851871 L1.499611,4.836677 L1.485850,4.821363 L1.472224,4.805930 L1.458732,4.790379 L1.445377,4.774710 L1.432158,4.758926 L1.419078,4.743027 L1.406137,4.727015 L1.393335,4.710891 L1.380675,4.694656 L1.368157,4.678311 L1.355781,4.661857 L1.343550,4.645297 L1.331463,4.628630 L1.319522,4.611859 L1.307727,4.594984 L1.296080,4.578007 L1.284581,4.560929 L1.273232,4.543752 L1.262033,4.526477 L1.250984,4.509104 L1.240088,4.491636 L1.229344,4.474074 L1.218754,4.456418 L1.208318,4.438671 L1.198037,4.420834 L1.187911,4.402908 L1.177943,4.384894 L1.168131,4.366794 L1.158478,4.348610 L1.148984,4.330341 L1.139649,4.311991 L1.130475,4.293560 L1.121461,4.275050 L1.112609,4.256462 L1.103920,4.237798 L1.095393,4.219059 L1.087030,4.200246 L1.078831,4.181361 L1.070797,4.162405 L1.062929,4.143380 L1.055227,4.124287 L1.047691,4.105127 L1.040323,4.085903 L1.033122,4.066615 L1.026090,4.047265 L1.019227,4.027855 L1.012533,4.008385 L1.006009,3.988858 L0.999656,3.969275 L0.993473,3.949637 L0.987462,3.929946 L0.981622,3.910204 L0.975955,3.890411 L0.970461,3.870570 L0.965139,3.850681 L0.959992,3.830747 L0.955018,3.810769 L0.950218,3.790748 L0.945593,3.770686 L0.941143,3.750585 L0.936868,3.730446 L0.932769,3.710270 L0.928846,3.690059 L0.925100,3.669815 L0.921529,3.649539 L0.918136,3.629232 L0.914920,3.608897 L0.911881,3.588534 L0.909020,3.568146 L0.906336,3.547734 L0.903830,3.527299 L0.901503,3.506843 L0.899354,3.486367 L0.897383,3.465874 L0.895592,3.445364 L0.893978,3.424839 L0.892544,3.404301 L0.891289,3.383751 L0.890213,3.363191 L0.889316,3.342623 L0.888599,3.322047 L0.888061,3.301466 L0.887702,3.280881 L0.887522,3.260294 L0.887522,3.239706 L0.887702,3.219119 L0.888061,3.198534 L0.888599,3.177953 L0.889316,3.157377 L0.890213,3.136809 L0.891289,3.116249 L0.892544,3.095699 L0.893978,3.075161 L0.895592,3.054636 L0.897383,3.034126 L0.899354,3.013633 L0.901503,2.993157 L0.903830,2.972701 L0.906336,2.952266 L0.909020,2.931854 L0.911881,2.911466 L0.914920,2.891103 L0.918136,2.870768 L0.921529,2.850461 L0.925100,2.830185 L0.928846,2.809941 L0.932769,2.789730 L0.936868,2.769554 L0.941143,2.749415 L0.945593,2.729314 L0.950218,2.709252 L0.955018,2.689231 L0.959992,2.669253 L0.965139,2.649319 L0.970461,2.629430 L0.975955,2.609589 L0.981622,2.589796 L0.987462,2.570054 L0.993473,2.550363 L0.999656,2.530725 L1.006009,2.511142 L1.012533,2.491615 L1.019227,2.472145 L1.026090,2.452735 L1.033122,2.433385 L1.040323,2.414097 L1.047691,2.394873 L1.055227,2.375713 L1.062929,2.356620 L1.070797,2.337595 L1.078831,2.318639 L1.087030,2.299754 L1.095393,2.280941 L1.103920,2.262202 L1.112609,2.243538 L1.121461,2.224950 L1.130475,2.206440 L1.139649,2.188009 L1.148984,2.169659 L1.158478,2.151390 L1.168131,2.133206 L1.177943,2.115106 L1.187911,2.097092 L1.198037,2.079166 L1.208318,2.061329 L1.218754,2.043582 L1.229344,2.025926 L1.240088,2.008364 L1.250984,1.990896 L1.262033,1.973523 L1.273232,1.956248 L1.284581,1.939071 L1.296080,1.921993 L1.307727,1.905016 L1.319522,1.888141 L1.331463,1.871370 L1.343550,1.854703 L1.355781,1.838143 L1.368157,1.821689 L1.380675,1.805344 L1.393335,1.789109 L1.406137,1.772985 L1.419078,1.756973 L1.432158,1.741074 L1.445377,1.725290 L1.458732,1.709621 L1.472224,1.694070 L1.485850,1.678637 L1.499611,1.663323 L1.513504,1.648129 L1.527530,1.633058 L1.541686,1.618109 L1.555972,1.603284 L1.570386,1.588584 L1.584928,1.574010 L1.599597,1.559563 L1.614391,1.545245 L1.629309,1.531057 L1.644350,1.516998 L1.659513,1.503072 L1.674797,1.489278 L1.690200,1.475618 L1.705722,1.462093 L1.721362,1.448703 L1.737117,1.435450 L1.752987,1.422335 L1.768971,1.409359 L1.785068,1.396522 L1.801275,1.383827 L1.817593,1.371273 L1.834019,1.358862 L1.850553,1.346594 L1.867193,1.334471 L1.883939,1.322493 L1.900788,1.310662 L1.917739,1.298978 L1.934792,1.287442 L1.951944,1.276055 L1.969195,1.264818 L1.986544,1.253732 L2.003988,1.242798 L2.021527,1.232016 L2.039159,1.221387 L2.056883,1.210912 L2.074698,1.200592 L2.092602,1.190428 L2.110594,1.180420 L2.128673,1.170569 L2.146836,1.160877 L2.165084,1.151343 L2.183414,1.141968 L2.201824,1.132753 L2.220315,1.123699 L2.238883,1.114807 L2.257529,1.106077 L2.276250,1.097509 L2.295044,1.089105 L2.313911,1.080865 L2.332850,1.072790 L2.351858,1.064881 L2.370934,1.057137 L2.390077,1.049559 L2.409285,1.042149 L2.428557,1.034907 L2.447892,1.027832 L2.467287,1.020927 L2.486742,1.014191 L2.506255,1.007624 L2.525824,1.001228 L2.545448,0.995003 L2.565126,0.988949 L2.584856,0.983066 L2.604636,0.977356 L2.624465,0.971818 L2.644342,0.966453 L2.664265,0.961262 L2.684232,0.956245 L2.704243,0.951401 L2.724294,0.946733 L2.744386,0.942239 L2.764516,0.937921 L2.784683,0.933778 L2.804885,0.929811 L2.825121,0.926020 L2.845389,0.922405 L2.865688,0.918968 L2.886017,0.915707 L2.906373,0.912624 L2.926754,0.909718 L2.947161,0.906990 L2.967590,0.904440 L2.988041,0.902068 L3.008512,0.899874 L3.029001,0.897859 L3.049507,0.896023 L3.070029,0.894365 L3.090563,0.892886 L3.111110,0.891586 L3.131668,0.890465 L3.152234,0.889524 L3.172808,0.888761 L3.193388,0.888178 L3.213972,0.887775 L3.234559,0.887550 L3.255147,0.887506 L3.275735,0.887640 L3.296320,0.887954 L3.316902,0.888447 L3.337479,0.889120 L3.358050,0.889972 L3.378612,0.891003 L3.399164,0.892214 L3.419706,0.893603 L3.440234,0.895171 L3.460748,0.896919 L3.481245,0.898845 L3.501726,0.900949 L3.522187,0.903232 L3.542627,0.905693 L3.563045,0.908332 L3.583440,0.911149 L3.603809,0.914143 L3.624151,0.917315 L3.644465,0.920665 L3.664749,0.924191 L3.685001,0.927893 L3.705220,0.931772 L3.725405,0.935827 L3.745554,0.940058 L3.765665,0.944464 L3.785737,0.949045 L3.805768,0.953801 L3.825757,0.958732 L3.845702,0.963836 L3.865602,0.969114 L3.885455,0.974565 L3.905260,0.980189 L3.925015,0.985986 L3.944719,0.991954 L3.964371,0.998094 L3.983968,1.004405 L4.003509,1.010886 L4.022993,1.017538 L4.042418,1.024359 L4.061783,1.031349 L4.081087,1.038507 L4.100327,1.045833 L4.119503,1.053327 L4.138613,1.060988 L4.157655,1.068815 L4.176628,1.076807 L4.195531,1.084965 L4.214362,1.093287 L4.233120,1.101773 L4.251803,1.110422 L4.270411,1.119233 L4.288940,1.128206 L4.307391,1.137340 L4.325762,1.146635 L4.344050,1.156090 L4.362256,1.165703 L4.380377,1.175475 L4.398413,1.185404 L4.416361,1.195491 L4.434220,1.205733 L4.451990,1.216130 L4.469668,1.226682 L4.487254,1.237388 L4.504746,1.248246 L4.522142,1.259256 L4.539442,1.270418 L4.556644,1.281730 L4.573747,1.293191 L4.590749,1.304801 L4.607650,1.316559 L4.624447,1.328464 L4.641140,1.340514 L4.657727,1.352710 L4.674208,1.365049 L4.690580,1.377532 L4.706842,1.390157 L4.722995,1.402923 L4.739035,1.415830 L4.754962,1.428875 L4.770775,1.442059 L4.786473,1.455381 L4.802053,1.468838 L4.817516,1.482431 L4.832860,1.496158 L4.848084,1.510019 L4.863186,1.524011 L4.878166,1.538135 L4.893022,1.552388 L4.907753,1.566771 L4.922359,1.581281 L4.936837,1.595918 L4.951187,1.610681 L4.965408,1.625568 L4.979499,1.640578 L4.993459,1.655711 L5.007286,1.670965 L5.020980,1.686338 L5.034539,1.701831 L5.047962,1.717441 L5.061250,1.733167 L5.074399,1.749009 L5.087410,1.764965 L5.100282,1.781033 L5.113013,1.797213 L5.125602,1.813503 L5.138049,1.829902 L5.150353,1.846410 L5.162512,1.863023 L5.174526,1.879743 L5.186394,1.896566 L5.198115,1.913492 L5.209688,1.930519 L5.221112,1.947647 L5.232386,1.964873 L5.243510,1.982198 L5.254483,1.999618 L5.265303,2.017133 L5.275970,2.034743 L5.286484,2.052444 L5.296842,2.070236 L5.307046,2.088118 L5.317093,2.106088 L5.326983,2.124145 L5.336715,2.142288 L5.346289,2.160514 L5.355703,2.178823 L5.364958,2.197214 L5.374052,2.215685 L5.382985,2.234234 L5.391756,2.252860 L5.400364,2.271562 L5.408809,2.290339 L5.417090,2.309188 L5.425206,2.328109 L5.433157,2.347099 L5.440943,2.366159 L5.448562,2.385285 L5.456014,2.404477 L5.463298,2.423733 L5.470415,2.443052 L5.477363,2.462433 L5.484141,2.481873 L5.490750,2.501371 L5.497189,2.520926 L5.503457,2.540537 L5.509554,2.560202 L5.515479,2.579919 L5.521233,2.599686 L5.526814,2.619504 L5.532222,2.639369 L5.537456,2.659280 L5.542517,2.679236 L5.547404,2.699236 L5.552116,2.719278 L5.556654,2.739359 L5.561016,2.759480 L5.565203,2.779638 L5.569214,2.799831 L5.573049,2.820059 L5.576708,2.840319 L5.580189,2.860611 L5.583494,2.880932 L5.586622,2.901281 L5.589572,2.921657 L5.592344,2.942057 L5.594939,2.962481 L5.597356,2.982927 L5.599594,3.003393 L5.601654,3.023878 L5.603535,3.044379 L5.605237,3.064897 L5.606761,3.085429 L5.608106,3.105973 L5.609271,3.126528 L5.610258,3.147092 L5.611065,3.167664 L5.611693,3.188243 L5.612141,3.208826 L5.612410,3.229412 L5.612500,3.250000 M5.112500,3.250000 L5.112429,3.266231 L5.112217,3.282460 L5.111864,3.298687 L5.111369,3.314910 L5.110732,3.331129 L5.109955,3.347341 L5.109036,3.363545 L5.107976,3.379742 L5.106774,3.395928 L5.105432,3.412103 L5.103949,3.428266 L5.102325,3.444415 L5.100561,3.460550 L5.098656,3.476668 L5.096610,3.492770 L5.094424,3.508853 L5.092099,3.524916 L5.089633,3.540958 L5.087028,3.556979 L5.084283,3.572976 L5.081398,3.588948 L5.078375,3.604895 L5.075213,3.620815 L5.071912,3.636706 L5.068473,3.652569 L5.064896,3.668400 L5.061181,3.684200 L5.057328,3.699967 L5.053339,3.715700 L5.049212,3.731397 L5.044948,3.747058 L5.040549,3.762681 L5.036013,3.778265 L5.031342,3.793809 L5.026535,3.809312 L5.021593,3.824772 L5.016517,3.840189 L5.011307,3.855561 L5.005963,3.870886 L5.000486,3.886165 L4.994875,3.901395 L4.989133,3.916576 L4.983258,3.931707 L4.977251,3.946785 L4.971114,3.961811 L4.964845,3.976782 L4.958447,3.991698 L4.951918,4.006558 L4.945261,4.021361 L4.938474,4.036105 L4.931560,4.050789 L4.924517,4.065413 L4.917348,4.079974 L4.910052,4.094472 L4.902630,4.108907 L4.895082,4.123276 L4.887410,4.137579 L4.879613,4.151814 L4.871692,4.165981 L4.863648,4.180078 L4.855482,4.194105 L4.847193,4.208060 L4.838784,4.221942 L4.830254,4.235751 L4.821603,4.249484 L4.812834,4.263142 L4.803945,4.276723 L4.794939,4.290226 L4.785816,4.303649 L4.776575,4.316993 L4.767219,4.330256 L4.757748,4.343437 L4.748162,4.356534 L4.738462,4.369548 L4.728649,4.382476 L4.718724,4.395319 L4.708688,4.408075 L4.698540,4.420742 L4.688283,4.433321 L4.677916,4.445810 L4.667441,4.458208 L4.656859,4.470514 L4.646169,4.482728 L4.635374,4.494848 L4.624473,4.506873 L4.613468,4.518803 L4.602359,4.530637 L4.591148,4.542373 L4.579834,4.554012 L4.568420,4.565551 L4.556906,4.576990 L4.545292,4.588329 L4.533580,4.599566 L4.521771,4.610700 L4.509865,4.621731 L4.497863,4.632658 L4.485767,4.643480 L4.473576,4.654196 L4.461293,4.664806 L4.448918,4.675308 L4.436452,4.685701 L4.423895,4.695986 L4.411250,4.706161 L4.398516,4.716225 L4.385695,4.726178 L4.372788,4.736019 L4.359795,4.745747 L4.346719,4.755362 L4.333559,4.764862 L4.320316,4.774247 L4.306993,4.783516 L4.293589,4.792669 L4.280106,4.801705 L4.266545,4.810623 L4.252906,4.819422 L4.239191,4.828102 L4.225401,4.836663 L4.211538,4.845102 L4.197601,4.853421 L4.183592,4.861618 L4.169512,4.869693 L4.155362,4.877644 L4.141144,4.885472 L4.126858,4.893176 L4.112505,4.900755 L4.098087,4.908208 L4.083605,4.915536 L4.069059,4.922737 L4.054451,4.929811 L4.039782,4.936758 L4.025052,4.943576 L4.010264,4.950266 L3.995419,4.956827 L3.980516,4.963258 L3.965559,4.969559 L3.950546,4.975729 L3.935481,4.981768 L3.920364,4.987676 L3.905195,4.993452 L3.889977,4.999096 L3.874711,5.004606 L3.859396,5.009984 L3.844036,5.015227 L3.828631,5.020337 L3.813181,5.025312 L3.797689,5.030153 L3.782155,5.034858 L3.766581,5.039427 L3.750967,5.043861 L3.735316,5.048159 L3.719628,5.052320 L3.703903,5.056344 L3.688145,5.060231 L3.672353,5.063980 L3.656529,5.067592 L3.640675,5.071066 L3.624790,5.074401 L3.608877,5.077598 L3.592937,5.080656 L3.576971,5.083575 L3.560980,5.086354 L3.544966,5.088995 L3.528929,5.091495 L3.512870,5.093856 L3.496792,5.096077 L3.480695,5.098157 L3.464581,5.100098 L3.448450,5.101897 L3.432305,5.103556 L3.416145,5.105075 L3.399973,5.106452 L3.383789,5.107689 L3.367595,5.108784 L3.351393,5.109738 L3.335182,5.110551 L3.318965,5.111223 L3.302743,5.111753 L3.286517,5.112142 L3.270288,5.112389 L3.254058,5.112496 L3.237827,5.112460 L3.221597,5.112283 L3.205369,5.111965 L3.189145,5.111506 L3.172926,5.110905 L3.156712,5.110162 L3.140505,5.109279 L3.124307,5.108254 L3.108118,5.107088 L3.091940,5.105781 L3.075774,5.104333 L3.059621,5.102744 L3.043482,5.101015 L3.027360,5.099145 L3.011254,5.097135 L2.995166,5.094984 L2.979098,5.092693 L2.963050,5.090262 L2.947024,5.087692 L2.931021,5.084982 L2.915043,5.082133 L2.899089,5.079144 L2.883163,5.076017 L2.867264,5.072750 L2.851394,5.069346 L2.835555,5.065803 L2.819747,5.062123 L2.803972,5.058304 L2.788230,5.054349 L2.772524,5.050256 L2.756854,5.046027 L2.741221,5.041661 L2.725627,5.037160 L2.710073,5.032522 L2.694560,5.027749 L2.679089,5.022841 L2.663661,5.017799 L2.648278,5.012622 L2.632941,5.007312 L2.617650,5.001868 L2.602408,4.996290 L2.587214,4.990581 L2.572071,4.984739 L2.556980,4.978765 L2.541941,4.972660 L2.526956,4.966425 L2.512025,4.960058 L2.497151,4.953562 L2.482334,4.946937 L2.467576,4.940183 L2.452876,4.933300 L2.438238,4.926290 L2.423660,4.919152 L2.409146,4.911888 L2.394696,4.904497 L2.380310,4.896981 L2.365991,4.889339 L2.351738,4.881574 L2.337554,4.873684 L2.323439,4.865671 L2.309395,4.857535 L2.295422,4.849277 L2.281521,4.840898 L2.267694,4.832397 L2.253942,4.823777 L2.240265,4.815037 L2.226665,4.806179 L2.213143,4.797202 L2.199699,4.788107 L2.186335,4.778896 L2.173052,4.769569 L2.159851,4.760126 L2.146732,4.750569 L2.133698,4.740898 L2.120748,4.731113 L2.107884,4.721216 L2.095106,4.711207 L2.082416,4.701087 L2.069815,4.690858 L2.057304,4.680518 L2.044883,4.670070 L2.032554,4.659514 L2.020317,4.648851 L2.008173,4.638082 L1.996124,4.627208 L1.984170,4.616229 L1.972312,4.605146 L1.960551,4.593960 L1.948889,4.582672 L1.937324,4.571283 L1.925860,4.559794 L1.914496,4.548205 L1.903234,4.536517 L1.892074,4.524732 L1.881017,4.512850 L1.870064,4.500873 L1.859215,4.488800 L1.848473,4.476633 L1.837837,4.464373 L1.827308,4.452020 L1.816887,4.439577 L1.806575,4.427043 L1.796372,4.414419 L1.786280,4.401708 L1.776299,4.388908 L1.766430,4.376023 L1.756674,4.363052 L1.747031,4.349996 L1.737502,4.336856 L1.728088,4.323635 L1.718790,4.310331 L1.709608,4.296947 L1.700543,4.283484 L1.691596,4.269942 L1.682767,4.256323 L1.674057,4.242627 L1.665466,4.228856 L1.656996,4.215010 L1.648647,4.201092 L1.640420,4.187101 L1.632315,4.173038 L1.624332,4.158906 L1.616473,4.144705 L1.608739,4.130436 L1.601128,4.116100 L1.593643,4.101698 L1.586284,4.087231 L1.579051,4.072701 L1.571945,4.058108 L1.564967,4.043454 L1.558116,4.028740 L1.551394,4.013967 L1.544801,3.999135 L1.538338,3.984247 L1.532004,3.969303 L1.525801,3.954304 L1.519729,3.939252 L1.513788,3.924148 L1.507979,3.908992 L1.502303,3.893786 L1.496759,3.878532 L1.491348,3.863229 L1.486071,3.847880 L1.480928,3.832486 L1.475919,3.817048 L1.471045,3.801566 L1.466306,3.786042 L1.461702,3.770478 L1.457235,3.754874 L1.452903,3.739232 L1.448708,3.723553 L1.444649,3.707838 L1.440728,3.692088 L1.436944,3.676304 L1.433298,3.660488 L1.429790,3.644641 L1.426420,3.628764 L1.423189,3.612858 L1.420096,3.596925 L1.417142,3.580965 L1.414327,3.564980 L1.411652,3.548971 L1.409117,3.532940 L1.406721,3.516887 L1.404465,3.500814 L1.402350,3.484721 L1.400374,3.468611 L1.398539,3.452484 L1.396845,3.436342 L1.395292,3.420186 L1.393879,3.404017 L1.392607,3.387836 L1.391477,3.371645 L1.390487,3.355444 L1.389639,3.339235 L1.388932,3.323020 L1.388366,3.306799 L1.387942,3.290574 L1.387659,3.274346 L1.387518,3.258115 L1.387518,3.241885 L1.387659,3.225654 L1.387942,3.209426 L1.388366,3.193201 L1.388932,3.176980 L1.389639,3.160765 L1.390487,3.144556 L1.391477,3.128355 L1.392607,3.112164 L1.393879,3.095983 L1.395292,3.079814 L1.396845,3.063658 L1.398539,3.047516 L1.400374,3.031389 L1.402350,3.015279 L1.404465,2.999186 L1.406721,2.983113 L1.409117,2.967060 L1.411652,2.951029 L1.414327,2.935020 L1.417142,2.919035 L1.420096,2.903075 L1.423189,2.887142 L1.426420,2.871236 L1.429790,2.855359 L1.433298,2.839512 L1.436944,2.823696 L1.440728,2.807912 L1.444649,2.792162 L1.448708,2.776447 L1.452903,2.760768 L1.457235,2.745126 L1.461702,2.729522 L1.466306,2.713958 L1.471045,2.698434 L1.475919,2.682952 L1.480928,2.667514 L1.486071,2.652120 L1.491348,2.636771 L1.496759,2.621468 L1.502303,2.606214 L1.507979,2.591008 L1.513788,2.575852 L1.519729,2.560748 L1.525801,2.545696 L1.532004,2.530697 L1.538338,2.515753 L1.544801,2.500865 L1.551394,2.486033 L1.558116,2.471260 L1.564967,2.456546 L1.571945,2.441892 L1.579051,2.427299 L1.586284,2.412769 L1.593643,2.398302 L1.601128,2.383900 L1.608739,2.369564 L1.616473,2.355295 L1.624332,2.341094 L1.632315,2.326962 L1.640420,2.312899 L1.648647,2.298908 L1.656996,2.284990 L1.665466,2.271144 L1.674057,2.257373 L1.682767,2.243677 L1.691596,2.230058 L1.700543,2.216516 L1.709608,2.203053 L1.718790,2.189669 L1.728088,2.176365 L1.737502,2.163144 L1.747031,2.150004 L1.756674,2.136948 L1.766430,2.123977 L1.776299,2.111092 L1.786280,2.098292 L1.796372,2.085581 L1.806575,2.072957 L1.816887,2.060423 L1.827308,2.047980 L1.837837,2.035627 L1.848473,2.023367 L1.859215,2.011200 L1.870064,1.999127 L1.881017,1.987150 L1.892074,1.975268 L1.903234,1.963483 L1.914496,1.951795 L1.925860,1.940206 L1.937324,1.928717 L1.948889,1.917328 L1.960551,1.906040 L1.972312,1.894854 L1.984170,1.883771 L1.996124,1.872792 L2.008173,1.861918 L2.020317,1.851149 L2.032554,1.840486 L2.044883,1.829930 L2.057304,1.819482 L2.069815,1.809142 L2.082416,1.798913 L2.095106,1.788793 L2.107884,1.778784 L2.120748,1.768887 L2.133698,1.759102 L2.146732,1.749431 L2.159851,1.739874 L2.173052,1.730431 L2.186335,1.721104 L2.199699,1.711893 L2.213143,1.702798 L2.226665,1.693821 L2.240265,1.684963 L2.253942,1.676223 L2.267694,1.667603 L2.281521,1.659102 L2.295422,1.650723 L2.309395,1.642465 L2.323439,1.634329 L2.337554,1.626316 L2.351738,1.618426 L2.365991,1.610661 L2.380310,1.603019 L2.394696,1.595503 L2.409146,1.588112 L2.423660,1.580848 L2.438238,1.573710 L2.452876,1.566700 L2.467576,1.559817 L2.482334,1.553063 L2.497151,1.546438 L2.512025,1.539942 L2.526956,1.533575 L2.541941,1.527340 L2.556980,1.521235 L2.572071,1.515261 L2.587214,1.509419 L2.602408,1.503710 L2.617650,1.498132 L2.632941,1.492688 L2.648278,1.487378 L2.663661,1.482201 L2.679089,1.477159 L2.694560,1.472251 L2.710073,1.467478 L2.725627,1.462840 L2.741221,1.458339 L2.756854,1.453973 L2.772524,1.449744 L2.788230,1.445651 L2.803972,1.441696 L2.819747,1.437877 L2.835555,1.434197 L2.851394,1.430654 L2.867264,1.427250 L2.883163,1.423983 L2.899089,1.420856 L2.915043,1.417867 L2.931021,1.415018 L2.947024,1.412308 L2.963050,1.409738 L2.979098,1.407307 L2.995166,1.405016 L3.011254,1.402865 L3.027360,1.400855 L3.043482,1.398985 L3.059621,1.397256 L3.075774,1.395667 L3.091940,1.394219 L3.108118,1.392912 L3.124307,1.391746 L3.140505,1.390721 L3.156712,1.389838 L3.172926,1.389095 L3.189145,1.388494 L3.205369,1.388035 L3.221597,1.387717 L3.237827,1.387540 L3.254058,1.387504 L3.270288,1.387611 L3.286517,1.387858 L3.302743,1.388247 L3.318965,1.388777 L3.335182,1.389449 L3.351393,1.390262 L3.367595,1.391216 L3.383789,1.392311 L3.399973,1.393548 L3.416145,1.394925 L3.432305,1.396444 L3.448450,1.398103 L3.464581,1.399902 L3.480695,1.401843 L3.496792,1.403923 L3.512870,1.406144 L3.528929,1.408505 L3.544966,1.411005 L3.560980,1.413646 L3.576971,1.416425 L3.592937,1.419344 L3.608877,1.422402 L3.624790,1.425599 L3.640675,1.428934 L3.656529,1.432408 L3.672353,1.436020 L3.688145,1.439769 L3.703903,1.443656 L3.719628,1.447680 L3.735316,1.451841 L3.750967,1.456139 L3.766581,1.460573 L3.782155,1.465142 L3.797689,1.469847 L3.813181,1.474688 L3.828631,1.479663 L3.844036,1.484773 L3.859396,1.490016 L3.874711,1.495394 L3.889977,1.500904 L3.905195,1.506548 L3.920364,1.512324 L3.935481,1.518232 L3.950546,1.524271 L3.965559,1.530441 L3.980516,1.536742 L3.995419,1.543173 L4.010264,1.549734 L4.025052,1.556424 L4.039782,1.563242 L4.054451,1.570189 L4.069059,1.577263 L4.083605,1.584464 L4.098087,1.591792 L4.112505,1.599245 L4.126858,1.606824 L4.141144,1.614528 L4.155362,1.622356 L4.169512,1.630307 L4.183592,1.638382 L4.197601,1.646579 L4.211538,1.654898 L4.225401,1.663337 L4.239191,1.671898 L4.252906,1.680578 L4.266545,1.689377 L4.280106,1.698295 L4.293589,1.707331 L4.306993,1.716484 L4.320316,1.725753 L4.333559,1.735138 L4.346719,1.744638 L4.359795,1.754253 L4.372788,1.763981 L4.385695,1.773822 L4.398516,1.783775 L4.411250,1.793839 L4.423895,1.804014 L4.436452,1.814299 L4.448918,1.824692 L4.461293,1.835194 L4.473576,1.845804 L4.485767,1.856520 L4.497863,1.867342 L4.509865,1.878269 L4.521771,1.889300 L4.533580,1.900434 L4.545292,1.911671 L4.556906,1.923010 L4.568420,1.934449 L4.579834,1.945988 L4.591148,1.957627 L4.602359,1.969363 L4.613468,1.981197 L4.624473,1.993127 L4.635374,2.005152 L4.646169,2.017272 L4.656859,2.029486 L4.667441,2.041792 L4.677916,2.054190 L4.688283,2.066679 L4.698540,2.079258 L4.708688,2.091925 L4.718724,2.104681 L4.728649,2.117524 L4.738462,2.130452 L4.748162,2.143466 L4.757748,2.156563 L4.767219,2.169744 L4.776575,2.183007 L4.785816,2.196351 L4.794939,2.209774 L4.803945,2.223277 L4.812834,2.236858 L4.821603,2.250516 L4.830254,2.264249 L4.838784,2.278058 L4.847193,2.291940 L4.855482,2.305895 L4.863648,2.319922 L4.871692,2.334019 L4.879613,2.348186 L4.887410,2.362421 L4.895082,2.376724 L4.902630,2.391093 L4.910052,2.405528 L4.917348,2.420026 L4.924517,2.434587 L4.931560,2.449211 L4.938474,2.463895 L4.945261,2.478639 L4.951918,2.493442 L4.958447,2.508302 L4.964845,2.523218 L4.971114,2.538189 L4.977251,2.553215 L4.983258,2.568293 L4.989133,2.583424 L4.994875,2.598605 L5.000486,2.613835 L5.005963,2.629114 L5.011307,2.644439 L5.016517,2.659811 L5.021593,2.675228 L5.026535,2.690688 L5.031342,2.706191 L5.036013,2.721735 L5.040549,2.737319 L5.044948,2.752942 L5.049212,2.768603 L5.053339,2.784300 L5.057328,2.800033 L5.061181,2.815800 L5.064896,2.831600 L5.068473,2.847431 L5.071912,2.863294 L5.075213,2.879185 L5.078375,2.895105 L5.081398,2.911052 L5.084283,2.927024 L5.087028,2.943021 L5.089633,2.959042 L5.092099,2.975084 L5.094424,2.991147 L5.096610,3.007230 L5.098656,3.023332 L5.100561,3.039450 L5.102325,3.055585 L5.103949,3.071734 L5.105432,3.087897 L5.106774,3.104072 L5.107976,3.120258 L5.109036,3.136455 L5.109955,3.152659 L5.110732,3.168871 L5.111369,3.185090 L5.111864,3.201313 L5.112217,3.217540 L5.112429,3.233769 L5.112500,3.250000" />

<!-- Ring alignment holes  -->
  <path stroke="black" fill="none" stroke-width=".01" d=" M3.375000,1.137500 L3.374995,1.138589 L3.374981,1.139679 L3.374957,1.140768 L3.374924,1.141856 L3.374881,1.142945 L3.374829,1.144033 L3.374767,1.145120 L3.374696,1.146207 L3.374616,1.147294 L3.374526,1.148379 L3.374426,1.149464 L3.374317,1.150548 L3.374199,1.151631 L3.374071,1.152713 L3.373934,1.153793 L3.373787,1.154873 L3.373631,1.155951 L3.373465,1.157027 L3.373290,1.158103 L3.373106,1.159176 L3.372913,1.160248 L3.372710,1.161318 L3.372498,1.162387 L3.372276,1.163453 L3.372045,1.164518 L3.371805,1.165581 L3.371556,1.166641 L3.371297,1.167699 L3.371029,1.168755 L3.370752,1.169809 L3.370466,1.170860 L3.370171,1.171908 L3.369867,1.172954 L3.369553,1.173997 L3.369231,1.175038 L3.368899,1.176075 L3.368558,1.177110 L3.368209,1.178142 L3.367850,1.179170 L3.367482,1.180196 L3.367106,1.181218 L3.366720,1.182237 L3.366326,1.183252 L3.365923,1.184264 L3.365511,1.185273 L3.365090,1.186277 L3.364661,1.187278 L3.364223,1.188276 L3.363776,1.189269 L3.363320,1.190259 L3.362856,1.191244 L3.362384,1.192226 L3.361903,1.193203 L3.361413,1.194176 L3.360915,1.195145 L3.360408,1.196109 L3.359893,1.197069 L3.359370,1.198024 L3.358838,1.198975 L3.358299,1.199921 L3.357750,1.200863 L3.357194,1.201799 L3.356630,1.202731 L3.356057,1.203658 L3.355477,1.204579 L3.354888,1.205496 L3.354292,1.206408 L3.353687,1.207314 L3.353075,1.208215 L3.352455,1.209110 L3.351827,1.210000 L3.351191,1.210885 L3.350548,1.211764 L3.349897,1.212637 L3.349238,1.213505 L3.348572,1.214367 L3.347898,1.215223 L3.347217,1.216073 L3.346529,1.216918 L3.345833,1.217756 L3.345130,1.218588 L3.344420,1.219414 L3.343703,1.220233 L3.342978,1.221047 L3.342246,1.221854 L3.341508,1.222655 L3.340762,1.223449 L3.340010,1.224236 L3.339251,1.225018 L3.338485,1.225792 L3.337712,1.226560 L3.336932,1.227321 L3.336146,1.228075 L3.335354,1.228822 L3.334555,1.229563 L3.333749,1.230296 L3.332937,1.231022 L3.332119,1.231741 L3.331295,1.232453 L3.330464,1.233158 L3.329628,1.233856 L3.328785,1.234546 L3.327936,1.235229 L3.327082,1.235904 L3.326221,1.236572 L3.325355,1.237233 L3.324483,1.237886 L3.323605,1.238531 L3.322722,1.239169 L3.321833,1.239798 L3.320939,1.240421 L3.320040,1.241035 L3.319135,1.241641 L3.318224,1.242240 L3.317309,1.242830 L3.316389,1.243413 L3.315463,1.243987 L3.314533,1.244554 L3.313597,1.245112 L3.312657,1.245662 L3.311712,1.246204 L3.310763,1.246738 L3.309808,1.247263 L3.308850,1.247780 L3.307886,1.248289 L3.306919,1.248789 L3.305947,1.249281 L3.304970,1.249764 L3.303990,1.250239 L3.303005,1.250705 L3.302017,1.251163 L3.301024,1.251612 L3.300028,1.252052 L3.299028,1.252484 L3.298024,1.252907 L3.297017,1.253321 L3.296005,1.253726 L3.294991,1.254123 L3.293973,1.254510 L3.292951,1.254889 L3.291927,1.255259 L3.290899,1.255620 L3.289868,1.255972 L3.288834,1.256315 L3.287797,1.256648 L3.286758,1.256973 L3.285715,1.257289 L3.284670,1.257596 L3.283622,1.257893 L3.282572,1.258182 L3.281519,1.258461 L3.280463,1.258731 L3.279406,1.258992 L3.278346,1.259244 L3.277284,1.259486 L3.276220,1.259719 L3.275154,1.259943 L3.274086,1.260158 L3.273016,1.260363 L3.271944,1.260559 L3.270871,1.260745 L3.269796,1.260922 L3.268720,1.261090 L3.267642,1.261249 L3.266563,1.261398 L3.265483,1.261537 L3.264401,1.261668 L3.263319,1.261788 L3.262235,1.261900 L3.261151,1.262002 L3.260065,1.262094 L3.258979,1.262177 L3.257892,1.262251 L3.256805,1.262315 L3.255717,1.262369 L3.254629,1.262414 L3.253540,1.262450 L3.252451,1.262476 L3.251362,1.262493 L3.250272,1.262500 L3.249183,1.262497 L3.248094,1.262485 L3.247005,1.262464 L3.245916,1.262433 L3.244827,1.262393 L3.243739,1.262343 L3.242651,1.262284 L3.241564,1.262215 L3.240478,1.262137 L3.239392,1.262049 L3.238307,1.261952 L3.237223,1.261845 L3.236140,1.261729 L3.235058,1.261604 L3.233977,1.261469 L3.232897,1.261324 L3.231819,1.261171 L3.230742,1.261008 L3.229666,1.260835 L3.228592,1.260653 L3.227520,1.260462 L3.226449,1.260261 L3.225380,1.260051 L3.224313,1.259832 L3.223248,1.259604 L3.222185,1.259366 L3.221124,1.259119 L3.220065,1.258863 L3.219009,1.258597 L3.217955,1.258323 L3.216903,1.258039 L3.215854,1.257746 L3.214807,1.257444 L3.213763,1.257132 L3.212722,1.256812 L3.211684,1.256483 L3.210648,1.256144 L3.209616,1.255797 L3.208587,1.255440 L3.207560,1.255075 L3.206537,1.254701 L3.205518,1.254317 L3.204501,1.253925 L3.203489,1.253525 L3.202479,1.253115 L3.201474,1.252696 L3.200472,1.252269 L3.199473,1.251833 L3.198479,1.251388 L3.197488,1.250935 L3.196502,1.250473 L3.195519,1.250003 L3.194541,1.249524 L3.193567,1.249036 L3.192597,1.248540 L3.191632,1.248036 L3.190671,1.247523 L3.189714,1.247002 L3.188762,1.246472 L3.187815,1.245934 L3.186872,1.245388 L3.185934,1.244834 L3.185001,1.244272 L3.184073,1.243701 L3.183150,1.243123 L3.182233,1.242536 L3.181320,1.241942 L3.180412,1.241339 L3.179510,1.240729 L3.178613,1.240110 L3.177722,1.239484 L3.176836,1.238851 L3.175955,1.238209 L3.175080,1.237560 L3.174211,1.236904 L3.173348,1.236239 L3.172490,1.235568 L3.171639,1.234888 L3.170793,1.234202 L3.169953,1.233508 L3.169120,1.232807 L3.168292,1.232098 L3.167471,1.231383 L3.166656,1.230660 L3.165847,1.229930 L3.165045,1.229193 L3.164249,1.228449 L3.163460,1.227699 L3.162677,1.226941 L3.161901,1.226177 L3.161132,1.225406 L3.160369,1.224628 L3.159613,1.223843 L3.158864,1.223053 L3.158122,1.222255 L3.157387,1.221451 L3.156659,1.220641 L3.155938,1.219824 L3.155224,1.219002 L3.154517,1.218173 L3.153818,1.217337 L3.153126,1.216496 L3.152441,1.215649 L3.151764,1.214796 L3.151094,1.213937 L3.150432,1.213072 L3.149777,1.212201 L3.149130,1.211325 L3.148490,1.210443 L3.147858,1.209556 L3.147234,1.208663 L3.146618,1.207765 L3.146010,1.206861 L3.145409,1.205952 L3.144817,1.205038 L3.144232,1.204119 L3.143655,1.203195 L3.143087,1.202266 L3.142527,1.201332 L3.141974,1.200393 L3.141431,1.199449 L3.140895,1.198500 L3.140367,1.197547 L3.139848,1.196590 L3.139337,1.195627 L3.138835,1.194661 L3.138341,1.193690 L3.137856,1.192715 L3.137379,1.191735 L3.136911,1.190752 L3.136451,1.189764 L3.136000,1.188773 L3.135557,1.187778 L3.135123,1.186778 L3.134698,1.185775 L3.134282,1.184769 L3.133874,1.183759 L3.133476,1.182745 L3.133086,1.181728 L3.132705,1.180707 L3.132333,1.179683 L3.131970,1.178656 L3.131616,1.177626 L3.131270,1.176593 L3.130934,1.175557 L3.130607,1.174518 L3.130289,1.173476 L3.129980,1.172431 L3.129680,1.171384 L3.129389,1.170334 L3.129108,1.169282 L3.128836,1.168227 L3.128572,1.167170 L3.128318,1.166111 L3.128074,1.165050 L3.127838,1.163986 L3.127612,1.162920 L3.127395,1.161853 L3.127188,1.160784 L3.126989,1.159712 L3.126800,1.158640 L3.126621,1.157565 L3.126451,1.156489 L3.126290,1.155412 L3.126139,1.154333 L3.125997,1.153253 L3.125864,1.152172 L3.125741,1.151090 L3.125627,1.150006 L3.125523,1.148922 L3.125428,1.147837 L3.125343,1.146751 L3.125267,1.145664 L3.125200,1.144577 L3.125144,1.143489 L3.125096,1.142401 L3.125058,1.141312 L3.125030,1.140223 L3.125011,1.139134 L3.125001,1.138045 L3.125001,1.136955 L3.125011,1.135866 L3.125030,1.134777 L3.125058,1.133688 L3.125096,1.132599 L3.125144,1.131511 L3.125200,1.130423 L3.125267,1.129336 L3.125343,1.128249 L3.125428,1.127163 L3.125523,1.126078 L3.125627,1.124994 L3.125741,1.123910 L3.125864,1.122828 L3.125997,1.121747 L3.126139,1.120667 L3.126290,1.119588 L3.126451,1.118511 L3.126621,1.117435 L3.126800,1.116360 L3.126989,1.115288 L3.127188,1.114216 L3.127395,1.113147 L3.127612,1.112080 L3.127838,1.111014 L3.128074,1.109950 L3.128318,1.108889 L3.128572,1.107830 L3.128836,1.106773 L3.129108,1.105718 L3.129389,1.104666 L3.129680,1.103616 L3.129980,1.102569 L3.130289,1.101524 L3.130607,1.100482 L3.130934,1.099443 L3.131270,1.098407 L3.131616,1.097374 L3.131970,1.096344 L3.132333,1.095317 L3.132705,1.094293 L3.133086,1.093272 L3.133476,1.092255 L3.133874,1.091241 L3.134282,1.090231 L3.134698,1.089225 L3.135123,1.088222 L3.135557,1.087222 L3.136000,1.086227 L3.136451,1.085236 L3.136911,1.084248 L3.137379,1.083265 L3.137856,1.082285 L3.138341,1.081310 L3.138835,1.080339 L3.139337,1.079373 L3.139848,1.078410 L3.140367,1.077453 L3.140895,1.076500 L3.141431,1.075551 L3.141974,1.074607 L3.142527,1.073668 L3.143087,1.072734 L3.143655,1.071805 L3.144232,1.070881 L3.144817,1.069962 L3.145409,1.069048 L3.146010,1.068139 L3.146618,1.067235 L3.147234,1.066337 L3.147858,1.065444 L3.148490,1.064557 L3.149130,1.063675 L3.149777,1.062799 L3.150432,1.061928 L3.151094,1.061063 L3.151764,1.060204 L3.152441,1.059351 L3.153126,1.058504 L3.153818,1.057663 L3.154517,1.056827 L3.155224,1.055998 L3.155938,1.055176 L3.156659,1.054359 L3.157387,1.053549 L3.158122,1.052745 L3.158864,1.051947 L3.159613,1.051157 L3.160369,1.050372 L3.161132,1.049594 L3.161901,1.048823 L3.162677,1.048059 L3.163460,1.047301 L3.164249,1.046551 L3.165045,1.045807 L3.165847,1.045070 L3.166656,1.044340 L3.167471,1.043617 L3.168292,1.042902 L3.169120,1.042193 L3.169953,1.041492 L3.170793,1.040798 L3.171639,1.040112 L3.172490,1.039432 L3.173348,1.038761 L3.174211,1.038096 L3.175080,1.037440 L3.175955,1.036791 L3.176836,1.036149 L3.177722,1.035516 L3.178613,1.034890 L3.179510,1.034271 L3.180412,1.033661 L3.181320,1.033058 L3.182233,1.032464 L3.183150,1.031877 L3.184073,1.031299 L3.185001,1.030728 L3.185934,1.030166 L3.186872,1.029612 L3.187815,1.029066 L3.188762,1.028528 L3.189714,1.027998 L3.190671,1.027477 L3.191632,1.026964 L3.192597,1.026460 L3.193567,1.025964 L3.194541,1.025476 L3.195519,1.024997 L3.196502,1.024527 L3.197488,1.024065 L3.198479,1.023612 L3.199473,1.023167 L3.200472,1.022731 L3.201474,1.022304 L3.202479,1.021885 L3.203489,1.021475 L3.204501,1.021075 L3.205518,1.020683 L3.206537,1.020299 L3.207560,1.019925 L3.208587,1.019560 L3.209616,1.019203 L3.210648,1.018856 L3.211684,1.018517 L3.212722,1.018188 L3.213763,1.017868 L3.214807,1.017556 L3.215854,1.017254 L3.216903,1.016961 L3.217955,1.016677 L3.219009,1.016403 L3.220065,1.016137 L3.221124,1.015881 L3.222185,1.015634 L3.223248,1.015396 L3.224313,1.015168 L3.225380,1.014949 L3.226449,1.014739 L3.227520,1.014538 L3.228592,1.014347 L3.229666,1.014165 L3.230742,1.013992 L3.231819,1.013829 L3.232897,1.013676 L3.233977,1.013531 L3.235058,1.013396 L3.236140,1.013271 L3.237223,1.013155 L3.238307,1.013048 L3.239392,1.012951 L3.240478,1.012863 L3.241564,1.012785 L3.242651,1.012716 L3.243739,1.012657 L3.244827,1.012607 L3.245916,1.012567 L3.247005,1.012536 L3.248094,1.012515 L3.249183,1.012503 L3.250272,1.012500 L3.251362,1.012507 L3.252451,1.012524 L3.253540,1.012550 L3.254629,1.012586 L3.255717,1.012631 L3.256805,1.012685 L3.257892,1.012749 L3.258979,1.012823 L3.260065,1.012906 L3.261151,1.012998 L3.262235,1.013100 L3.263319,1.013212 L3.264401,1.013332 L3.265483,1.013463 L3.266563,1.013602 L3.267642,1.013751 L3.268720,1.013910 L3.269796,1.014078 L3.270871,1.014255 L3.271944,1.014441 L3.273016,1.014637 L3.274086,1.014842 L3.275154,1.015057 L3.276220,1.015281 L3.277284,1.015514 L3.278346,1.015756 L3.279406,1.016008 L3.280463,1.016269 L3.281519,1.016539 L3.282572,1.016818 L3.283622,1.017107 L3.284670,1.017404 L3.285715,1.017711 L3.286758,1.018027 L3.287797,1.018352 L3.288834,1.018685 L3.289868,1.019028 L3.290899,1.019380 L3.291927,1.019741 L3.292951,1.020111 L3.293973,1.020490 L3.294991,1.020877 L3.296005,1.021274 L3.297017,1.021679 L3.298024,1.022093 L3.299028,1.022516 L3.300028,1.022948 L3.301024,1.023388 L3.302017,1.023837 L3.303005,1.024295 L3.303990,1.024761 L3.304970,1.025236 L3.305947,1.025719 L3.306919,1.026211 L3.307886,1.026711 L3.308850,1.027220 L3.309808,1.027737 L3.310763,1.028262 L3.311712,1.028796 L3.312657,1.029338 L3.313597,1.029888 L3.314533,1.030446 L3.315463,1.031013 L3.316389,1.031587 L3.317309,1.032170 L3.318224,1.032760 L3.319135,1.033359 L3.320040,1.033965 L3.320939,1.034579 L3.321833,1.035202 L3.322722,1.035831 L3.323605,1.036469 L3.324483,1.037114 L3.325355,1.037767 L3.326221,1.038428 L3.327082,1.039096 L3.327936,1.039771 L3.328785,1.040454 L3.329628,1.041144 L3.330464,1.041842 L3.331295,1.042547 L3.332119,1.043259 L3.332937,1.043978 L3.333749,1.044704 L3.334555,1.045437 L3.335354,1.046178 L3.336146,1.046925 L3.336932,1.047679 L3.337712,1.048440 L3.338485,1.049208 L3.339251,1.049982 L3.340010,1.050764 L3.340762,1.051551 L3.341508,1.052345 L3.342246,1.053146 L3.342978,1.053953 L3.343703,1.054767 L3.344420,1.055586 L3.345130,1.056412 L3.345833,1.057244 L3.346529,1.058082 L3.347217,1.058927 L3.347898,1.059777 L3.348572,1.060633 L3.349238,1.061495 L3.349897,1.062363 L3.350548,1.063236 L3.351191,1.064115 L3.351827,1.065000 L3.352455,1.065890 L3.353075,1.066785 L3.353687,1.067686 L3.354292,1.068592 L3.354888,1.069504 L3.355477,1.070421 L3.356057,1.071342 L3.356630,1.072269 L3.357194,1.073201 L3.357750,1.074137 L3.358299,1.075079 L3.358838,1.076025 L3.359370,1.076976 L3.359893,1.077931 L3.360408,1.078891 L3.360915,1.079855 L3.361413,1.080824 L3.361903,1.081797 L3.362384,1.082774 L3.362856,1.083756 L3.363320,1.084741 L3.363776,1.085731 L3.364223,1.086724 L3.364661,1.087722 L3.365090,1.088723 L3.365511,1.089727 L3.365923,1.090736 L3.366326,1.091748 L3.366720,1.092763 L3.367106,1.093782 L3.367482,1.094804 L3.367850,1.095830 L3.368209,1.096858 L3.368558,1.097890 L3.368899,1.098925 L3.369231,1.099962 L3.369553,1.101003 L3.369867,1.102046 L3.370171,1.103092 L3.370466,1.104140 L3.370752,1.105191 L3.371029,1.106245 L3.371297,1.107301 L3.371556,1.108359 L3.371805,1.109419 L3.372045,1.110482 L3.372276,1.111547 L3.372498,1.112613 L3.372710,1.113682 L3.372913,1.114752 L3.373106,1.115824 L3.373290,1.116897 L3.373465,1.117973 L3.373631,1.119049 L3.373787,1.120127 L3.373934,1.121207 L3.374071,1.122287 L3.374199,1.123369 L3.374317,1.124452 L3.374426,1.125536 L3.374526,1.126621 L3.374616,1.127706 L3.374696,1.128793 L3.374767,1.129880 L3.374829,1.130967 L3.374881,1.132055 L3.374924,1.133144 L3.374957,1.134232 L3.374981,1.135321 L3.374995,1.136411 L3.375000,1.137500 M3.375000,5.362500 L3.374995,5.363589 L3.374981,5.364679 L3.374957,5.365768 L3.374924,5.366856 L3.374881,5.367945 L3.374829,5.369033 L3.374767,5.370120 L3.374696,5.371207 L3.374616,5.372294 L3.374526,5.373379 L3.374426,5.374464 L3.374317,5.375548 L3.374199,5.376631 L3.374071,5.377713 L3.373934,5.378793 L3.373787,5.379873 L3.373631,5.380951 L3.373465,5.382027 L3.373290,5.383103 L3.373106,5.384176 L3.372913,5.385248 L3.372710,5.386318 L3.372498,5.387387 L3.372276,5.388453 L3.372045,5.389518 L3.371805,5.390581 L3.371556,5.391641 L3.371297,5.392699 L3.371029,5.393755 L3.370752,5.394809 L3.370466,5.395860 L3.370171,5.396908 L3.369867,5.397954 L3.369553,5.398997 L3.369231,5.400038 L3.368899,5.401075 L3.368558,5.402110 L3.368209,5.403142 L3.367850,5.404170 L3.367482,5.405196 L3.367106,5.406218 L3.366720,5.407237 L3.366326,5.408252 L3.365923,5.409264 L3.365511,5.410273 L3.365090,5.411277 L3.364661,5.412278 L3.364223,5.413276 L3.363776,5.414269 L3.363320,5.415259 L3.362856,5.416244 L3.362384,5.417226 L3.361903,5.418203 L3.361413,5.419176 L3.360915,5.420145 L3.360408,5.421109 L3.359893,5.422069 L3.359370,5.423024 L3.358838,5.423975 L3.358299,5.424921 L3.357750,5.425863 L3.357194,5.426799 L3.356630,5.427731 L3.356057,5.428658 L3.355477,5.429579 L3.354888,5.430496 L3.354292,5.431408 L3.353687,5.432314 L3.353075,5.433215 L3.352455,5.434110 L3.351827,5.435000 L3.351191,5.435885 L3.350548,5.436764 L3.349897,5.437637 L3.349238,5.438505 L3.348572,5.439367 L3.347898,5.440223 L3.347217,5.441073 L3.346529,5.441918 L3.345833,5.442756 L3.345130,5.443588 L3.344420,5.444414 L3.343703,5.445233 L3.342978,5.446047 L3.342246,5.446854 L3.341508,5.447655 L3.340762,5.448449 L3.340010,5.449236 L3.339251,5.450018 L3.338485,5.450792 L3.337712,5.451560 L3.336932,5.452321 L3.336146,5.453075 L3.335354,5.453822 L3.334555,5.454563 L3.333749,5.455296 L3.332937,5.456022 L3.332119,5.456741 L3.331295,5.457453 L3.330464,5.458158 L3.329628,5.458856 L3.328785,5.459546 L3.327936,5.460229 L3.327082,5.460904 L3.326221,5.461572 L3.325355,5.462233 L3.324483,5.462886 L3.323605,5.463531 L3.322722,5.464169 L3.321833,5.464798 L3.320939,5.465421 L3.320040,5.466035 L3.319135,5.466641 L3.318224,5.467240 L3.317309,5.467830 L3.316389,5.468413 L3.315463,5.468987 L3.314533,5.469554 L3.313597,5.470112 L3.312657,5.470662 L3.311712,5.471204 L3.310763,5.471738 L3.309808,5.472263 L3.308850,5.472780 L3.307886,5.473289 L3.306919,5.473789 L3.305947,5.474281 L3.304970,5.474764 L3.303990,5.475239 L3.303005,5.475705 L3.302017,5.476163 L3.301024,5.476612 L3.300028,5.477052 L3.299028,5.477484 L3.298024,5.477907 L3.297017,5.478321 L3.296005,5.478726 L3.294991,5.479123 L3.293973,5.479510 L3.292951,5.479889 L3.291927,5.480259 L3.290899,5.480620 L3.289868,5.480972 L3.288834,5.481315 L3.287797,5.481648 L3.286758,5.481973 L3.285715,5.482289 L3.284670,5.482596 L3.283622,5.482893 L3.282572,5.483182 L3.281519,5.483461 L3.280463,5.483731 L3.279406,5.483992 L3.278346,5.484244 L3.277284,5.484486 L3.276220,5.484719 L3.275154,5.484943 L3.274086,5.485158 L3.273016,5.485363 L3.271944,5.485559 L3.270871,5.485745 L3.269796,5.485922 L3.268720,5.486090 L3.267642,5.486249 L3.266563,5.486398 L3.265483,5.486537 L3.264401,5.486668 L3.263319,5.486788 L3.262235,5.486900 L3.261151,5.487002 L3.260065,5.487094 L3.258979,5.487177 L3.257892,5.487251 L3.256805,5.487315 L3.255717,5.487369 L3.254629,5.487414 L3.253540,5.487450 L3.252451,5.487476 L3.251362,5.487493 L3.250272,5.487500 L3.249183,5.487497 L3.248094,5.487485 L3.247005,5.487464 L3.245916,5.487433 L3.244827,5.487393 L3.243739,5.487343 L3.242651,5.487284 L3.241564,5.487215 L3.240478,5.487137 L3.239392,5.487049 L3.238307,5.486952 L3.237223,5.486845 L3.236140,5.486729 L3.235058,5.486604 L3.233977,5.486469 L3.232897,5.486324 L3.231819,5.486171 L3.230742,5.486008 L3.229666,5.485835 L3.228592,5.485653 L3.227520,5.485462 L3.226449,5.485261 L3.225380,5.485051 L3.224313,5.484832 L3.223248,5.484604 L3.222185,5.484366 L3.221124,5.484119 L3.220065,5.483863 L3.219009,5.483597 L3.217955,5.483323 L3.216903,5.483039 L3.215854,5.482746 L3.214807,5.482444 L3.213763,5.482132 L3.212722,5.481812 L3.211684,5.481483 L3.210648,5.481144 L3.209616,5.480797 L3.208587,5.480440 L3.207560,5.480075 L3.206537,5.479701 L3.205518,5.479317 L3.204501,5.478925 L3.203489,5.478525 L3.202479,5.478115 L3.201474,5.477696 L3.200472,5.477269 L3.199473,5.476833 L3.198479,5.476388 L3.197488,5.475935 L3.196502,5.475473 L3.195519,5.475003 L3.194541,5.474524 L3.193567,5.474036 L3.192597,5.473540 L3.191632,5.473036 L3.190671,5.472523 L3.189714,5.472002 L3.188762,5.471472 L3.187815,5.470934 L3.186872,5.470388 L3.185934,5.469834 L3.185001,5.469272 L3.184073,5.468701 L3.183150,5.468123 L3.182233,5.467536 L3.181320,5.466942 L3.180412,5.466339 L3.179510,5.465729 L3.178613,5.465110 L3.177722,5.464484 L3.176836,5.463851 L3.175955,5.463209 L3.175080,5.462560 L3.174211,5.461904 L3.173348,5.461239 L3.172490,5.460568 L3.171639,5.459888 L3.170793,5.459202 L3.169953,5.458508 L3.169120,5.457807 L3.168292,5.457098 L3.167471,5.456383 L3.166656,5.455660 L3.165847,5.454930 L3.165045,5.454193 L3.164249,5.453449 L3.163460,5.452699 L3.162677,5.451941 L3.161901,5.451177 L3.161132,5.450406 L3.160369,5.449628 L3.159613,5.448843 L3.158864,5.448053 L3.158122,5.447255 L3.157387,5.446451 L3.156659,5.445641 L3.155938,5.444824 L3.155224,5.444002 L3.154517,5.443173 L3.153818,5.442337 L3.153126,5.441496 L3.152441,5.440649 L3.151764,5.439796 L3.151094,5.438937 L3.150432,5.438072 L3.149777,5.437201 L3.149130,5.436325 L3.148490,5.435443 L3.147858,5.434556 L3.147234,5.433663 L3.146618,5.432765 L3.146010,5.431861 L3.145409,5.430952 L3.144817,5.430038 L3.144232,5.429119 L3.143655,5.428195 L3.143087,5.427266 L3.142527,5.426332 L3.141974,5.425393 L3.141431,5.424449 L3.140895,5.423500 L3.140367,5.422547 L3.139848,5.421590 L3.139337,5.420627 L3.138835,5.419661 L3.138341,5.418690 L3.137856,5.417715 L3.137379,5.416735 L3.136911,5.415752 L3.136451,5.414764 L3.136000,5.413773 L3.135557,5.412778 L3.135123,5.411778 L3.134698,5.410775 L3.134282,5.409769 L3.133874,5.408759 L3.133476,5.407745 L3.133086,5.406728 L3.132705,5.405707 L3.132333,5.404683 L3.131970,5.403656 L3.131616,5.402626 L3.131270,5.401593 L3.130934,5.400557 L3.130607,5.399518 L3.130289,5.398476 L3.129980,5.397431 L3.129680,5.396384 L3.129389,5.395334 L3.129108,5.394282 L3.128836,5.393227 L3.128572,5.392170 L3.128318,5.391111 L3.128074,5.390050 L3.127838,5.388986 L3.127612,5.387920 L3.127395,5.386853 L3.127188,5.385784 L3.126989,5.384712 L3.126800,5.383640 L3.126621,5.382565 L3.126451,5.381489 L3.126290,5.380412 L3.126139,5.379333 L3.125997,5.378253 L3.125864,5.377172 L3.125741,5.376090 L3.125627,5.375006 L3.125523,5.373922 L3.125428,5.372837 L3.125343,5.371751 L3.125267,5.370664 L3.125200,5.369577 L3.125144,5.368489 L3.125096,5.367401 L3.125058,5.366312 L3.125030,5.365223 L3.125011,5.364134 L3.125001,5.363045 L3.125001,5.361955 L3.125011,5.360866 L3.125030,5.359777 L3.125058,5.358688 L3.125096,5.357599 L3.125144,5.356511 L3.125200,5.355423 L3.125267,5.354336 L3.125343,5.353249 L3.125428,5.352163 L3.125523,5.351078 L3.125627,5.349994 L3.125741,5.348910 L3.125864,5.347828 L3.125997,5.346747 L3.126139,5.345667 L3.126290,5.344588 L3.126451,5.343511 L3.126621,5.342435 L3.126800,5.341360 L3.126989,5.340288 L3.127188,5.339216 L3.127395,5.338147 L3.127612,5.337080 L3.127838,5.336014 L3.128074,5.334950 L3.128318,5.333889 L3.128572,5.332830 L3.128836,5.331773 L3.129108,5.330718 L3.129389,5.329666 L3.129680,5.328616 L3.129980,5.327569 L3.130289,5.326524 L3.130607,5.325482 L3.130934,5.324443 L3.131270,5.323407 L3.131616,5.322374 L3.131970,5.321344 L3.132333,5.320317 L3.132705,5.319293 L3.133086,5.318272 L3.133476,5.317255 L3.133874,5.316241 L3.134282,5.315231 L3.134698,5.314225 L3.135123,5.313222 L3.135557,5.312222 L3.136000,5.311227 L3.136451,5.310236 L3.136911,5.309248 L3.137379,5.308265 L3.137856,5.307285 L3.138341,5.306310 L3.138835,5.305339 L3.139337,5.304373 L3.139848,5.303410 L3.140367,5.302453 L3.140895,5.301500 L3.141431,5.300551 L3.141974,5.299607 L3.142527,5.298668 L3.143087,5.297734 L3.143655,5.296805 L3.144232,5.295881 L3.144817,5.294962 L3.145409,5.294048 L3.146010,5.293139 L3.146618,5.292235 L3.147234,5.291337 L3.147858,5.290444 L3.148490,5.289557 L3.149130,5.288675 L3.149777,5.287799 L3.150432,5.286928 L3.151094,5.286063 L3.151764,5.285204 L3.152441,5.284351 L3.153126,5.283504 L3.153818,5.282663 L3.154517,5.281827 L3.155224,5.280998 L3.155938,5.280176 L3.156659,5.279359 L3.157387,5.278549 L3.158122,5.277745 L3.158864,5.276947 L3.159613,5.276157 L3.160369,5.275372 L3.161132,5.274594 L3.161901,5.273823 L3.162677,5.273059 L3.163460,5.272301 L3.164249,5.271551 L3.165045,5.270807 L3.165847,5.270070 L3.166656,5.269340 L3.167471,5.268617 L3.168292,5.267902 L3.169120,5.267193 L3.169953,5.266492 L3.170793,5.265798 L3.171639,5.265112 L3.172490,5.264432 L3.173348,5.263761 L3.174211,5.263096 L3.175080,5.262440 L3.175955,5.261791 L3.176836,5.261149 L3.177722,5.260516 L3.178613,5.259890 L3.179510,5.259271 L3.180412,5.258661 L3.181320,5.258058 L3.182233,5.257464 L3.183150,5.256877 L3.184073,5.256299 L3.185001,5.255728 L3.185934,5.255166 L3.186872,5.254612 L3.187815,5.254066 L3.188762,5.253528 L3.189714,5.252998 L3.190671,5.252477 L3.191632,5.251964 L3.192597,5.251460 L3.193567,5.250964 L3.194541,5.250476 L3.195519,5.249997 L3.196502,5.249527 L3.197488,5.249065 L3.198479,5.248612 L3.199473,5.248167 L3.200472,5.247731 L3.201474,5.247304 L3.202479,5.246885 L3.203489,5.246475 L3.204501,5.246075 L3.205518,5.245683 L3.206537,5.245299 L3.207560,5.244925 L3.208587,5.244560 L3.209616,5.244203 L3.210648,5.243856 L3.211684,5.243517 L3.212722,5.243188 L3.213763,5.242868 L3.214807,5.242556 L3.215854,5.242254 L3.216903,5.241961 L3.217955,5.241677 L3.219009,5.241403 L3.220065,5.241137 L3.221124,5.240881 L3.222185,5.240634 L3.223248,5.240396 L3.224313,5.240168 L3.225380,5.239949 L3.226449,5.239739 L3.227520,5.239538 L3.228592,5.239347 L3.229666,5.239165 L3.230742,5.238992 L3.231819,5.238829 L3.232897,5.238676 L3.233977,5.238531 L3.235058,5.238396 L3.236140,5.238271 L3.237223,5.238155 L3.238307,5.238048 L3.239392,5.237951 L3.240478,5.237863 L3.241564,5.237785 L3.242651,5.237716 L3.243739,5.237657 L3.244827,5.237607 L3.245916,5.237567 L3.247005,5.237536 L3.248094,5.237515 L3.249183,5.237503 L3.250272,5.237500 L3.251362,5.237507 L3.252451,5.237524 L3.253540,5.237550 L3.254629,5.237586 L3.255717,5.237631 L3.256805,5.237685 L3.257892,5.237749 L3.258979,5.237823 L3.260065,5.237906 L3.261151,5.237998 L3.262235,5.238100 L3.263319,5.238212 L3.264401,5.238332 L3.265483,5.238463 L3.266563,5.238602 L3.267642,5.238751 L3.268720,5.238910 L3.269796,5.239078 L3.270871,5.239255 L3.271944,5.239441 L3.273016,5.239637 L3.274086,5.239842 L3.275154,5.240057 L3.276220,5.240281 L3.277284,5.240514 L3.278346,5.240756 L3.279406,5.241008 L3.280463,5.241269 L3.281519,5.241539 L3.282572,5.241818 L3.283622,5.242107 L3.284670,5.242404 L3.285715,5.242711 L3.286758,5.243027 L3.287797,5.243352 L3.288834,5.243685 L3.289868,5.244028 L3.290899,5.244380 L3.291927,5.244741 L3.292951,5.245111 L3.293973,5.245490 L3.294991,5.245877 L3.296005,5.246274 L3.297017,5.246679 L3.298024,5.247093 L3.299028,5.247516 L3.300028,5.247948 L3.301024,5.248388 L3.302017,5.248837 L3.303005,5.249295 L3.303990,5.249761 L3.304970,5.250236 L3.305947,5.250719 L3.306919,5.251211 L3.307886,5.251711 L3.308850,5.252220 L3.309808,5.252737 L3.310763,5.253262 L3.311712,5.253796 L3.312657,5.254338 L3.313597,5.254888 L3.314533,5.255446 L3.315463,5.256013 L3.316389,5.256587 L3.317309,5.257170 L3.318224,5.257760 L3.319135,5.258359 L3.320040,5.258965 L3.320939,5.259579 L3.321833,5.260202 L3.322722,5.260831 L3.323605,5.261469 L3.324483,5.262114 L3.325355,5.262767 L3.326221,5.263428 L3.327082,5.264096 L3.327936,5.264771 L3.328785,5.265454 L3.329628,5.266144 L3.330464,5.266842 L3.331295,5.267547 L3.332119,5.268259 L3.332937,5.268978 L3.333749,5.269704 L3.334555,5.270437 L3.335354,5.271178 L3.336146,5.271925 L3.336932,5.272679 L3.337712,5.273440 L3.338485,5.274208 L3.339251,5.274982 L3.340010,5.275764 L3.340762,5.276551 L3.341508,5.277345 L3.342246,5.278146 L3.342978,5.278953 L3.343703,5.279767 L3.344420,5.280586 L3.345130,5.281412 L3.345833,5.282244 L3.346529,5.283082 L3.347217,5.283927 L3.347898,5.284777 L3.348572,5.285633 L3.349238,5.286495 L3.349897,5.287363 L3.350548,5.288236 L3.351191,5.289115 L3.351827,5.290000 L3.352455,5.290890 L3.353075,5.291785 L3.353687,5.292686 L3.354292,5.293592 L3.354888,5.294504 L3.355477,5.295421 L3.356057,5.296342 L3.356630,5.297269 L3.357194,5.298201 L3.357750,5.299137 L3.358299,5.300079 L3.358838,5.301025 L3.359370,5.301976 L3.359893,5.302931 L3.360408,5.303891 L3.360915,5.304855 L3.361413,5.305824 L3.361903,5.306797 L3.362384,5.307774 L3.362856,5.308756 L3.363320,5.309741 L3.363776,5.310731 L3.364223,5.311724 L3.364661,5.312722 L3.365090,5.313723 L3.365511,5.314727 L3.365923,5.315736 L3.366326,5.316748 L3.366720,5.317763 L3.367106,5.318782 L3.367482,5.319804 L3.367850,5.320830 L3.368209,5.321858 L3.368558,5.322890 L3.368899,5.323925 L3.369231,5.324962 L3.369553,5.326003 L3.369867,5.327046 L3.370171,5.328092 L3.370466,5.329140 L3.370752,5.330191 L3.371029,5.331245 L3.371297,5.332301 L3.371556,5.333359 L3.371805,5.334419 L3.372045,5.335482 L3.372276,5.336547 L3.372498,5.337613 L3.372710,5.338682 L3.372913,5.339752 L3.373106,5.340824 L3.373290,5.341897 L3.373465,5.342973 L3.373631,5.344049 L3.373787,5.345127 L3.373934,5.346207 L3.374071,5.347287 L3.374199,5.348369 L3.374317,5.349452 L3.374426,5.350536 L3.374526,5.351621 L3.374616,5.352706 L3.374696,5.353793 L3.374767,5.354880 L3.374829,5.355967 L3.374881,5.357055 L3.374924,5.358144 L3.374957,5.359232 L3.374981,5.360321 L3.374995,5.361411 L3.375000,5.362500 M1.262500,3.250000 L1.262495,3.251089 L1.262481,3.252179 L1.262457,3.253268 L1.262424,3.254356 L1.262381,3.255445 L1.262329,3.256533 L1.262267,3.257620 L1.262196,3.258707 L1.262116,3.259794 L1.262026,3.260879 L1.261926,3.261964 L1.261817,3.263048 L1.261699,3.264131 L1.261571,3.265213 L1.261434,3.266293 L1.261287,3.267373 L1.261131,3.268451 L1.260965,3.269527 L1.260790,3.270603 L1.260606,3.271676 L1.260413,3.272748 L1.260210,3.273818 L1.259998,3.274887 L1.259776,3.275953 L1.259545,3.277018 L1.259305,3.278081 L1.259056,3.279141 L1.258797,3.280199 L1.258529,3.281255 L1.258252,3.282309 L1.257966,3.283360 L1.257671,3.284408 L1.257367,3.285454 L1.257053,3.286497 L1.256731,3.287538 L1.256399,3.288575 L1.256058,3.289610 L1.255709,3.290642 L1.255350,3.291670 L1.254982,3.292696 L1.254606,3.293718 L1.254220,3.294737 L1.253826,3.295752 L1.253423,3.296764 L1.253011,3.297773 L1.252590,3.298777 L1.252161,3.299778 L1.251723,3.300776 L1.251276,3.301769 L1.250820,3.302759 L1.250356,3.303744 L1.249884,3.304726 L1.249403,3.305703 L1.248913,3.306676 L1.248415,3.307645 L1.247908,3.308609 L1.247393,3.309569 L1.246870,3.310524 L1.246338,3.311475 L1.245799,3.312421 L1.245250,3.313363 L1.244694,3.314299 L1.244130,3.315231 L1.243557,3.316158 L1.242977,3.317079 L1.242388,3.317996 L1.241792,3.318908 L1.241187,3.319814 L1.240575,3.320715 L1.239955,3.321610 L1.239327,3.322500 L1.238691,3.323385 L1.238048,3.324264 L1.237397,3.325137 L1.236738,3.326005 L1.236072,3.326867 L1.235398,3.327723 L1.234717,3.328573 L1.234029,3.329418 L1.233333,3.330256 L1.232630,3.331088 L1.231920,3.331914 L1.231203,3.332733 L1.230478,3.333547 L1.229746,3.334354 L1.229008,3.335155 L1.228262,3.335949 L1.227510,3.336736 L1.226751,3.337518 L1.225985,3.338292 L1.225212,3.339060 L1.224432,3.339821 L1.223646,3.340575 L1.222854,3.341322 L1.222055,3.342063 L1.221249,3.342796 L1.220437,3.343522 L1.219619,3.344241 L1.218795,3.344953 L1.217964,3.345658 L1.217128,3.346356 L1.216285,3.347046 L1.215436,3.347729 L1.214582,3.348404 L1.213721,3.349072 L1.212855,3.349733 L1.211983,3.350386 L1.211105,3.351031 L1.210222,3.351669 L1.209333,3.352298 L1.208439,3.352921 L1.207540,3.353535 L1.206635,3.354141 L1.205724,3.354740 L1.204809,3.355330 L1.203889,3.355913 L1.202963,3.356487 L1.202033,3.357054 L1.201097,3.357612 L1.200157,3.358162 L1.199212,3.358704 L1.198263,3.359238 L1.197308,3.359763 L1.196350,3.360280 L1.195386,3.360789 L1.194419,3.361289 L1.193447,3.361781 L1.192470,3.362264 L1.191490,3.362739 L1.190505,3.363205 L1.189517,3.363663 L1.188524,3.364112 L1.187528,3.364552 L1.186528,3.364984 L1.185524,3.365407 L1.184517,3.365821 L1.183505,3.366226 L1.182491,3.366623 L1.181473,3.367010 L1.180451,3.367389 L1.179427,3.367759 L1.178399,3.368120 L1.177368,3.368472 L1.176334,3.368815 L1.175297,3.369148 L1.174258,3.369473 L1.173215,3.369789 L1.172170,3.370096 L1.171122,3.370393 L1.170072,3.370682 L1.169019,3.370961 L1.167963,3.371231 L1.166906,3.371492 L1.165846,3.371744 L1.164784,3.371986 L1.163720,3.372219 L1.162654,3.372443 L1.161586,3.372658 L1.160516,3.372863 L1.159444,3.373059 L1.158371,3.373245 L1.157296,3.373422 L1.156220,3.373590 L1.155142,3.373749 L1.154063,3.373898 L1.152983,3.374037 L1.151901,3.374168 L1.150819,3.374288 L1.149735,3.374400 L1.148651,3.374502 L1.147565,3.374594 L1.146479,3.374677 L1.145392,3.374751 L1.144305,3.374815 L1.143217,3.374869 L1.142129,3.374914 L1.141040,3.374950 L1.139951,3.374976 L1.138862,3.374993 L1.137772,3.375000 L1.136683,3.374997 L1.135594,3.374985 L1.134505,3.374964 L1.133416,3.374933 L1.132327,3.374893 L1.131239,3.374843 L1.130151,3.374784 L1.129064,3.374715 L1.127978,3.374637 L1.126892,3.374549 L1.125807,3.374452 L1.124723,3.374345 L1.123640,3.374229 L1.122558,3.374104 L1.121477,3.373969 L1.120397,3.373824 L1.119319,3.373671 L1.118242,3.373508 L1.117166,3.373335 L1.116092,3.373153 L1.115020,3.372962 L1.113949,3.372761 L1.112880,3.372551 L1.111813,3.372332 L1.110748,3.372104 L1.109685,3.371866 L1.108624,3.371619 L1.107565,3.371363 L1.106509,3.371097 L1.105455,3.370823 L1.104403,3.370539 L1.103354,3.370246 L1.102307,3.369944 L1.101263,3.369632 L1.100222,3.369312 L1.099184,3.368983 L1.098148,3.368644 L1.097116,3.368297 L1.096087,3.367940 L1.095060,3.367575 L1.094037,3.367201 L1.093018,3.366817 L1.092001,3.366425 L1.090989,3.366025 L1.089979,3.365615 L1.088974,3.365196 L1.087972,3.364769 L1.086973,3.364333 L1.085979,3.363888 L1.084988,3.363435 L1.084002,3.362973 L1.083019,3.362503 L1.082041,3.362024 L1.081067,3.361536 L1.080097,3.361040 L1.079132,3.360536 L1.078171,3.360023 L1.077214,3.359502 L1.076262,3.358972 L1.075315,3.358434 L1.074372,3.357888 L1.073434,3.357334 L1.072501,3.356772 L1.071573,3.356201 L1.070650,3.355623 L1.069733,3.355036 L1.068820,3.354442 L1.067912,3.353839 L1.067010,3.353229 L1.066113,3.352610 L1.065222,3.351984 L1.064336,3.351351 L1.063455,3.350709 L1.062580,3.350060 L1.061711,3.349404 L1.060848,3.348739 L1.059990,3.348068 L1.059139,3.347388 L1.058293,3.346702 L1.057453,3.346008 L1.056620,3.345307 L1.055792,3.344598 L1.054971,3.343883 L1.054156,3.343160 L1.053347,3.342430 L1.052545,3.341693 L1.051749,3.340949 L1.050960,3.340199 L1.050177,3.339441 L1.049401,3.338677 L1.048632,3.337906 L1.047869,3.337128 L1.047113,3.336343 L1.046364,3.335553 L1.045622,3.334755 L1.044887,3.333951 L1.044159,3.333141 L1.043438,3.332324 L1.042724,3.331502 L1.042017,3.330673 L1.041318,3.329837 L1.040626,3.328996 L1.039941,3.328149 L1.039264,3.327296 L1.038594,3.326437 L1.037932,3.325572 L1.037277,3.324701 L1.036630,3.323825 L1.035990,3.322943 L1.035358,3.322056 L1.034734,3.321163 L1.034118,3.320265 L1.033510,3.319361 L1.032909,3.318452 L1.032317,3.317538 L1.031732,3.316619 L1.031155,3.315695 L1.030587,3.314766 L1.030027,3.313832 L1.029474,3.312893 L1.028931,3.311949 L1.028395,3.311000 L1.027867,3.310047 L1.027348,3.309090 L1.026837,3.308127 L1.026335,3.307161 L1.025841,3.306190 L1.025356,3.305215 L1.024879,3.304235 L1.024411,3.303252 L1.023951,3.302264 L1.023500,3.301273 L1.023057,3.300278 L1.022623,3.299278 L1.022198,3.298275 L1.021782,3.297269 L1.021374,3.296259 L1.020976,3.295245 L1.020586,3.294228 L1.020205,3.293207 L1.019833,3.292183 L1.019470,3.291156 L1.019116,3.290126 L1.018770,3.289093 L1.018434,3.288057 L1.018107,3.287018 L1.017789,3.285976 L1.017480,3.284931 L1.017180,3.283884 L1.016889,3.282834 L1.016608,3.281782 L1.016336,3.280727 L1.016072,3.279670 L1.015818,3.278611 L1.015574,3.277550 L1.015338,3.276486 L1.015112,3.275420 L1.014895,3.274353 L1.014688,3.273284 L1.014489,3.272212 L1.014300,3.271140 L1.014121,3.270065 L1.013951,3.268989 L1.013790,3.267912 L1.013639,3.266833 L1.013497,3.265753 L1.013364,3.264672 L1.013241,3.263590 L1.013127,3.262506 L1.013023,3.261422 L1.012928,3.260337 L1.012843,3.259251 L1.012767,3.258164 L1.012700,3.257077 L1.012644,3.255989 L1.012596,3.254901 L1.012558,3.253812 L1.012530,3.252723 L1.012511,3.251634 L1.012501,3.250545 L1.012501,3.249455 L1.012511,3.248366 L1.012530,3.247277 L1.012558,3.246188 L1.012596,3.245099 L1.012644,3.244011 L1.012700,3.242923 L1.012767,3.241836 L1.012843,3.240749 L1.012928,3.239663 L1.013023,3.238578 L1.013127,3.237494 L1.013241,3.236410 L1.013364,3.235328 L1.013497,3.234247 L1.013639,3.233167 L1.013790,3.232088 L1.013951,3.231011 L1.014121,3.229935 L1.014300,3.228860 L1.014489,3.227788 L1.014688,3.226716 L1.014895,3.225647 L1.015112,3.224580 L1.015338,3.223514 L1.015574,3.222450 L1.015818,3.221389 L1.016072,3.220330 L1.016336,3.219273 L1.016608,3.218218 L1.016889,3.217166 L1.017180,3.216116 L1.017480,3.215069 L1.017789,3.214024 L1.018107,3.212982 L1.018434,3.211943 L1.018770,3.210907 L1.019116,3.209874 L1.019470,3.208844 L1.019833,3.207817 L1.020205,3.206793 L1.020586,3.205772 L1.020976,3.204755 L1.021374,3.203741 L1.021782,3.202731 L1.022198,3.201725 L1.022623,3.200722 L1.023057,3.199722 L1.023500,3.198727 L1.023951,3.197736 L1.024411,3.196748 L1.024879,3.195765 L1.025356,3.194785 L1.025841,3.193810 L1.026335,3.192839 L1.026837,3.191873 L1.027348,3.190910 L1.027867,3.189953 L1.028395,3.189000 L1.028931,3.188051 L1.029474,3.187107 L1.030027,3.186168 L1.030587,3.185234 L1.031155,3.184305 L1.031732,3.183381 L1.032317,3.182462 L1.032909,3.181548 L1.033510,3.180639 L1.034118,3.179735 L1.034734,3.178837 L1.035358,3.177944 L1.035990,3.177057 L1.036630,3.176175 L1.037277,3.175299 L1.037932,3.174428 L1.038594,3.173563 L1.039264,3.172704 L1.039941,3.171851 L1.040626,3.171004 L1.041318,3.170163 L1.042017,3.169327 L1.042724,3.168498 L1.043438,3.167676 L1.044159,3.166859 L1.044887,3.166049 L1.045622,3.165245 L1.046364,3.164447 L1.047113,3.163657 L1.047869,3.162872 L1.048632,3.162094 L1.049401,3.161323 L1.050177,3.160559 L1.050960,3.159801 L1.051749,3.159051 L1.052545,3.158307 L1.053347,3.157570 L1.054156,3.156840 L1.054971,3.156117 L1.055792,3.155402 L1.056620,3.154693 L1.057453,3.153992 L1.058293,3.153298 L1.059139,3.152612 L1.059990,3.151932 L1.060848,3.151261 L1.061711,3.150596 L1.062580,3.149940 L1.063455,3.149291 L1.064336,3.148649 L1.065222,3.148016 L1.066113,3.147390 L1.067010,3.146771 L1.067912,3.146161 L1.068820,3.145558 L1.069733,3.144964 L1.070650,3.144377 L1.071573,3.143799 L1.072501,3.143228 L1.073434,3.142666 L1.074372,3.142112 L1.075315,3.141566 L1.076262,3.141028 L1.077214,3.140498 L1.078171,3.139977 L1.079132,3.139464 L1.080097,3.138960 L1.081067,3.138464 L1.082041,3.137976 L1.083019,3.137497 L1.084002,3.137027 L1.084988,3.136565 L1.085979,3.136112 L1.086973,3.135667 L1.087972,3.135231 L1.088974,3.134804 L1.089979,3.134385 L1.090989,3.133975 L1.092001,3.133575 L1.093018,3.133183 L1.094037,3.132799 L1.095060,3.132425 L1.096087,3.132060 L1.097116,3.131703 L1.098148,3.131356 L1.099184,3.131017 L1.100222,3.130688 L1.101263,3.130368 L1.102307,3.130056 L1.103354,3.129754 L1.104403,3.129461 L1.105455,3.129177 L1.106509,3.128903 L1.107565,3.128637 L1.108624,3.128381 L1.109685,3.128134 L1.110748,3.127896 L1.111813,3.127668 L1.112880,3.127449 L1.113949,3.127239 L1.115020,3.127038 L1.116092,3.126847 L1.117166,3.126665 L1.118242,3.126492 L1.119319,3.126329 L1.120397,3.126176 L1.121477,3.126031 L1.122558,3.125896 L1.123640,3.125771 L1.124723,3.125655 L1.125807,3.125548 L1.126892,3.125451 L1.127978,3.125363 L1.129064,3.125285 L1.130151,3.125216 L1.131239,3.125157 L1.132327,3.125107 L1.133416,3.125067 L1.134505,3.125036 L1.135594,3.125015 L1.136683,3.125003 L1.137772,3.125000 L1.138862,3.125007 L1.139951,3.125024 L1.141040,3.125050 L1.142129,3.125086 L1.143217,3.125131 L1.144305,3.125185 L1.145392,3.125249 L1.146479,3.125323 L1.147565,3.125406 L1.148651,3.125498 L1.149735,3.125600 L1.150819,3.125712 L1.151901,3.125832 L1.152983,3.125963 L1.154063,3.126102 L1.155142,3.126251 L1.156220,3.126410 L1.157296,3.126578 L1.158371,3.126755 L1.159444,3.126941 L1.160516,3.127137 L1.161586,3.127342 L1.162654,3.127557 L1.163720,3.127781 L1.164784,3.128014 L1.165846,3.128256 L1.166906,3.128508 L1.167963,3.128769 L1.169019,3.129039 L1.170072,3.129318 L1.171122,3.129607 L1.172170,3.129904 L1.173215,3.130211 L1.174258,3.130527 L1.175297,3.130852 L1.176334,3.131185 L1.177368,3.131528 L1.178399,3.131880 L1.179427,3.132241 L1.180451,3.132611 L1.181473,3.132990 L1.182491,3.133377 L1.183505,3.133774 L1.184517,3.134179 L1.185524,3.134593 L1.186528,3.135016 L1.187528,3.135448 L1.188524,3.135888 L1.189517,3.136337 L1.190505,3.136795 L1.191490,3.137261 L1.192470,3.137736 L1.193447,3.138219 L1.194419,3.138711 L1.195386,3.139211 L1.196350,3.139720 L1.197308,3.140237 L1.198263,3.140762 L1.199212,3.141296 L1.200157,3.141838 L1.201097,3.142388 L1.202033,3.142946 L1.202963,3.143513 L1.203889,3.144087 L1.204809,3.144670 L1.205724,3.145260 L1.206635,3.145859 L1.207540,3.146465 L1.208439,3.147079 L1.209333,3.147702 L1.210222,3.148331 L1.211105,3.148969 L1.211983,3.149614 L1.212855,3.150267 L1.213721,3.150928 L1.214582,3.151596 L1.215436,3.152271 L1.216285,3.152954 L1.217128,3.153644 L1.217964,3.154342 L1.218795,3.155047 L1.219619,3.155759 L1.220437,3.156478 L1.221249,3.157204 L1.222055,3.157937 L1.222854,3.158678 L1.223646,3.159425 L1.224432,3.160179 L1.225212,3.160940 L1.225985,3.161708 L1.226751,3.162482 L1.227510,3.163264 L1.228262,3.164051 L1.229008,3.164845 L1.229746,3.165646 L1.230478,3.166453 L1.231203,3.167267 L1.231920,3.168086 L1.232630,3.168912 L1.233333,3.169744 L1.234029,3.170582 L1.234717,3.171427 L1.235398,3.172277 L1.236072,3.173133 L1.236738,3.173995 L1.237397,3.174863 L1.238048,3.175736 L1.238691,3.176615 L1.239327,3.177500 L1.239955,3.178390 L1.240575,3.179285 L1.241187,3.180186 L1.241792,3.181092 L1.242388,3.182004 L1.242977,3.182921 L1.243557,3.183842 L1.244130,3.184769 L1.244694,3.185701 L1.245250,3.186637 L1.245799,3.187579 L1.246338,3.188525 L1.246870,3.189476 L1.247393,3.190431 L1.247908,3.191391 L1.248415,3.192355 L1.248913,3.193324 L1.249403,3.194297 L1.249884,3.195274 L1.250356,3.196256 L1.250820,3.197241 L1.251276,3.198231 L1.251723,3.199224 L1.252161,3.200222 L1.252590,3.201223 L1.253011,3.202227 L1.253423,3.203236 L1.253826,3.204248 L1.254220,3.205263 L1.254606,3.206282 L1.254982,3.207304 L1.255350,3.208330 L1.255709,3.209358 L1.256058,3.210390 L1.256399,3.211425 L1.256731,3.212462 L1.257053,3.213503 L1.257367,3.214546 L1.257671,3.215592 L1.257966,3.216640 L1.258252,3.217691 L1.258529,3.218745 L1.258797,3.219801 L1.259056,3.220859 L1.259305,3.221919 L1.259545,3.222982 L1.259776,3.224047 L1.259998,3.225113 L1.260210,3.226182 L1.260413,3.227252 L1.260606,3.228324 L1.260790,3.229397 L1.260965,3.230473 L1.261131,3.231549 L1.261287,3.232627 L1.261434,3.233707 L1.261571,3.234787 L1.261699,3.235869 L1.261817,3.236952 L1.261926,3.238036 L1.262026,3.239121 L1.262116,3.240206 L1.262196,3.241293 L1.262267,3.242380 L1.262329,3.243467 L1.262381,3.244555 L1.262424,3.245644 L1.262457,3.246732 L1.262481,3.247821 L1.262495,3.248911 L1.262500,3.250000 M5.487500,3.250000 L5.487495,3.251089 L5.487481,3.252179 L5.487457,3.253268 L5.487424,3.254356 L5.487381,3.255445 L5.487329,3.256533 L5.487267,3.257620 L5.487196,3.258707 L5.487116,3.259794 L5.487026,3.260879 L5.486926,3.261964 L5.486817,3.263048 L5.486699,3.264131 L5.486571,3.265213 L5.486434,3.266293 L5.486287,3.267373 L5.486131,3.268451 L5.485965,3.269527 L5.485790,3.270603 L5.485606,3.271676 L5.485413,3.272748 L5.485210,3.273818 L5.484998,3.274887 L5.484776,3.275953 L5.484545,3.277018 L5.484305,3.278081 L5.484056,3.279141 L5.483797,3.280199 L5.483529,3.281255 L5.483252,3.282309 L5.482966,3.283360 L5.482671,3.284408 L5.482367,3.285454 L5.482053,3.286497 L5.481731,3.287538 L5.481399,3.288575 L5.481058,3.289610 L5.480709,3.290642 L5.480350,3.291670 L5.479982,3.292696 L5.479606,3.293718 L5.479220,3.294737 L5.478826,3.295752 L5.478423,3.296764 L5.478011,3.297773 L5.477590,3.298777 L5.477161,3.299778 L5.476723,3.300776 L5.476276,3.301769 L5.475820,3.302759 L5.475356,3.303744 L5.474884,3.304726 L5.474403,3.305703 L5.473913,3.306676 L5.473415,3.307645 L5.472908,3.308609 L5.472393,3.309569 L5.471870,3.310524 L5.471338,3.311475 L5.470799,3.312421 L5.470250,3.313363 L5.469694,3.314299 L5.469130,3.315231 L5.468557,3.316158 L5.467977,3.317079 L5.467388,3.317996 L5.466792,3.318908 L5.466187,3.319814 L5.465575,3.320715 L5.464955,3.321610 L5.464327,3.322500 L5.463691,3.323385 L5.463048,3.324264 L5.462397,3.325137 L5.461738,3.326005 L5.461072,3.326867 L5.460398,3.327723 L5.459717,3.328573 L5.459029,3.329418 L5.458333,3.330256 L5.457630,3.331088 L5.456920,3.331914 L5.456203,3.332733 L5.455478,3.333547 L5.454746,3.334354 L5.454008,3.335155 L5.453262,3.335949 L5.452510,3.336736 L5.451751,3.337518 L5.450985,3.338292 L5.450212,3.339060 L5.449432,3.339821 L5.448646,3.340575 L5.447854,3.341322 L5.447055,3.342063 L5.446249,3.342796 L5.445437,3.343522 L5.444619,3.344241 L5.443795,3.344953 L5.442964,3.345658 L5.442128,3.346356 L5.441285,3.347046 L5.440436,3.347729 L5.439582,3.348404 L5.438721,3.349072 L5.437855,3.349733 L5.436983,3.350386 L5.436105,3.351031 L5.435222,3.351669 L5.434333,3.352298 L5.433439,3.352921 L5.432540,3.353535 L5.431635,3.354141 L5.430724,3.354740 L5.429809,3.355330 L5.428889,3.355913 L5.427963,3.356487 L5.427033,3.357054 L5.426097,3.357612 L5.425157,3.358162 L5.424212,3.358704 L5.423263,3.359238 L5.422308,3.359763 L5.421350,3.360280 L5.420386,3.360789 L5.419419,3.361289 L5.418447,3.361781 L5.417470,3.362264 L5.416490,3.362739 L5.415505,3.363205 L5.414517,3.363663 L5.413524,3.364112 L5.412528,3.364552 L5.411528,3.364984 L5.410524,3.365407 L5.409517,3.365821 L5.408505,3.366226 L5.407491,3.366623 L5.406473,3.367010 L5.405451,3.367389 L5.404427,3.367759 L5.403399,3.368120 L5.402368,3.368472 L5.401334,3.368815 L5.400297,3.369148 L5.399258,3.369473 L5.398215,3.369789 L5.397170,3.370096 L5.396122,3.370393 L5.395072,3.370682 L5.394019,3.370961 L5.392963,3.371231 L5.391906,3.371492 L5.390846,3.371744 L5.389784,3.371986 L5.388720,3.372219 L5.387654,3.372443 L5.386586,3.372658 L5.385516,3.372863 L5.384444,3.373059 L5.383371,3.373245 L5.382296,3.373422 L5.381220,3.373590 L5.380142,3.373749 L5.379063,3.373898 L5.377983,3.374037 L5.376901,3.374168 L5.375819,3.374288 L5.374735,3.374400 L5.373651,3.374502 L5.372565,3.374594 L5.371479,3.374677 L5.370392,3.374751 L5.369305,3.374815 L5.368217,3.374869 L5.367129,3.374914 L5.366040,3.374950 L5.364951,3.374976 L5.363862,3.374993 L5.362772,3.375000 L5.361683,3.374997 L5.360594,3.374985 L5.359505,3.374964 L5.358416,3.374933 L5.357327,3.374893 L5.356239,3.374843 L5.355151,3.374784 L5.354064,3.374715 L5.352978,3.374637 L5.351892,3.374549 L5.350807,3.374452 L5.349723,3.374345 L5.348640,3.374229 L5.347558,3.374104 L5.346477,3.373969 L5.345397,3.373824 L5.344319,3.373671 L5.343242,3.373508 L5.342166,3.373335 L5.341092,3.373153 L5.340020,3.372962 L5.338949,3.372761 L5.337880,3.372551 L5.336813,3.372332 L5.335748,3.372104 L5.334685,3.371866 L5.333624,3.371619 L5.332565,3.371363 L5.331509,3.371097 L5.330455,3.370823 L5.329403,3.370539 L5.328354,3.370246 L5.327307,3.369944 L5.326263,3.369632 L5.325222,3.369312 L5.324184,3.368983 L5.323148,3.368644 L5.322116,3.368297 L5.321087,3.367940 L5.320060,3.367575 L5.319037,3.367201 L5.318018,3.366817 L5.317001,3.366425 L5.315989,3.366025 L5.314979,3.365615 L5.313974,3.365196 L5.312972,3.364769 L5.311973,3.364333 L5.310979,3.363888 L5.309988,3.363435 L5.309002,3.362973 L5.308019,3.362503 L5.307041,3.362024 L5.306067,3.361536 L5.305097,3.361040 L5.304132,3.360536 L5.303171,3.360023 L5.302214,3.359502 L5.301262,3.358972 L5.300315,3.358434 L5.299372,3.357888 L5.298434,3.357334 L5.297501,3.356772 L5.296573,3.356201 L5.295650,3.355623 L5.294733,3.355036 L5.293820,3.354442 L5.292912,3.353839 L5.292010,3.353229 L5.291113,3.352610 L5.290222,3.351984 L5.289336,3.351351 L5.288455,3.350709 L5.287580,3.350060 L5.286711,3.349404 L5.285848,3.348739 L5.284990,3.348068 L5.284139,3.347388 L5.283293,3.346702 L5.282453,3.346008 L5.281620,3.345307 L5.280792,3.344598 L5.279971,3.343883 L5.279156,3.343160 L5.278347,3.342430 L5.277545,3.341693 L5.276749,3.340949 L5.275960,3.340199 L5.275177,3.339441 L5.274401,3.338677 L5.273632,3.337906 L5.272869,3.337128 L5.272113,3.336343 L5.271364,3.335553 L5.270622,3.334755 L5.269887,3.333951 L5.269159,3.333141 L5.268438,3.332324 L5.267724,3.331502 L5.267017,3.330673 L5.266318,3.329837 L5.265626,3.328996 L5.264941,3.328149 L5.264264,3.327296 L5.263594,3.326437 L5.262932,3.325572 L5.262277,3.324701 L5.261630,3.323825 L5.260990,3.322943 L5.260358,3.322056 L5.259734,3.321163 L5.259118,3.320265 L5.258510,3.319361 L5.257909,3.318452 L5.257317,3.317538 L5.256732,3.316619 L5.256155,3.315695 L5.255587,3.314766 L5.255027,3.313832 L5.254474,3.312893 L5.253931,3.311949 L5.253395,3.311000 L5.252867,3.310047 L5.252348,3.309090 L5.251837,3.308127 L5.251335,3.307161 L5.250841,3.306190 L5.250356,3.305215 L5.249879,3.304235 L5.249411,3.303252 L5.248951,3.302264 L5.248500,3.301273 L5.248057,3.300278 L5.247623,3.299278 L5.247198,3.298275 L5.246782,3.297269 L5.246374,3.296259 L5.245976,3.295245 L5.245586,3.294228 L5.245205,3.293207 L5.244833,3.292183 L5.244470,3.291156 L5.244116,3.290126 L5.243770,3.289093 L5.243434,3.288057 L5.243107,3.287018 L5.242789,3.285976 L5.242480,3.284931 L5.242180,3.283884 L5.241889,3.282834 L5.241608,3.281782 L5.241336,3.280727 L5.241072,3.279670 L5.240818,3.278611 L5.240574,3.277550 L5.240338,3.276486 L5.240112,3.275420 L5.239895,3.274353 L5.239688,3.273284 L5.239489,3.272212 L5.239300,3.271140 L5.239121,3.270065 L5.238951,3.268989 L5.238790,3.267912 L5.238639,3.266833 L5.238497,3.265753 L5.238364,3.264672 L5.238241,3.263590 L5.238127,3.262506 L5.238023,3.261422 L5.237928,3.260337 L5.237843,3.259251 L5.237767,3.258164 L5.237700,3.257077 L5.237644,3.255989 L5.237596,3.254901 L5.237558,3.253812 L5.237530,3.252723 L5.237511,3.251634 L5.237501,3.250545 L5.237501,3.249455 L5.237511,3.248366 L5.237530,3.247277 L5.237558,3.246188 L5.237596,3.245099 L5.237644,3.244011 L5.237700,3.242923 L5.237767,3.241836 L5.237843,3.240749 L5.237928,3.239663 L5.238023,3.238578 L5.238127,3.237494 L5.238241,3.236410 L5.238364,3.235328 L5.238497,3.234247 L5.238639,3.233167 L5.238790,3.232088 L5.238951,3.231011 L5.239121,3.229935 L5.239300,3.228860 L5.239489,3.227788 L5.239688,3.226716 L5.239895,3.225647 L5.240112,3.224580 L5.240338,3.223514 L5.240574,3.222450 L5.240818,3.221389 L5.241072,3.220330 L5.241336,3.219273 L5.241608,3.218218 L5.241889,3.217166 L5.242180,3.216116 L5.242480,3.215069 L5.242789,3.214024 L5.243107,3.212982 L5.243434,3.211943 L5.243770,3.210907 L5.244116,3.209874 L5.244470,3.208844 L5.244833,3.207817 L5.245205,3.206793 L5.245586,3.205772 L5.245976,3.204755 L5.246374,3.203741 L5.246782,3.202731 L5.247198,3.201725 L5.247623,3.200722 L5.248057,3.199722 L5.248500,3.198727 L5.248951,3.197736 L5.249411,3.196748 L5.249879,3.195765 L5.250356,3.194785 L5.250841,3.193810 L5.251335,3.192839 L5.251837,3.191873 L5.252348,3.190910 L5.252867,3.189953 L5.253395,3.189000 L5.253931,3.188051 L5.254474,3.187107 L5.255027,3.186168 L5.255587,3.185234 L5.256155,3.184305 L5.256732,3.183381 L5.257317,3.182462 L5.257909,3.181548 L5.258510,3.180639 L5.259118,3.179735 L5.259734,3.178837 L5.260358,3.177944 L5.260990,3.177057 L5.261630,3.176175 L5.262277,3.175299 L5.262932,3.174428 L5.263594,3.173563 L5.264264,3.172704 L5.264941,3.171851 L5.265626,3.171004 L5.266318,3.170163 L5.267017,3.169327 L5.267724,3.168498 L5.268438,3.167676 L5.269159,3.166859 L5.269887,3.166049 L5.270622,3.165245 L5.271364,3.164447 L5.272113,3.163657 L5.272869,3.162872 L5.273632,3.162094 L5.274401,3.161323 L5.275177,3.160559 L5.275960,3.159801 L5.276749,3.159051 L5.277545,3.158307 L5.278347,3.157570 L5.279156,3.156840 L5.279971,3.156117 L5.280792,3.155402 L5.281620,3.154693 L5.282453,3.153992 L5.283293,3.153298 L5.284139,3.152612 L5.284990,3.151932 L5.285848,3.151261 L5.286711,3.150596 L5.287580,3.149940 L5.288455,3.149291 L5.289336,3.148649 L5.290222,3.148016 L5.291113,3.147390 L5.292010,3.146771 L5.292912,3.146161 L5.293820,3.145558 L5.294733,3.144964 L5.295650,3.144377 L5.296573,3.143799 L5.297501,3.143228 L5.298434,3.142666 L5.299372,3.142112 L5.300315,3.141566 L5.301262,3.141028 L5.302214,3.140498 L5.303171,3.139977 L5.304132,3.139464 L5.305097,3.138960 L5.306067,3.138464 L5.307041,3.137976 L5.308019,3.137497 L5.309002,3.137027 L5.309988,3.136565 L5.310979,3.136112 L5.311973,3.135667 L5.312972,3.135231 L5.313974,3.134804 L5.314979,3.134385 L5.315989,3.133975 L5.317001,3.133575 L5.318018,3.133183 L5.319037,3.132799 L5.320060,3.132425 L5.321087,3.132060 L5.322116,3.131703 L5.323148,3.131356 L5.324184,3.131017 L5.325222,3.130688 L5.326263,3.130368 L5.327307,3.130056 L5.328354,3.129754 L5.329403,3.129461 L5.330455,3.129177 L5.331509,3.128903 L5.332565,3.128637 L5.333624,3.128381 L5.334685,3.128134 L5.335748,3.127896 L5.336813,3.127668 L5.337880,3.127449 L5.338949,3.127239 L5.340020,3.127038 L5.341092,3.126847 L5.342166,3.126665 L5.343242,3.126492 L5.344319,3.126329 L5.345397,3.126176 L5.346477,3.126031 L5.347558,3.125896 L5.348640,3.125771 L5.349723,3.125655 L5.350807,3.125548 L5.351892,3.125451 L5.352978,3.125363 L5.354064,3.125285 L5.355151,3.125216 L5.356239,3.125157 L5.357327,3.125107 L5.358416,3.125067 L5.359505,3.125036 L5.360594,3.125015 L5.361683,3.125003 L5.362772,3.125000 L5.363862,3.125007 L5.364951,3.125024 L5.366040,3.125050 L5.367129,3.125086 L5.368217,3.125131 L5.369305,3.125185 L5.370392,3.125249 L5.371479,3.125323 L5.372565,3.125406 L5.373651,3.125498 L5.374735,3.125600 L5.375819,3.125712 L5.376901,3.125832 L5.377983,3.125963 L5.379063,3.126102 L5.380142,3.126251 L5.381220,3.126410 L5.382296,3.126578 L5.383371,3.126755 L5.384444,3.126941 L5.385516,3.127137 L5.386586,3.127342 L5.387654,3.127557 L5.388720,3.127781 L5.389784,3.128014 L5.390846,3.128256 L5.391906,3.128508 L5.392963,3.128769 L5.394019,3.129039 L5.395072,3.129318 L5.396122,3.129607 L5.397170,3.129904 L5.398215,3.130211 L5.399258,3.130527 L5.400297,3.130852 L5.401334,3.131185 L5.402368,3.131528 L5.403399,3.131880 L5.404427,3.132241 L5.405451,3.132611 L5.406473,3.132990 L5.407491,3.133377 L5.408505,3.133774 L5.409517,3.134179 L5.410524,3.134593 L5.411528,3.135016 L5.412528,3.135448 L5.413524,3.135888 L5.414517,3.136337 L5.415505,3.136795 L5.416490,3.137261 L5.417470,3.137736 L5.418447,3.138219 L5.419419,3.138711 L5.420386,3.139211 L5.421350,3.139720 L5.422308,3.140237 L5.423263,3.140762 L5.424212,3.141296 L5.425157,3.141838 L5.426097,3.142388 L5.427033,3.142946 L5.427963,3.143513 L5.428889,3.144087 L5.429809,3.144670 L5.430724,3.145260 L5.431635,3.145859 L5.432540,3.146465 L5.433439,3.147079 L5.434333,3.147702 L5.435222,3.148331 L5.436105,3.148969 L5.436983,3.149614 L5.437855,3.150267 L5.438721,3.150928 L5.439582,3.151596 L5.440436,3.152271 L5.441285,3.152954 L5.442128,3.153644 L5.442964,3.154342 L5.443795,3.155047 L5.444619,3.155759 L5.445437,3.156478 L5.446249,3.157204 L5.447055,3.157937 L5.447854,3.158678 L5.448646,3.159425 L5.449432,3.160179 L5.450212,3.160940 L5.450985,3.161708 L5.451751,3.162482 L5.452510,3.163264 L5.453262,3.164051 L5.454008,3.164845 L5.454746,3.165646 L5.455478,3.166453 L5.456203,3.167267 L5.456920,3.168086 L5.457630,3.168912 L5.458333,3.169744 L5.459029,3.170582 L5.459717,3.171427 L5.460398,3.172277 L5.461072,3.173133 L5.461738,3.173995 L5.462397,3.174863 L5.463048,3.175736 L5.463691,3.176615 L5.464327,3.177500 L5.464955,3.178390 L5.465575,3.179285 L5.466187,3.180186 L5.466792,3.181092 L5.467388,3.182004 L5.467977,3.182921 L5.468557,3.183842 L5.469130,3.184769 L5.469694,3.185701 L5.470250,3.186637 L5.470799,3.187579 L5.471338,3.188525 L5.471870,3.189476 L5.472393,3.190431 L5.472908,3.191391 L5.473415,3.192355 L5.473913,3.193324 L5.474403,3.194297 L5.474884,3.195274 L5.475356,3.196256 L5.475820,3.197241 L5.476276,3.198231 L5.476723,3.199224 L5.477161,3.200222 L5.477590,3.201223 L5.478011,3.202227 L5.478423,3.203236 L5.478826,3.204248 L5.479220,3.205263 L5.479606,3.206282 L5.479982,3.207304 L5.480350,3.208330 L5.480709,3.209358 L5.481058,3.210390 L5.481399,3.211425 L5.481731,3.212462 L5.482053,3.213503 L5.482367,3.214546 L5.482671,3.215592 L5.482966,3.216640 L5.483252,3.217691 L5.483529,3.218745 L5.483797,3.219801 L5.484056,3.220859 L5.484305,3.221919 L5.484545,3.222982 L5.484776,3.224047 L5.484998,3.225113 L5.485210,3.226182 L5.485413,3.227252 L5.485606,3.228324 L5.485790,3.229397 L5.485965,3.230473 L5.486131,3.231549 L5.486287,3.232627 L5.486434,3.233707 L5.486571,3.234787 L5.486699,3.235869 L5.486817,3.236952 L5.486926,3.238036 L5.487026,3.239121 L5.487116,3.240206 L5.487196,3.241293 L5.487267,3.242380 L5.487329,3.243467 L5.487381,3.244555 L5.487424,3.245644 L5.487457,3.246732 L5.487481,3.247821 L5.487495,3.248911 L5.487500,3.250000" /></svg>
