<!DOCTYPE svg PUBLIC "-//W3C//DTD SVG 1.1//EN" "http://www.w3.org/Graphics/SVG/1.1/DTD/svg11.dtd"><svg version="1.1" xmlns="http://www.w3.org/2000/svg" xmlns:xlink="http://www.w3.org/1999/xlink" xml:space="preserve" width="8.600000in" height="6.500000in" viewBox="0.000000 0.000000 8.600000 6.500000">
<!-- Generated by genCarrier.py   https://github.com/ajkunen/beseler23c -->

<!-- Paddle outline -->
  <path stroke="black" fill="none" stroke-width=".01" d=" M6.253770,4.316548 L6.244351,4.342712 L6.234704,4.368792 L6.224830,4.394788 L6.214730,4.420697 L6.204404,4.446516 L6.193854,4.472245 L6.183079,4.497880 L6.172081,4.523420 L6.160860,4.548864 L6.149419,4.574209 L6.137756,4.599452 L6.125874,4.624594 L6.113772,4.649630 L6.101453,4.674560 L6.088917,4.699382 L6.076165,4.724093 L6.063197,4.748692 L6.050016,4.773177 L6.036621,4.797546 L6.023014,4.821798 L6.009197,4.845929 L5.995169,4.869939 L5.980932,4.893826 L5.966488,4.917588 L5.951837,4.941223 L5.936980,4.964729 L5.921918,4.988105 L5.906653,5.011348 L5.891187,5.034458 L5.875519,5.057431 L5.859651,5.080267 L5.843584,5.102964 L5.827321,5.125520 L5.810861,5.147933 L5.794206,5.170201 L5.777357,5.192323 L5.760317,5.214298 L5.743085,5.236123 L5.725663,5.257797 L5.708053,5.279318 L5.690256,5.300684 L5.672273,5.321895 L5.654106,5.342948 L5.635756,5.363841 L5.617224,5.384574 L5.598512,5.405144 L5.579622,5.425550 L5.560554,5.445791 L5.541310,5.465865 L5.521892,5.485769 L5.502301,5.505504 L5.482538,5.525067 L5.462606,5.544457 L5.442505,5.563672 L5.422237,5.582711 L5.401804,5.601573 L5.381207,5.620256 L5.360448,5.638758 L5.339529,5.657078 L5.318450,5.675216 L5.297214,5.693168 L5.275822,5.710935 L5.254276,5.728514 L5.232578,5.745905 L5.210728,5.763106 L5.188729,5.780116 L5.166583,5.796933 L5.144291,5.813556 L5.121855,5.829984 L5.099276,5.846216 L5.076556,5.862250 L5.053698,5.878085 L5.030702,5.893720 L5.007571,5.909154 L4.984306,5.924386 L4.960909,5.939414 L4.937381,5.954238 L4.913726,5.968855 L4.889943,5.983266 L4.866036,5.997469 L4.842006,6.011462 L4.817855,6.025246 L4.793584,6.038818 L4.769196,6.052178 L4.744692,6.065324 L4.720075,6.078257 L4.695345,6.090974 L4.670506,6.103475 L4.645558,6.115759 L4.620505,6.127824 L4.595347,6.139671 L4.570086,6.151298 L4.544725,6.162704 L4.519266,6.173888 L4.493710,6.184850 L4.468059,6.195588 L4.442316,6.206102 L4.416482,6.216391 L4.390559,6.226455 L4.364549,6.236291 L4.338455,6.245901 L4.312277,6.255283 L4.286019,6.264435 L4.259682,6.273359 L4.233268,6.282052 L4.206779,6.290515 L4.180218,6.298746 L4.153585,6.306745 L4.126884,6.314511 L4.100116,6.322045 L4.073284,6.329344 L4.046389,6.336409 L4.019433,6.343239 L3.992418,6.349834 L3.965347,6.356193 L3.938222,6.362315 L3.911044,6.368201 L3.883816,6.373849 L3.856540,6.379260 L3.829218,6.384432 L3.801851,6.389366 L3.774443,6.394060 L3.746994,6.398516 L3.719508,6.402732 L3.691986,6.406708 L3.664430,6.410444 L3.636843,6.413939 L3.609226,6.417193 L3.581582,6.420207 L3.553913,6.422979 L3.526221,6.425509 L3.498508,6.427798 L3.470775,6.429845 L3.443026,6.431650 L3.415262,6.433213 L3.387486,6.434534 L3.359699,6.435612 L3.331904,6.436448 L3.304103,6.437041 L3.276297,6.437392 L3.248490,6.437500 L3.220682,6.437365 L3.192877,6.436988 L3.165077,6.436369 L3.137282,6.435506 L3.109496,6.434402 L3.081721,6.433055 L3.053959,6.431466 L3.026212,6.429634 L2.998481,6.427561 L2.970770,6.425246 L2.943080,6.422689 L2.915414,6.419891 L2.887773,6.416851 L2.860159,6.413571 L2.832575,6.410050 L2.805023,6.406288 L2.777505,6.402286 L2.750023,6.398044 L2.722579,6.393562 L2.695175,6.388841 L2.667813,6.383882 L2.640495,6.378683 L2.613224,6.373247 L2.586001,6.367573 L2.558829,6.361662 L2.531710,6.355514 L2.504645,6.349129 L2.477637,6.342509 L2.450687,6.335653 L2.423799,6.328563 L2.396973,6.321238 L2.370212,6.313679 L2.343519,6.305887 L2.316894,6.297863 L2.290340,6.289607 L2.263859,6.281119 L2.237454,6.272401 L2.211125,6.263452 L2.184876,6.254275 L2.158707,6.244868 L2.132622,6.235234 L2.106621,6.225373 L2.080708,6.215285 L2.054884,6.204971 L2.029150,6.194432 L2.003510,6.183670 L1.977964,6.172684 L1.952515,6.161476 L1.927165,6.150046 L1.901916,6.138395 L1.876769,6.126524 L1.851727,6.114435 L1.826791,6.102128 L1.801963,6.089603 L1.777246,6.076863 L1.752641,6.063907 L1.728150,6.050737 L1.703774,6.037354 L1.679516,6.023759 L1.655378,6.009952 L1.631361,5.995936 L1.607468,5.981711 L1.583699,5.967278 L1.560057,5.952637 L1.536544,5.937792 L1.513161,5.922741 L1.489910,5.907488 L1.466794,5.892032 L1.443813,5.876375 L1.420969,5.860518 L1.398265,5.844462 L1.375702,5.828209 L1.353281,5.811760 L1.331004,5.795115 L1.308874,5.778277 L1.286892,5.761247 L1.265058,5.744025 L1.243376,5.726614 L1.221847,5.709014 L1.200472,5.691227 L1.179253,5.673255 L1.158191,5.655097 L1.137289,5.636757 L1.116548,5.618235 L1.095969,5.599533 L1.075554,5.580652 L1.055304,5.561594 L1.035221,5.542359 L1.015307,5.522951 L0.995563,5.503369 L0.975991,5.483616 L0.956592,5.463692 L0.937367,5.443601 L0.918318,5.423342 L0.899447,5.402918 L0.880754,5.382330 L0.862242,5.361580 L0.843912,5.340669 L0.825765,5.319599 L0.807802,5.298371 L0.790025,5.276988 L0.772435,5.255450 L0.755034,5.233760 L0.737823,5.211918 L0.720803,5.189928 L0.703976,5.167790 L0.687342,5.145505 L0.670903,5.123077 L0.654661,5.100506 L0.638616,5.077794 L0.622770,5.054943 L0.607124,5.031954 L0.591679,5.008830 L0.576436,4.985573 L0.561397,4.962183 L0.546562,4.938662 L0.531933,4.915013 L0.517511,4.891238 L0.503297,4.867338 L0.489292,4.843314 L0.475498,4.819169 L0.461914,4.794905 L0.448542,4.770523 L0.435384,4.746026 L0.422440,4.721414 L0.409711,4.696691 L0.397198,4.671858 L0.384903,4.646916 L0.372825,4.621868 L0.360967,4.596716 L0.349328,4.571461 L0.337910,4.546105 L0.326714,4.520651 L0.315740,4.495100 L0.304990,4.469455 L0.294463,4.443716 L0.284162,4.417887 L0.274086,4.391969 L0.264237,4.365964 L0.254615,4.339874 L0.245221,4.313701 L0.236056,4.287447 L0.227120,4.261114 L0.218414,4.234704 L0.209939,4.208220 L0.201695,4.181662 L0.193683,4.155033 L0.185904,4.128336 L0.178358,4.101572 L0.171046,4.074743 L0.163968,4.047851 L0.157126,4.020898 L0.150518,3.993887 L0.144146,3.966819 L0.138011,3.939696 L0.132113,3.912522 L0.126452,3.885296 L0.121028,3.858022 L0.115843,3.830703 L0.110896,3.803338 L0.106188,3.775932 L0.101720,3.748486 L0.097491,3.721001 L0.093502,3.693481 L0.089753,3.665927 L0.086245,3.638342 L0.082977,3.610727 L0.079951,3.583084 L0.077166,3.555416 L0.074622,3.527725 L0.072320,3.500013 L0.070260,3.472282 L0.068442,3.444534 L0.066866,3.416771 L0.065532,3.388995 L0.064441,3.361209 L0.063592,3.333414 L0.062985,3.305613 L0.062621,3.277807 L0.062500,3.250000 L0.062621,3.222193 L0.062985,3.194387 L0.063592,3.166586 L0.064441,3.138791 L0.065532,3.111005 L0.066866,3.083229 L0.068442,3.055466 L0.070260,3.027718 L0.072320,2.999987 L0.074622,2.972275 L0.077166,2.944584 L0.079951,2.916916 L0.082977,2.889273 L0.086245,2.861658 L0.089753,2.834073 L0.093502,2.806519 L0.097491,2.778999 L0.101720,2.751514 L0.106188,2.724068 L0.110896,2.696662 L0.115843,2.669297 L0.121028,2.641978 L0.126452,2.614704 L0.132113,2.587478 L0.138011,2.560304 L0.144146,2.533181 L0.150518,2.506113 L0.157126,2.479102 L0.163968,2.452149 L0.171046,2.425257 L0.178358,2.398428 L0.185904,2.371664 L0.193683,2.344967 L0.201695,2.318338 L0.209939,2.291780 L0.218414,2.265296 L0.227120,2.238886 L0.236056,2.212553 L0.245221,2.186299 L0.254615,2.160126 L0.264237,2.134036 L0.274086,2.108031 L0.284162,2.082113 L0.294463,2.056284 L0.304990,2.030545 L0.315740,2.004900 L0.326714,1.979349 L0.337910,1.953895 L0.349328,1.928539 L0.360967,1.903284 L0.372825,1.878132 L0.384903,1.853084 L0.397198,1.828142 L0.409711,1.803309 L0.422440,1.778586 L0.435384,1.753974 L0.448542,1.729477 L0.461914,1.705095 L0.475498,1.680831 L0.489292,1.656686 L0.503297,1.632662 L0.517511,1.608762 L0.531933,1.584987 L0.546562,1.561338 L0.561397,1.537817 L0.576436,1.514427 L0.591679,1.491170 L0.607124,1.468046 L0.622770,1.445057 L0.638616,1.422206 L0.654661,1.399494 L0.670903,1.376923 L0.687342,1.354495 L0.703976,1.332210 L0.720803,1.310072 L0.737823,1.288082 L0.755034,1.266240 L0.772435,1.244550 L0.790025,1.223012 L0.807802,1.201629 L0.825765,1.180401 L0.843912,1.159331 L0.862242,1.138420 L0.880754,1.117670 L0.899447,1.097082 L0.918318,1.076658 L0.937367,1.056399 L0.956592,1.036308 L0.975991,1.016384 L0.995563,0.996631 L1.015307,0.977049 L1.035221,0.957641 L1.055304,0.938406 L1.075554,0.919348 L1.095969,0.900467 L1.116548,0.881765 L1.137289,0.863243 L1.158191,0.844903 L1.179253,0.826745 L1.200472,0.808773 L1.221847,0.790986 L1.243376,0.773386 L1.265058,0.755975 L1.286892,0.738753 L1.308874,0.721723 L1.331004,0.704885 L1.353281,0.688240 L1.375702,0.671791 L1.398265,0.655538 L1.420969,0.639482 L1.443813,0.623625 L1.466794,0.607968 L1.489910,0.592512 L1.513161,0.577259 L1.536544,0.562208 L1.560057,0.547363 L1.583699,0.532722 L1.607468,0.518289 L1.631361,0.504064 L1.655378,0.490048 L1.679516,0.476241 L1.703774,0.462646 L1.728150,0.449263 L1.752641,0.436093 L1.777246,0.423137 L1.801963,0.410397 L1.826791,0.397872 L1.851727,0.385565 L1.876769,0.373476 L1.901916,0.361605 L1.927165,0.349954 L1.952515,0.338524 L1.977964,0.327316 L2.003510,0.316330 L2.029150,0.305568 L2.054884,0.295029 L2.080708,0.284715 L2.106621,0.274627 L2.132622,0.264766 L2.158707,0.255132 L2.184876,0.245725 L2.211125,0.236548 L2.237454,0.227599 L2.263859,0.218881 L2.290340,0.210393 L2.316894,0.202137 L2.343519,0.194113 L2.370212,0.186321 L2.396973,0.178762 L2.423799,0.171437 L2.450687,0.164347 L2.477637,0.157491 L2.504645,0.150871 L2.531710,0.144486 L2.558829,0.138338 L2.586001,0.132427 L2.613224,0.126753 L2.640495,0.121317 L2.667813,0.116118 L2.695175,0.111159 L2.722579,0.106438 L2.750023,0.101956 L2.777505,0.097714 L2.805023,0.093712 L2.832575,0.089950 L2.860159,0.086429 L2.887773,0.083149 L2.915414,0.080109 L2.943080,0.077311 L2.970770,0.074754 L2.998481,0.072439 L3.026212,0.070366 L3.053959,0.068534 L3.081721,0.066945 L3.109496,0.065598 L3.137282,0.064494 L3.165077,0.063631 L3.192877,0.063012 L3.220682,0.062635 L3.248490,0.062500 L3.276297,0.062608 L3.304103,0.062959 L3.331904,0.063552 L3.359699,0.064388 L3.387486,0.065466 L3.415262,0.066787 L3.443026,0.068350 L3.470775,0.070155 L3.498508,0.072202 L3.526221,0.074491 L3.553913,0.077021 L3.581582,0.079793 L3.609226,0.082807 L3.636843,0.086061 L3.664430,0.089556 L3.691986,0.093292 L3.719508,0.097268 L3.746994,0.101484 L3.774443,0.105940 L3.801851,0.110634 L3.829218,0.115568 L3.856540,0.120740 L3.883816,0.126151 L3.911044,0.131799 L3.938222,0.137685 L3.965347,0.143807 L3.992418,0.150166 L4.019433,0.156761 L4.046389,0.163591 L4.073284,0.170656 L4.100116,0.177955 L4.126884,0.185489 L4.153585,0.193255 L4.180218,0.201254 L4.206779,0.209485 L4.233268,0.217948 L4.259682,0.226641 L4.286019,0.235565 L4.312277,0.244717 L4.338455,0.254099 L4.364549,0.263709 L4.390559,0.273545 L4.416482,0.283609 L4.442316,0.293898 L4.468059,0.304412 L4.493710,0.315150 L4.519266,0.326112 L4.544725,0.337296 L4.570086,0.348702 L4.595347,0.360329 L4.620505,0.372176 L4.645558,0.384241 L4.670506,0.396525 L4.695345,0.409026 L4.720075,0.421743 L4.744692,0.434676 L4.769196,0.447822 L4.793584,0.461182 L4.817855,0.474754 L4.842006,0.488538 L4.866036,0.502531 L4.889943,0.516734 L4.913726,0.531145 L4.937381,0.545762 L4.960909,0.560586 L4.984306,0.575614 L5.007571,0.590846 L5.030702,0.606280 L5.053698,0.621915 L5.076556,0.637750 L5.099276,0.653784 L5.121855,0.670016 L5.144291,0.686444 L5.166583,0.703067 L5.188729,0.719884 L5.210728,0.736894 L5.232578,0.754095 L5.254276,0.771486 L5.275822,0.789065 L5.297214,0.806832 L5.318450,0.824784 L5.339529,0.842922 L5.360448,0.861242 L5.381207,0.879744 L5.401804,0.898427 L5.422237,0.917289 L5.442505,0.936328 L5.462606,0.955543 L5.482538,0.974933 L5.502301,0.994496 L5.521892,1.014231 L5.541310,1.034135 L5.560554,1.054209 L5.579622,1.074450 L5.598512,1.094856 L5.617224,1.115426 L5.635756,1.136159 L5.654106,1.157052 L5.672273,1.178105 L5.690256,1.199316 L5.708053,1.220682 L5.725663,1.242203 L5.743085,1.263877 L5.760317,1.285702 L5.777357,1.307677 L5.794206,1.329799 L5.810861,1.352067 L5.827321,1.374480 L5.843584,1.397036 L5.859651,1.419733 L5.875519,1.442569 L5.891187,1.465542 L5.906653,1.488652 L5.921918,1.511895 L5.936980,1.535271 L5.951837,1.558777 L5.966488,1.582412 L5.980932,1.606174 L5.995169,1.630061 L6.009197,1.654071 L6.023014,1.678202 L6.036621,1.702454 L6.050016,1.726823 L6.063197,1.751308 L6.076165,1.775907 L6.088917,1.800618 L6.101453,1.825440 L6.113772,1.850370 L6.125874,1.875406 L6.137756,1.900548 L6.149419,1.925791 L6.160860,1.951136 L6.172081,1.976580 L6.183079,2.002120 L6.193854,2.027755 L6.204404,2.053484 L6.214730,2.079303 L6.224830,2.105212 L6.234704,2.131208 L6.244351,2.157288 L6.253770,2.183452 L6.275935,2.238795 L6.278629,2.244748 L6.281376,2.250678 L6.284174,2.256583 L6.287023,2.262464 L6.289923,2.268319 L6.292875,2.274150 L6.295877,2.279954 L6.298929,2.285732 L6.302032,2.291483 L6.305185,2.297207 L6.308387,2.302903 L6.311639,2.308571 L6.314941,2.314210 L6.318291,2.319821 L6.321690,2.325402 L6.325137,2.330953 L6.328633,2.336474 L6.332177,2.341964 L6.335768,2.347424 L6.339407,2.352851 L6.343093,2.358247 L6.346826,2.363611 L6.350606,2.368941 L6.354431,2.374239 L6.358303,2.379503 L6.362221,2.384733 L6.366184,2.389929 L6.370192,2.395090 L6.374244,2.400216 L6.378342,2.405307 L6.382483,2.410362 L6.386669,2.415380 L6.390898,2.420362 L6.395170,2.425306 L6.399485,2.430213 L6.403843,2.435083 L6.408243,2.439914 L6.412685,2.444707 L6.417169,2.449461 L6.421693,2.454176 L6.426259,2.458851 L6.430865,2.463486 L6.435512,2.468080 L6.440198,2.472635 L6.444924,2.477148 L6.449689,2.481620 L6.454493,2.486050 L6.459335,2.490438 L6.464215,2.494783 L6.469133,2.499086 L6.474088,2.503346 L6.479080,2.507563 L6.484109,2.511736 L6.489174,2.515865 L6.494275,2.519950 L6.499411,2.523990 L6.504582,2.527985 L6.509787,2.531935 L6.515027,2.535840 L6.520301,2.539699 L6.525608,2.543511 L6.530948,2.547278 L6.536321,2.550997 L6.541726,2.554670 L6.547162,2.558295 L6.552631,2.561873 L6.558130,2.565403 L6.563659,2.568885 L6.569219,2.572319 L6.574808,2.575704 L6.580427,2.579041 L6.586075,2.582328 L6.591751,2.585566 L6.597455,2.588754 L6.603186,2.591893 L6.608945,2.594982 L6.614731,2.598020 L6.620542,2.601007 L6.626380,2.603944 L6.632243,2.606830 L6.638130,2.609665 L6.644043,2.612449 L6.649979,2.615180 L6.655939,2.617860 L6.661922,2.620488 L6.667927,2.623064 L6.673955,2.625587 L6.680005,2.628058 L6.686076,2.630476 L6.692167,2.632840 L6.698279,2.635152 L6.704411,2.637410 L6.710563,2.639615 L6.716733,2.641766 L6.722922,2.643864 L6.729129,2.645907 L6.735354,2.647896 L6.741595,2.649831 L6.747854,2.651711 L6.754128,2.653537 L6.760418,2.655308 L6.766723,2.657024 L6.773043,2.658686 L6.779378,2.660292 L6.785726,2.661842 L6.792087,2.663338 L6.798461,2.664778 L6.804847,2.666162 L6.811245,2.667491 L6.817655,2.668764 L6.824075,2.669981 L6.830506,2.671142 L6.836947,2.672247 L6.843396,2.673295 L6.849855,2.674288 L6.856323,2.675224 L6.862798,2.676104 L6.869280,2.676927 L6.875770,2.677694 L6.882266,2.678404 L6.888768,2.679058 L6.895275,2.679655 L6.901787,2.680195 L6.908304,2.680679 L6.914825,2.681106 L6.921349,2.681475 L6.927876,2.681788 L6.934406,2.682045 L6.940937,2.682244 L6.947470,2.682386 L6.954004,2.682472 L6.960539,2.682500 L8.363802,2.682506 L8.365103,2.682523 L8.366405,2.682551 L8.367706,2.682590 L8.369007,2.682641 L8.370307,2.682703 L8.371607,2.682777 L8.372906,2.682861 L8.374204,2.682957 L8.375501,2.683065 L8.376798,2.683183 L8.378093,2.683313 L8.379387,2.683454 L8.380680,2.683606 L8.381971,2.683769 L8.383261,2.683944 L8.384550,2.684129 L8.385837,2.684326 L8.387122,2.684535 L8.388405,2.684754 L8.389686,2.684984 L8.390965,2.685226 L8.392242,2.685478 L8.393517,2.685742 L8.394789,2.686017 L8.396059,2.686302 L8.397327,2.686599 L8.398592,2.686907 L8.399854,2.687225 L8.401113,2.687555 L8.402370,2.687896 L8.403623,2.688247 L8.404873,2.688609 L8.406121,2.688983 L8.407364,2.689367 L8.408605,2.689761 L8.409842,2.690167 L8.411075,2.690583 L8.412305,2.691010 L8.413531,2.691447 L8.414753,2.691896 L8.415972,2.692354 L8.417186,2.692824 L8.418396,2.693304 L8.419602,2.693794 L8.420803,2.694295 L8.422000,2.694806 L8.423193,2.695327 L8.424381,2.695859 L8.425565,2.696401 L8.426744,2.696954 L8.427917,2.697516 L8.429086,2.698089 L8.430250,2.698672 L8.431409,2.699265 L8.432563,2.699868 L8.433711,2.700481 L8.434854,2.701104 L8.435992,2.701737 L8.437124,2.702380 L8.438250,2.703032 L8.439371,2.703695 L8.440486,2.704367 L8.441595,2.705048 L8.442698,2.705739 L8.443795,2.706440 L8.444886,2.707150 L8.445971,2.707870 L8.447049,2.708599 L8.448121,2.709338 L8.449187,2.710085 L8.450246,2.710842 L8.451298,2.711608 L8.452344,2.712383 L8.453383,2.713168 L8.454415,2.713961 L8.455441,2.714763 L8.456459,2.715574 L8.457470,2.716394 L8.458474,2.717222 L8.459471,2.718060 L8.460461,2.718905 L8.461443,2.719760 L8.462417,2.720623 L8.463384,2.721494 L8.464344,2.722374 L8.465296,2.723262 L8.466240,2.724158 L8.467176,2.725062 L8.468105,2.725975 L8.469025,2.726895 L8.469938,2.727824 L8.470842,2.728760 L8.471738,2.729704 L8.472626,2.730656 L8.473506,2.731616 L8.474377,2.732583 L8.475240,2.733557 L8.476095,2.734539 L8.476940,2.735529 L8.477778,2.736526 L8.478606,2.737530 L8.479426,2.738541 L8.480237,2.739559 L8.481039,2.740585 L8.481832,2.741617 L8.482617,2.742656 L8.483392,2.743702 L8.484158,2.744754 L8.484915,2.745813 L8.485662,2.746879 L8.486401,2.747951 L8.487130,2.749029 L8.487850,2.750114 L8.488560,2.751205 L8.489261,2.752302 L8.489952,2.753405 L8.490633,2.754514 L8.491305,2.755629 L8.491968,2.756750 L8.492620,2.757876 L8.493263,2.759008 L8.493896,2.760146 L8.494519,2.761289 L8.495132,2.762437 L8.495735,2.763591 L8.496328,2.764750 L8.496911,2.765914 L8.497484,2.767083 L8.498046,2.768256 L8.498599,2.769435 L8.499141,2.770619 L8.499673,2.771807 L8.500194,2.773000 L8.500705,2.774197 L8.501206,2.775398 L8.501696,2.776604 L8.502176,2.777814 L8.502646,2.779028 L8.503104,2.780247 L8.503553,2.781469 L8.503990,2.782695 L8.504417,2.783925 L8.504833,2.785158 L8.505239,2.786395 L8.505633,2.787636 L8.506017,2.788879 L8.506391,2.790127 L8.506753,2.791377 L8.507104,2.792630 L8.507445,2.793887 L8.507775,2.795146 L8.508093,2.796408 L8.508401,2.797673 L8.508698,2.798941 L8.508983,2.800211 L8.509258,2.801483 L8.509522,2.802758 L8.509774,2.804035 L8.510016,2.805314 L8.510246,2.806595 L8.510465,2.807878 L8.510674,2.809163 L8.510871,2.810450 L8.511056,2.811739 L8.511231,2.813029 L8.511394,2.814320 L8.511546,2.815613 L8.511687,2.816907 L8.511817,2.818202 L8.511935,2.819499 L8.512043,2.820796 L8.512139,2.822094 L8.512223,2.823393 L8.512297,2.824693 L8.512359,2.825993 L8.512410,2.827294 L8.512449,2.828595 L8.512477,2.829897 L8.512494,2.831198 L8.512500,2.832500 L8.512494,3.668802 L8.512477,3.670103 L8.512449,3.671405 L8.512410,3.672706 L8.512359,3.674007 L8.512297,3.675307 L8.512223,3.676607 L8.512139,3.677906 L8.512043,3.679204 L8.511935,3.680501 L8.511817,3.681798 L8.511687,3.683093 L8.511546,3.684387 L8.511394,3.685680 L8.511231,3.686971 L8.511056,3.688261 L8.510871,3.689550 L8.510674,3.690837 L8.510465,3.692122 L8.510246,3.693405 L8.510016,3.694686 L8.509774,3.695965 L8.509522,3.697242 L8.509258,3.698517 L8.508983,3.699789 L8.508698,3.701059 L8.508401,3.702327 L8.508093,3.703592 L8.507775,3.704854 L8.507445,3.706113 L8.507104,3.707370 L8.506753,3.708623 L8.506391,3.709873 L8.506017,3.711121 L8.505633,3.712364 L8.505239,3.713605 L8.504833,3.714842 L8.504417,3.716075 L8.503990,3.717305 L8.503553,3.718531 L8.503104,3.719753 L8.502646,3.720972 L8.502176,3.722186 L8.501696,3.723396 L8.501206,3.724602 L8.500705,3.725803 L8.500194,3.727000 L8.499673,3.728193 L8.499141,3.729381 L8.498599,3.730565 L8.498046,3.731744 L8.497484,3.732917 L8.496911,3.734086 L8.496328,3.735250 L8.495735,3.736409 L8.495132,3.737563 L8.494519,3.738711 L8.493896,3.739854 L8.493263,3.740992 L8.492620,3.742124 L8.491968,3.743250 L8.491305,3.744371 L8.490633,3.745486 L8.489952,3.746595 L8.489261,3.747698 L8.488560,3.748795 L8.487850,3.749886 L8.487130,3.750971 L8.486401,3.752049 L8.485662,3.753121 L8.484915,3.754187 L8.484158,3.755246 L8.483392,3.756298 L8.482617,3.757344 L8.481832,3.758383 L8.481039,3.759415 L8.480237,3.760441 L8.479426,3.761459 L8.478606,3.762470 L8.477778,3.763474 L8.476940,3.764471 L8.476095,3.765461 L8.475240,3.766443 L8.474377,3.767417 L8.473506,3.768384 L8.472626,3.769344 L8.471738,3.770296 L8.470842,3.771240 L8.469938,3.772176 L8.469025,3.773105 L8.468105,3.774025 L8.467176,3.774938 L8.466240,3.775842 L8.465296,3.776738 L8.464344,3.777626 L8.463384,3.778506 L8.462417,3.779377 L8.461443,3.780240 L8.460461,3.781095 L8.459471,3.781940 L8.458474,3.782778 L8.457470,3.783606 L8.456459,3.784426 L8.455441,3.785237 L8.454415,3.786039 L8.453383,3.786832 L8.452344,3.787617 L8.451298,3.788392 L8.450246,3.789158 L8.449187,3.789915 L8.448121,3.790662 L8.447049,3.791401 L8.445971,3.792130 L8.444886,3.792850 L8.443795,3.793560 L8.442698,3.794261 L8.441595,3.794952 L8.440486,3.795633 L8.439371,3.796305 L8.438250,3.796968 L8.437124,3.797620 L8.435992,3.798263 L8.434854,3.798896 L8.433711,3.799519 L8.432563,3.800132 L8.431409,3.800735 L8.430250,3.801328 L8.429086,3.801911 L8.427917,3.802484 L8.426744,3.803046 L8.425565,3.803599 L8.424381,3.804141 L8.423193,3.804673 L8.422000,3.805194 L8.420803,3.805705 L8.419602,3.806206 L8.418396,3.806696 L8.417186,3.807176 L8.415972,3.807646 L8.414753,3.808104 L8.413531,3.808553 L8.412305,3.808990 L8.411075,3.809417 L8.409842,3.809833 L8.408605,3.810239 L8.407364,3.810633 L8.406121,3.811017 L8.404873,3.811391 L8.403623,3.811753 L8.402370,3.812104 L8.401113,3.812445 L8.399854,3.812775 L8.398592,3.813093 L8.397327,3.813401 L8.396059,3.813698 L8.394789,3.813983 L8.393517,3.814258 L8.392242,3.814522 L8.390965,3.814774 L8.389686,3.815016 L8.388405,3.815246 L8.387122,3.815465 L8.385837,3.815674 L8.384550,3.815871 L8.383261,3.816056 L8.381971,3.816231 L8.380680,3.816394 L8.379387,3.816546 L8.378093,3.816687 L8.376798,3.816817 L8.375501,3.816935 L8.374204,3.817043 L8.372906,3.817139 L8.371607,3.817223 L8.370307,3.817297 L8.369007,3.817359 L8.367706,3.817410 L8.366405,3.817449 L8.365103,3.817477 L8.363802,3.817494 L8.362500,3.817500 L6.953999,3.817529 L6.947459,3.817614 L6.940920,3.817757 L6.934382,3.817956 L6.927847,3.818213 L6.921314,3.818526 L6.914784,3.818897 L6.908258,3.819324 L6.901735,3.819809 L6.895217,3.820350 L6.888704,3.820948 L6.882196,3.821603 L6.875695,3.822314 L6.869199,3.823083 L6.862711,3.823908 L6.856230,3.824789 L6.849758,3.825727 L6.843293,3.826721 L6.836838,3.827772 L6.830391,3.828879 L6.823955,3.830042 L6.817529,3.831261 L6.811114,3.832536 L6.804711,3.833867 L6.798319,3.835254 L6.791940,3.836696 L6.785573,3.838194 L6.779220,3.839748 L6.772880,3.841357 L6.766555,3.843021 L6.760245,3.844740 L6.753949,3.846514 L6.747670,3.848343 L6.741406,3.850227 L6.735160,3.852165 L6.728930,3.854158 L6.722718,3.856205 L6.716524,3.858305 L6.710349,3.860460 L6.704193,3.862669 L6.698056,3.864931 L6.691939,3.867247 L6.685843,3.869616 L6.679767,3.872038 L6.673713,3.874513 L6.667681,3.877041 L6.661671,3.879621 L6.655684,3.882253 L6.649720,3.884938 L6.643779,3.887674 L6.637863,3.890462 L6.631971,3.893302 L6.626104,3.896193 L6.620262,3.899135 L6.614447,3.902128 L6.608658,3.905171 L6.602895,3.908265 L6.597160,3.911409 L6.591452,3.914603 L6.585773,3.917846 L6.580122,3.921139 L6.574499,3.924481 L6.568907,3.927872 L6.563344,3.931312 L6.557811,3.934800 L6.552309,3.938336 L6.546837,3.941919 L6.541398,3.945551 L6.535990,3.949230 L6.530614,3.952956 L6.525272,3.956728 L6.519962,3.960547 L6.514686,3.964412 L6.509443,3.968323 L6.504235,3.972280 L6.499062,3.976282 L6.493924,3.980329 L6.488821,3.984420 L6.483754,3.988556 L6.478724,3.992736 L6.473730,3.996959 L6.468773,4.001226 L6.463853,4.005536 L6.458972,4.009889 L6.454128,4.014284 L6.449323,4.018721 L6.444557,4.023200 L6.439830,4.027720 L6.435142,4.032282 L6.430495,4.036884 L6.425888,4.041526 L6.421321,4.046209 L6.416796,4.050931 L6.412312,4.055692 L6.407870,4.060493 L6.403469,4.065332 L6.399111,4.070209 L6.394796,4.075123 L6.390524,4.080076 L6.386295,4.085065 L6.382109,4.090091 L6.377968,4.095154 L6.373871,4.100252 L6.369819,4.105386 L6.365811,4.110555 L6.361849,4.115758 L6.357933,4.120996 L6.354062,4.126268 L6.350237,4.131574 L6.346459,4.136913 L6.342727,4.142284 L6.339042,4.147688 L6.335405,4.153124 L6.331815,4.158591 L6.328273,4.164090 L6.324779,4.169619 L6.321334,4.175178 L6.317937,4.180767 L6.314589,4.186386 L6.311290,4.192033 L6.308040,4.197709 L6.304840,4.203413 L6.301690,4.209145 L6.298590,4.214904 L6.295541,4.220690 L6.292541,4.226503 L6.289593,4.232341 L6.286696,4.238205 L6.283850,4.244094 L6.281055,4.250007 L6.278312,4.255944 L6.275621,4.261906 L6.272983,4.267890 L6.270396,4.273897 L6.267862,4.279927 L6.265380,4.285978 L6.262952,4.292051 L6.260576,4.298145 L6.258254,4.304259 L6.255985,4.310394 L6.253770,4.316548 z" />

<!-- Film cutout 2.2000x2.2000" -->
  <path stroke="black" fill="none" stroke-width=".01" d="M2.150000,2.150000 l2.200000,0 l0,2.200000 l-2.200000,0 z" />

<!-- Aligner pins 0.7500" diam -->
  <path stroke="black" fill="none" stroke-width=".01" d=" M2.032500,2.525000 L2.032486,2.528268 L2.032443,2.531536 L2.032372,2.534803 L2.032272,2.538069 L2.032144,2.541335 L2.031987,2.544599 L2.031802,2.547861 L2.031589,2.551122 L2.031347,2.554381 L2.031077,2.557638 L2.030778,2.560892 L2.030451,2.564144 L2.030096,2.567393 L2.029713,2.570638 L2.029301,2.573880 L2.028861,2.577118 L2.028392,2.580352 L2.027896,2.583582 L2.027371,2.586808 L2.026819,2.590029 L2.026238,2.593245 L2.025629,2.596455 L2.024993,2.599661 L2.024328,2.602860 L2.023636,2.606054 L2.022915,2.609242 L2.022167,2.612423 L2.021392,2.615597 L2.020588,2.618765 L2.019757,2.621926 L2.018899,2.625079 L2.018013,2.628224 L2.017100,2.631362 L2.016159,2.634492 L2.015192,2.637613 L2.014197,2.640726 L2.013175,2.643830 L2.012126,2.646925 L2.011050,2.650011 L2.009947,2.653087 L2.008817,2.656153 L2.007661,2.659210 L2.006478,2.662256 L2.005269,2.665292 L2.004033,2.668318 L2.002771,2.671332 L2.001483,2.674335 L2.000168,2.677327 L1.998828,2.680308 L1.997461,2.683276 L1.996069,2.686233 L1.994651,2.689177 L1.993208,2.692109 L1.991739,2.695028 L1.990244,2.697934 L1.988725,2.700827 L1.987180,2.703707 L1.985610,2.706573 L1.984015,2.709426 L1.982396,2.712264 L1.980751,2.715088 L1.979083,2.717898 L1.977389,2.720693 L1.975672,2.723473 L1.973930,2.726238 L1.972165,2.728988 L1.970375,2.731723 L1.968562,2.734441 L1.966725,2.737144 L1.964864,2.739831 L1.962980,2.742501 L1.961073,2.745155 L1.959143,2.747792 L1.957190,2.750412 L1.955215,2.753015 L1.953216,2.755601 L1.951195,2.758169 L1.949152,2.760720 L1.947087,2.763253 L1.945000,2.765767 L1.942891,2.768263 L1.940760,2.770741 L1.938608,2.773200 L1.936434,2.775641 L1.934239,2.778062 L1.932024,2.780464 L1.929787,2.782846 L1.927530,2.785209 L1.925252,2.787553 L1.922954,2.789876 L1.920635,2.792179 L1.918297,2.794462 L1.915939,2.796725 L1.913561,2.798966 L1.911164,2.801188 L1.908748,2.803388 L1.906312,2.805566 L1.903858,2.807724 L1.901385,2.809860 L1.898893,2.811975 L1.896383,2.814067 L1.893855,2.816138 L1.891309,2.818187 L1.888745,2.820213 L1.886163,2.822217 L1.883565,2.824199 L1.880949,2.826157 L1.878316,2.828093 L1.875666,2.830006 L1.873000,2.831895 L1.870317,2.833762 L1.867619,2.835605 L1.864904,2.837424 L1.862173,2.839219 L1.859427,2.840991 L1.856666,2.842739 L1.853890,2.844462 L1.851098,2.846162 L1.848292,2.847836 L1.845471,2.849487 L1.842637,2.851113 L1.839788,2.852714 L1.836925,2.854290 L1.834049,2.855841 L1.831159,2.857367 L1.828256,2.858867 L1.825340,2.860343 L1.822411,2.861793 L1.819470,2.863217 L1.816516,2.864616 L1.813551,2.865988 L1.810573,2.867335 L1.807584,2.868656 L1.804584,2.869951 L1.801572,2.871220 L1.798550,2.872462 L1.795516,2.873678 L1.792473,2.874868 L1.789419,2.876031 L1.786354,2.877167 L1.783281,2.878276 L1.780197,2.879359 L1.777105,2.880415 L1.774003,2.881444 L1.770892,2.882445 L1.767773,2.883420 L1.764645,2.884367 L1.761510,2.885287 L1.758366,2.886180 L1.755215,2.887045 L1.752056,2.887883 L1.748890,2.888693 L1.745717,2.889476 L1.742538,2.890231 L1.739352,2.890958 L1.736159,2.891657 L1.732961,2.892329 L1.729757,2.892973 L1.726548,2.893588 L1.723333,2.894176 L1.720113,2.894736 L1.716889,2.895267 L1.713660,2.895771 L1.710427,2.896246 L1.707190,2.896693 L1.703949,2.897112 L1.700704,2.897503 L1.697456,2.897865 L1.694206,2.898199 L1.690952,2.898505 L1.687696,2.898782 L1.684437,2.899031 L1.681177,2.899252 L1.677915,2.899444 L1.674651,2.899608 L1.671386,2.899743 L1.668119,2.899850 L1.664852,2.899928 L1.661585,2.899978 L1.658317,2.899999 L1.655049,2.899992 L1.651781,2.899956 L1.648514,2.899892 L1.645247,2.899800 L1.641982,2.899679 L1.638717,2.899529 L1.635454,2.899351 L1.632193,2.899145 L1.628933,2.898910 L1.625676,2.898647 L1.622421,2.898356 L1.619169,2.898036 L1.615919,2.897688 L1.612673,2.897311 L1.609430,2.896906 L1.606191,2.896473 L1.602956,2.896012 L1.599725,2.895523 L1.596498,2.895005 L1.593276,2.894459 L1.590059,2.893886 L1.586847,2.893284 L1.583640,2.892654 L1.580439,2.891997 L1.577244,2.891311 L1.574055,2.890598 L1.570872,2.889857 L1.567696,2.889088 L1.564526,2.888292 L1.561364,2.887468 L1.558209,2.886616 L1.555061,2.885737 L1.551922,2.884831 L1.548790,2.883897 L1.545666,2.882936 L1.542551,2.881948 L1.539445,2.880933 L1.536348,2.879890 L1.533260,2.878821 L1.530181,2.877725 L1.527112,2.876602 L1.524053,2.875452 L1.521004,2.874276 L1.517966,2.873074 L1.514938,2.871844 L1.511921,2.870589 L1.508915,2.869307 L1.505920,2.867999 L1.502936,2.866665 L1.499965,2.865305 L1.497005,2.863920 L1.494058,2.862508 L1.491123,2.861071 L1.488201,2.859608 L1.485291,2.858120 L1.482395,2.856607 L1.479512,2.855068 L1.476642,2.853505 L1.473786,2.851916 L1.470944,2.850303 L1.468116,2.848665 L1.465303,2.847002 L1.462504,2.845315 L1.459720,2.843604 L1.456951,2.841868 L1.454198,2.840108 L1.451459,2.838325 L1.448737,2.836517 L1.446030,2.834686 L1.443339,2.832831 L1.440665,2.830953 L1.438007,2.829052 L1.435366,2.827128 L1.432741,2.825181 L1.430134,2.823211 L1.427544,2.821218 L1.424971,2.819203 L1.422416,2.817165 L1.419879,2.815106 L1.417360,2.813024 L1.414859,2.810920 L1.412377,2.808795 L1.409913,2.806648 L1.407468,2.804480 L1.405042,2.802290 L1.402635,2.800080 L1.400247,2.797848 L1.397879,2.795596 L1.395531,2.793323 L1.393203,2.791030 L1.390895,2.788717 L1.388607,2.786384 L1.386339,2.784030 L1.384092,2.781658 L1.381866,2.779265 L1.379660,2.776854 L1.377476,2.774423 L1.375313,2.771973 L1.373172,2.769505 L1.371052,2.767018 L1.368954,2.764512 L1.366877,2.761988 L1.364823,2.759447 L1.362791,2.756887 L1.360782,2.754310 L1.358795,2.751716 L1.356830,2.749104 L1.354889,2.746476 L1.352970,2.743830 L1.351075,2.741168 L1.349203,2.738490 L1.347354,2.735795 L1.345529,2.733084 L1.343727,2.730357 L1.341950,2.727615 L1.340196,2.724858 L1.338466,2.722085 L1.336761,2.719297 L1.335080,2.716495 L1.333423,2.713678 L1.331792,2.710847 L1.330184,2.708001 L1.328602,2.705142 L1.327045,2.702269 L1.325512,2.699382 L1.324005,2.696483 L1.322524,2.693570 L1.321067,2.690645 L1.319637,2.687706 L1.318232,2.684756 L1.316852,2.681793 L1.315499,2.678819 L1.314171,2.675833 L1.312870,2.672835 L1.311595,2.669826 L1.310346,2.666806 L1.309123,2.663776 L1.307927,2.660734 L1.306758,2.657683 L1.305615,2.654621 L1.304498,2.651550 L1.303409,2.648469 L1.302347,2.645379 L1.301311,2.642279 L1.300302,2.639171 L1.299321,2.636054 L1.298367,2.632928 L1.297440,2.629794 L1.296541,2.626653 L1.295668,2.623503 L1.294824,2.620346 L1.294007,2.617182 L1.293217,2.614011 L1.292455,2.610833 L1.291721,2.607649 L1.291015,2.604458 L1.290336,2.601261 L1.289686,2.598059 L1.289063,2.594851 L1.288468,2.591637 L1.287901,2.588419 L1.287363,2.585196 L1.286852,2.581968 L1.286370,2.578736 L1.285916,2.575499 L1.285490,2.572259 L1.285092,2.569016 L1.284723,2.565769 L1.284382,2.562519 L1.284069,2.559266 L1.283784,2.556010 L1.283528,2.552752 L1.283301,2.549492 L1.283101,2.546230 L1.282931,2.542967 L1.282788,2.539702 L1.282674,2.536436 L1.282589,2.533169 L1.282532,2.529902 L1.282504,2.526634 L1.282504,2.523366 L1.282532,2.520098 L1.282589,2.516831 L1.282674,2.513564 L1.282788,2.510298 L1.282931,2.507033 L1.283101,2.503770 L1.283301,2.500508 L1.283528,2.497248 L1.283784,2.493990 L1.284069,2.490734 L1.284382,2.487481 L1.284723,2.484231 L1.285092,2.480984 L1.285490,2.477741 L1.285916,2.474501 L1.286370,2.471264 L1.286852,2.468032 L1.287363,2.464804 L1.287901,2.461581 L1.288468,2.458363 L1.289063,2.455149 L1.289686,2.451941 L1.290336,2.448739 L1.291015,2.445542 L1.291721,2.442351 L1.292455,2.439167 L1.293217,2.435989 L1.294007,2.432818 L1.294824,2.429654 L1.295668,2.426497 L1.296541,2.423347 L1.297440,2.420206 L1.298367,2.417072 L1.299321,2.413946 L1.300302,2.410829 L1.301311,2.407721 L1.302347,2.404621 L1.303409,2.401531 L1.304498,2.398450 L1.305615,2.395379 L1.306758,2.392317 L1.307927,2.389266 L1.309123,2.386224 L1.310346,2.383194 L1.311595,2.380174 L1.312870,2.377165 L1.314171,2.374167 L1.315499,2.371181 L1.316852,2.368207 L1.318232,2.365244 L1.319637,2.362294 L1.321067,2.359355 L1.322524,2.356430 L1.324005,2.353517 L1.325512,2.350618 L1.327045,2.347731 L1.328602,2.344858 L1.330184,2.341999 L1.331792,2.339153 L1.333423,2.336322 L1.335080,2.333505 L1.336761,2.330703 L1.338466,2.327915 L1.340196,2.325142 L1.341950,2.322385 L1.343727,2.319643 L1.345529,2.316916 L1.347354,2.314205 L1.349203,2.311510 L1.351075,2.308832 L1.352970,2.306170 L1.354889,2.303524 L1.356830,2.300896 L1.358795,2.298284 L1.360782,2.295690 L1.362791,2.293113 L1.364823,2.290553 L1.366877,2.288012 L1.368954,2.285488 L1.371052,2.282982 L1.373172,2.280495 L1.375313,2.278027 L1.377476,2.275577 L1.379660,2.273146 L1.381866,2.270735 L1.384092,2.268342 L1.386339,2.265970 L1.388607,2.263616 L1.390895,2.261283 L1.393203,2.258970 L1.395531,2.256677 L1.397879,2.254404 L1.400247,2.252152 L1.402635,2.249920 L1.405042,2.247710 L1.407468,2.245520 L1.409913,2.243352 L1.412377,2.241205 L1.414859,2.239080 L1.417360,2.236976 L1.419879,2.234894 L1.422416,2.232835 L1.424971,2.230797 L1.427544,2.228782 L1.430134,2.226789 L1.432741,2.224819 L1.435366,2.222872 L1.438007,2.220948 L1.440665,2.219047 L1.443339,2.217169 L1.446030,2.215314 L1.448737,2.213483 L1.451459,2.211675 L1.454198,2.209892 L1.456951,2.208132 L1.459720,2.206396 L1.462504,2.204685 L1.465303,2.202998 L1.468116,2.201335 L1.470944,2.199697 L1.473786,2.198084 L1.476642,2.196495 L1.479512,2.194932 L1.482395,2.193393 L1.485291,2.191880 L1.488201,2.190392 L1.491123,2.188929 L1.494058,2.187492 L1.497005,2.186080 L1.499965,2.184695 L1.502936,2.183335 L1.505920,2.182001 L1.508915,2.180693 L1.511921,2.179411 L1.514938,2.178156 L1.517966,2.176926 L1.521004,2.175724 L1.524053,2.174548 L1.527112,2.173398 L1.530181,2.172275 L1.533260,2.171179 L1.536348,2.170110 L1.539445,2.169067 L1.542551,2.168052 L1.545666,2.167064 L1.548790,2.166103 L1.551922,2.165169 L1.555061,2.164263 L1.558209,2.163384 L1.561364,2.162532 L1.564526,2.161708 L1.567696,2.160912 L1.570872,2.160143 L1.574055,2.159402 L1.577244,2.158689 L1.580439,2.158003 L1.583640,2.157346 L1.586847,2.156716 L1.590059,2.156114 L1.593276,2.155541 L1.596498,2.154995 L1.599725,2.154477 L1.602956,2.153988 L1.606191,2.153527 L1.609430,2.153094 L1.612673,2.152689 L1.615919,2.152312 L1.619169,2.151964 L1.622421,2.151644 L1.625676,2.151353 L1.628933,2.151090 L1.632193,2.150855 L1.635454,2.150649 L1.638717,2.150471 L1.641982,2.150321 L1.645247,2.150200 L1.648514,2.150108 L1.651781,2.150044 L1.655049,2.150008 L1.658317,2.150001 L1.661585,2.150022 L1.664852,2.150072 L1.668119,2.150150 L1.671386,2.150257 L1.674651,2.150392 L1.677915,2.150556 L1.681177,2.150748 L1.684437,2.150969 L1.687696,2.151218 L1.690952,2.151495 L1.694206,2.151801 L1.697456,2.152135 L1.700704,2.152497 L1.703949,2.152888 L1.707190,2.153307 L1.710427,2.153754 L1.713660,2.154229 L1.716889,2.154733 L1.720113,2.155264 L1.723333,2.155824 L1.726548,2.156412 L1.729757,2.157027 L1.732961,2.157671 L1.736159,2.158343 L1.739352,2.159042 L1.742538,2.159769 L1.745717,2.160524 L1.748890,2.161307 L1.752056,2.162117 L1.755215,2.162955 L1.758366,2.163820 L1.761510,2.164713 L1.764645,2.165633 L1.767773,2.166580 L1.770892,2.167555 L1.774003,2.168556 L1.777105,2.169585 L1.780197,2.170641 L1.783281,2.171724 L1.786354,2.172833 L1.789419,2.173969 L1.792473,2.175132 L1.795516,2.176322 L1.798550,2.177538 L1.801572,2.178780 L1.804584,2.180049 L1.807584,2.181344 L1.810573,2.182665 L1.813551,2.184012 L1.816516,2.185384 L1.819470,2.186783 L1.822411,2.188207 L1.825340,2.189657 L1.828256,2.191133 L1.831159,2.192633 L1.834049,2.194159 L1.836925,2.195710 L1.839788,2.197286 L1.842637,2.198887 L1.845471,2.200513 L1.848292,2.202164 L1.851098,2.203838 L1.853890,2.205538 L1.856666,2.207261 L1.859427,2.209009 L1.862173,2.210781 L1.864904,2.212576 L1.867619,2.214395 L1.870317,2.216238 L1.873000,2.218105 L1.875666,2.219994 L1.878316,2.221907 L1.880949,2.223843 L1.883565,2.225801 L1.886163,2.227783 L1.888745,2.229787 L1.891309,2.231813 L1.893855,2.233862 L1.896383,2.235933 L1.898893,2.238025 L1.901385,2.240140 L1.903858,2.242276 L1.906312,2.244434 L1.908748,2.246612 L1.911164,2.248812 L1.913561,2.251034 L1.915939,2.253275 L1.918297,2.255538 L1.920635,2.257821 L1.922954,2.260124 L1.925252,2.262447 L1.927530,2.264791 L1.929787,2.267154 L1.932024,2.269536 L1.934239,2.271938 L1.936434,2.274359 L1.938608,2.276800 L1.940760,2.279259 L1.942891,2.281737 L1.945000,2.284233 L1.947087,2.286747 L1.949152,2.289280 L1.951195,2.291831 L1.953216,2.294399 L1.955215,2.296985 L1.957190,2.299588 L1.959143,2.302208 L1.961073,2.304845 L1.962980,2.307499 L1.964864,2.310169 L1.966725,2.312856 L1.968562,2.315559 L1.970375,2.318277 L1.972165,2.321012 L1.973930,2.323762 L1.975672,2.326527 L1.977389,2.329307 L1.979083,2.332102 L1.980751,2.334912 L1.982396,2.337736 L1.984015,2.340574 L1.985610,2.343427 L1.987180,2.346293 L1.988725,2.349173 L1.990244,2.352066 L1.991739,2.354972 L1.993208,2.357891 L1.994651,2.360823 L1.996069,2.363767 L1.997461,2.366724 L1.998828,2.369692 L2.000168,2.372673 L2.001483,2.375665 L2.002771,2.378668 L2.004033,2.381682 L2.005269,2.384708 L2.006478,2.387744 L2.007661,2.390790 L2.008817,2.393847 L2.009947,2.396913 L2.011050,2.399989 L2.012126,2.403075 L2.013175,2.406170 L2.014197,2.409274 L2.015192,2.412387 L2.016159,2.415508 L2.017100,2.418638 L2.018013,2.421776 L2.018899,2.424921 L2.019757,2.428074 L2.020588,2.431235 L2.021392,2.434403 L2.022167,2.437577 L2.022915,2.440758 L2.023636,2.443946 L2.024328,2.447140 L2.024993,2.450339 L2.025629,2.453545 L2.026238,2.456755 L2.026819,2.459971 L2.027371,2.463192 L2.027896,2.466418 L2.028392,2.469648 L2.028861,2.472882 L2.029301,2.476120 L2.029713,2.479362 L2.030096,2.482607 L2.030451,2.485856 L2.030778,2.489108 L2.031077,2.492362 L2.031347,2.495619 L2.031589,2.498878 L2.031802,2.502139 L2.031987,2.505401 L2.032144,2.508665 L2.032272,2.511931 L2.032372,2.515197 L2.032443,2.518464 L2.032486,2.521732 L2.032500,2.525000 M5.217500,2.525000 L5.217486,2.528268 L5.217443,2.531536 L5.217372,2.534803 L5.217272,2.538069 L5.217144,2.541335 L5.216987,2.544599 L5.216802,2.547861 L5.216589,2.551122 L5.216347,2.554381 L5.216077,2.557638 L5.215778,2.560892 L5.215451,2.564144 L5.215096,2.567393 L5.214713,2.570638 L5.214301,2.573880 L5.213861,2.577118 L5.213392,2.580352 L5.212896,2.583582 L5.212371,2.586808 L5.211819,2.590029 L5.211238,2.593245 L5.210629,2.596455 L5.209993,2.599661 L5.209328,2.602860 L5.208636,2.606054 L5.207915,2.609242 L5.207167,2.612423 L5.206392,2.615597 L5.205588,2.618765 L5.204757,2.621926 L5.203899,2.625079 L5.203013,2.628224 L5.202100,2.631362 L5.201159,2.634492 L5.200192,2.637613 L5.199197,2.640726 L5.198175,2.643830 L5.197126,2.646925 L5.196050,2.650011 L5.194947,2.653087 L5.193817,2.656153 L5.192661,2.659210 L5.191478,2.662256 L5.190269,2.665292 L5.189033,2.668318 L5.187771,2.671332 L5.186483,2.674335 L5.185168,2.677327 L5.183828,2.680308 L5.182461,2.683276 L5.181069,2.686233 L5.179651,2.689177 L5.178208,2.692109 L5.176739,2.695028 L5.175244,2.697934 L5.173725,2.700827 L5.172180,2.703707 L5.170610,2.706573 L5.169015,2.709426 L5.167396,2.712264 L5.165751,2.715088 L5.164083,2.717898 L5.162389,2.720693 L5.160672,2.723473 L5.158930,2.726238 L5.157165,2.728988 L5.155375,2.731723 L5.153562,2.734441 L5.151725,2.737144 L5.149864,2.739831 L5.147980,2.742501 L5.146073,2.745155 L5.144143,2.747792 L5.142190,2.750412 L5.140215,2.753015 L5.138216,2.755601 L5.136195,2.758169 L5.134152,2.760720 L5.132087,2.763253 L5.130000,2.765767 L5.127891,2.768263 L5.125760,2.770741 L5.123608,2.773200 L5.121434,2.775641 L5.119239,2.778062 L5.117024,2.780464 L5.114787,2.782846 L5.112530,2.785209 L5.110252,2.787553 L5.107954,2.789876 L5.105635,2.792179 L5.103297,2.794462 L5.100939,2.796725 L5.098561,2.798966 L5.096164,2.801188 L5.093748,2.803388 L5.091312,2.805566 L5.088858,2.807724 L5.086385,2.809860 L5.083893,2.811975 L5.081383,2.814067 L5.078855,2.816138 L5.076309,2.818187 L5.073745,2.820213 L5.071163,2.822217 L5.068565,2.824199 L5.065949,2.826157 L5.063316,2.828093 L5.060666,2.830006 L5.058000,2.831895 L5.055317,2.833762 L5.052619,2.835605 L5.049904,2.837424 L5.047173,2.839219 L5.044427,2.840991 L5.041666,2.842739 L5.038890,2.844462 L5.036098,2.846162 L5.033292,2.847836 L5.030471,2.849487 L5.027637,2.851113 L5.024788,2.852714 L5.021925,2.854290 L5.019049,2.855841 L5.016159,2.857367 L5.013256,2.858867 L5.010340,2.860343 L5.007411,2.861793 L5.004470,2.863217 L5.001516,2.864616 L4.998551,2.865988 L4.995573,2.867335 L4.992584,2.868656 L4.989584,2.869951 L4.986572,2.871220 L4.983550,2.872462 L4.980516,2.873678 L4.977473,2.874868 L4.974419,2.876031 L4.971354,2.877167 L4.968281,2.878276 L4.965197,2.879359 L4.962105,2.880415 L4.959003,2.881444 L4.955892,2.882445 L4.952773,2.883420 L4.949645,2.884367 L4.946510,2.885287 L4.943366,2.886180 L4.940215,2.887045 L4.937056,2.887883 L4.933890,2.888693 L4.930717,2.889476 L4.927538,2.890231 L4.924352,2.890958 L4.921159,2.891657 L4.917961,2.892329 L4.914757,2.892973 L4.911548,2.893588 L4.908333,2.894176 L4.905113,2.894736 L4.901889,2.895267 L4.898660,2.895771 L4.895427,2.896246 L4.892190,2.896693 L4.888949,2.897112 L4.885704,2.897503 L4.882456,2.897865 L4.879206,2.898199 L4.875952,2.898505 L4.872696,2.898782 L4.869437,2.899031 L4.866177,2.899252 L4.862915,2.899444 L4.859651,2.899608 L4.856386,2.899743 L4.853119,2.899850 L4.849852,2.899928 L4.846585,2.899978 L4.843317,2.899999 L4.840049,2.899992 L4.836781,2.899956 L4.833514,2.899892 L4.830247,2.899800 L4.826982,2.899679 L4.823717,2.899529 L4.820454,2.899351 L4.817193,2.899145 L4.813933,2.898910 L4.810676,2.898647 L4.807421,2.898356 L4.804169,2.898036 L4.800919,2.897688 L4.797673,2.897311 L4.794430,2.896906 L4.791191,2.896473 L4.787956,2.896012 L4.784725,2.895523 L4.781498,2.895005 L4.778276,2.894459 L4.775059,2.893886 L4.771847,2.893284 L4.768640,2.892654 L4.765439,2.891997 L4.762244,2.891311 L4.759055,2.890598 L4.755872,2.889857 L4.752696,2.889088 L4.749526,2.888292 L4.746364,2.887468 L4.743209,2.886616 L4.740061,2.885737 L4.736922,2.884831 L4.733790,2.883897 L4.730666,2.882936 L4.727551,2.881948 L4.724445,2.880933 L4.721348,2.879890 L4.718260,2.878821 L4.715181,2.877725 L4.712112,2.876602 L4.709053,2.875452 L4.706004,2.874276 L4.702966,2.873074 L4.699938,2.871844 L4.696921,2.870589 L4.693915,2.869307 L4.690920,2.867999 L4.687936,2.866665 L4.684965,2.865305 L4.682005,2.863920 L4.679058,2.862508 L4.676123,2.861071 L4.673201,2.859608 L4.670291,2.858120 L4.667395,2.856607 L4.664512,2.855068 L4.661642,2.853505 L4.658786,2.851916 L4.655944,2.850303 L4.653116,2.848665 L4.650303,2.847002 L4.647504,2.845315 L4.644720,2.843604 L4.641951,2.841868 L4.639198,2.840108 L4.636459,2.838325 L4.633737,2.836517 L4.631030,2.834686 L4.628339,2.832831 L4.625665,2.830953 L4.623007,2.829052 L4.620366,2.827128 L4.617741,2.825181 L4.615134,2.823211 L4.612544,2.821218 L4.609971,2.819203 L4.607416,2.817165 L4.604879,2.815106 L4.602360,2.813024 L4.599859,2.810920 L4.597377,2.808795 L4.594913,2.806648 L4.592468,2.804480 L4.590042,2.802290 L4.587635,2.800080 L4.585247,2.797848 L4.582879,2.795596 L4.580531,2.793323 L4.578203,2.791030 L4.575895,2.788717 L4.573607,2.786384 L4.571339,2.784030 L4.569092,2.781658 L4.566866,2.779265 L4.564660,2.776854 L4.562476,2.774423 L4.560313,2.771973 L4.558172,2.769505 L4.556052,2.767018 L4.553954,2.764512 L4.551877,2.761988 L4.549823,2.759447 L4.547791,2.756887 L4.545782,2.754310 L4.543795,2.751716 L4.541830,2.749104 L4.539889,2.746476 L4.537970,2.743830 L4.536075,2.741168 L4.534203,2.738490 L4.532354,2.735795 L4.530529,2.733084 L4.528727,2.730357 L4.526950,2.727615 L4.525196,2.724858 L4.523466,2.722085 L4.521761,2.719297 L4.520080,2.716495 L4.518423,2.713678 L4.516792,2.710847 L4.515184,2.708001 L4.513602,2.705142 L4.512045,2.702269 L4.510512,2.699382 L4.509005,2.696483 L4.507524,2.693570 L4.506067,2.690645 L4.504637,2.687706 L4.503232,2.684756 L4.501852,2.681793 L4.500499,2.678819 L4.499171,2.675833 L4.497870,2.672835 L4.496595,2.669826 L4.495346,2.666806 L4.494123,2.663776 L4.492927,2.660734 L4.491758,2.657683 L4.490615,2.654621 L4.489498,2.651550 L4.488409,2.648469 L4.487347,2.645379 L4.486311,2.642279 L4.485302,2.639171 L4.484321,2.636054 L4.483367,2.632928 L4.482440,2.629794 L4.481541,2.626653 L4.480668,2.623503 L4.479824,2.620346 L4.479007,2.617182 L4.478217,2.614011 L4.477455,2.610833 L4.476721,2.607649 L4.476015,2.604458 L4.475336,2.601261 L4.474686,2.598059 L4.474063,2.594851 L4.473468,2.591637 L4.472901,2.588419 L4.472363,2.585196 L4.471852,2.581968 L4.471370,2.578736 L4.470916,2.575499 L4.470490,2.572259 L4.470092,2.569016 L4.469723,2.565769 L4.469382,2.562519 L4.469069,2.559266 L4.468784,2.556010 L4.468528,2.552752 L4.468301,2.549492 L4.468101,2.546230 L4.467931,2.542967 L4.467788,2.539702 L4.467674,2.536436 L4.467589,2.533169 L4.467532,2.529902 L4.467504,2.526634 L4.467504,2.523366 L4.467532,2.520098 L4.467589,2.516831 L4.467674,2.513564 L4.467788,2.510298 L4.467931,2.507033 L4.468101,2.503770 L4.468301,2.500508 L4.468528,2.497248 L4.468784,2.493990 L4.469069,2.490734 L4.469382,2.487481 L4.469723,2.484231 L4.470092,2.480984 L4.470490,2.477741 L4.470916,2.474501 L4.471370,2.471264 L4.471852,2.468032 L4.472363,2.464804 L4.472901,2.461581 L4.473468,2.458363 L4.474063,2.455149 L4.474686,2.451941 L4.475336,2.448739 L4.476015,2.445542 L4.476721,2.442351 L4.477455,2.439167 L4.478217,2.435989 L4.479007,2.432818 L4.479824,2.429654 L4.480668,2.426497 L4.481541,2.423347 L4.482440,2.420206 L4.483367,2.417072 L4.484321,2.413946 L4.485302,2.410829 L4.486311,2.407721 L4.487347,2.404621 L4.488409,2.401531 L4.489498,2.398450 L4.490615,2.395379 L4.491758,2.392317 L4.492927,2.389266 L4.494123,2.386224 L4.495346,2.383194 L4.496595,2.380174 L4.497870,2.377165 L4.499171,2.374167 L4.500499,2.371181 L4.501852,2.368207 L4.503232,2.365244 L4.504637,2.362294 L4.506067,2.359355 L4.507524,2.356430 L4.509005,2.353517 L4.510512,2.350618 L4.512045,2.347731 L4.513602,2.344858 L4.515184,2.341999 L4.516792,2.339153 L4.518423,2.336322 L4.520080,2.333505 L4.521761,2.330703 L4.523466,2.327915 L4.525196,2.325142 L4.526950,2.322385 L4.528727,2.319643 L4.530529,2.316916 L4.532354,2.314205 L4.534203,2.311510 L4.536075,2.308832 L4.537970,2.306170 L4.539889,2.303524 L4.541830,2.300896 L4.543795,2.298284 L4.545782,2.295690 L4.547791,2.293113 L4.549823,2.290553 L4.551877,2.288012 L4.553954,2.285488 L4.556052,2.282982 L4.558172,2.280495 L4.560313,2.278027 L4.562476,2.275577 L4.564660,2.273146 L4.566866,2.270735 L4.569092,2.268342 L4.571339,2.265970 L4.573607,2.263616 L4.575895,2.261283 L4.578203,2.258970 L4.580531,2.256677 L4.582879,2.254404 L4.585247,2.252152 L4.587635,2.249920 L4.590042,2.247710 L4.592468,2.245520 L4.594913,2.243352 L4.597377,2.241205 L4.599859,2.239080 L4.602360,2.236976 L4.604879,2.234894 L4.607416,2.232835 L4.609971,2.230797 L4.612544,2.228782 L4.615134,2.226789 L4.617741,2.224819 L4.620366,2.222872 L4.623007,2.220948 L4.625665,2.219047 L4.628339,2.217169 L4.631030,2.215314 L4.633737,2.213483 L4.636459,2.211675 L4.639198,2.209892 L4.641951,2.208132 L4.644720,2.206396 L4.647504,2.204685 L4.650303,2.202998 L4.653116,2.201335 L4.655944,2.199697 L4.658786,2.198084 L4.661642,2.196495 L4.664512,2.194932 L4.667395,2.193393 L4.670291,2.191880 L4.673201,2.190392 L4.676123,2.188929 L4.679058,2.187492 L4.682005,2.186080 L4.684965,2.184695 L4.687936,2.183335 L4.690920,2.182001 L4.693915,2.180693 L4.696921,2.179411 L4.699938,2.178156 L4.702966,2.176926 L4.706004,2.175724 L4.709053,2.174548 L4.712112,2.173398 L4.715181,2.172275 L4.718260,2.171179 L4.721348,2.170110 L4.724445,2.169067 L4.727551,2.168052 L4.730666,2.167064 L4.733790,2.166103 L4.736922,2.165169 L4.740061,2.164263 L4.743209,2.163384 L4.746364,2.162532 L4.749526,2.161708 L4.752696,2.160912 L4.755872,2.160143 L4.759055,2.159402 L4.762244,2.158689 L4.765439,2.158003 L4.768640,2.157346 L4.771847,2.156716 L4.775059,2.156114 L4.778276,2.155541 L4.781498,2.154995 L4.784725,2.154477 L4.787956,2.153988 L4.791191,2.153527 L4.794430,2.153094 L4.797673,2.152689 L4.800919,2.152312 L4.804169,2.151964 L4.807421,2.151644 L4.810676,2.151353 L4.813933,2.151090 L4.817193,2.150855 L4.820454,2.150649 L4.823717,2.150471 L4.826982,2.150321 L4.830247,2.150200 L4.833514,2.150108 L4.836781,2.150044 L4.840049,2.150008 L4.843317,2.150001 L4.846585,2.150022 L4.849852,2.150072 L4.853119,2.150150 L4.856386,2.150257 L4.859651,2.150392 L4.862915,2.150556 L4.866177,2.150748 L4.869437,2.150969 L4.872696,2.151218 L4.875952,2.151495 L4.879206,2.151801 L4.882456,2.152135 L4.885704,2.152497 L4.888949,2.152888 L4.892190,2.153307 L4.895427,2.153754 L4.898660,2.154229 L4.901889,2.154733 L4.905113,2.155264 L4.908333,2.155824 L4.911548,2.156412 L4.914757,2.157027 L4.917961,2.157671 L4.921159,2.158343 L4.924352,2.159042 L4.927538,2.159769 L4.930717,2.160524 L4.933890,2.161307 L4.937056,2.162117 L4.940215,2.162955 L4.943366,2.163820 L4.946510,2.164713 L4.949645,2.165633 L4.952773,2.166580 L4.955892,2.167555 L4.959003,2.168556 L4.962105,2.169585 L4.965197,2.170641 L4.968281,2.171724 L4.971354,2.172833 L4.974419,2.173969 L4.977473,2.175132 L4.980516,2.176322 L4.983550,2.177538 L4.986572,2.178780 L4.989584,2.180049 L4.992584,2.181344 L4.995573,2.182665 L4.998551,2.184012 L5.001516,2.185384 L5.004470,2.186783 L5.007411,2.188207 L5.010340,2.189657 L5.013256,2.191133 L5.016159,2.192633 L5.019049,2.194159 L5.021925,2.195710 L5.024788,2.197286 L5.027637,2.198887 L5.030471,2.200513 L5.033292,2.202164 L5.036098,2.203838 L5.038890,2.205538 L5.041666,2.207261 L5.044427,2.209009 L5.047173,2.210781 L5.049904,2.212576 L5.052619,2.214395 L5.055317,2.216238 L5.058000,2.218105 L5.060666,2.219994 L5.063316,2.221907 L5.065949,2.223843 L5.068565,2.225801 L5.071163,2.227783 L5.073745,2.229787 L5.076309,2.231813 L5.078855,2.233862 L5.081383,2.235933 L5.083893,2.238025 L5.086385,2.240140 L5.088858,2.242276 L5.091312,2.244434 L5.093748,2.246612 L5.096164,2.248812 L5.098561,2.251034 L5.100939,2.253275 L5.103297,2.255538 L5.105635,2.257821 L5.107954,2.260124 L5.110252,2.262447 L5.112530,2.264791 L5.114787,2.267154 L5.117024,2.269536 L5.119239,2.271938 L5.121434,2.274359 L5.123608,2.276800 L5.125760,2.279259 L5.127891,2.281737 L5.130000,2.284233 L5.132087,2.286747 L5.134152,2.289280 L5.136195,2.291831 L5.138216,2.294399 L5.140215,2.296985 L5.142190,2.299588 L5.144143,2.302208 L5.146073,2.304845 L5.147980,2.307499 L5.149864,2.310169 L5.151725,2.312856 L5.153562,2.315559 L5.155375,2.318277 L5.157165,2.321012 L5.158930,2.323762 L5.160672,2.326527 L5.162389,2.329307 L5.164083,2.332102 L5.165751,2.334912 L5.167396,2.337736 L5.169015,2.340574 L5.170610,2.343427 L5.172180,2.346293 L5.173725,2.349173 L5.175244,2.352066 L5.176739,2.354972 L5.178208,2.357891 L5.179651,2.360823 L5.181069,2.363767 L5.182461,2.366724 L5.183828,2.369692 L5.185168,2.372673 L5.186483,2.375665 L5.187771,2.378668 L5.189033,2.381682 L5.190269,2.384708 L5.191478,2.387744 L5.192661,2.390790 L5.193817,2.393847 L5.194947,2.396913 L5.196050,2.399989 L5.197126,2.403075 L5.198175,2.406170 L5.199197,2.409274 L5.200192,2.412387 L5.201159,2.415508 L5.202100,2.418638 L5.203013,2.421776 L5.203899,2.424921 L5.204757,2.428074 L5.205588,2.431235 L5.206392,2.434403 L5.207167,2.437577 L5.207915,2.440758 L5.208636,2.443946 L5.209328,2.447140 L5.209993,2.450339 L5.210629,2.453545 L5.211238,2.456755 L5.211819,2.459971 L5.212371,2.463192 L5.212896,2.466418 L5.213392,2.469648 L5.213861,2.472882 L5.214301,2.476120 L5.214713,2.479362 L5.215096,2.482607 L5.215451,2.485856 L5.215778,2.489108 L5.216077,2.492362 L5.216347,2.495619 L5.216589,2.498878 L5.216802,2.502139 L5.216987,2.505401 L5.217144,2.508665 L5.217272,2.511931 L5.217372,2.515197 L5.217443,2.518464 L5.217486,2.521732 L5.217500,2.525000 M2.032500,3.975000 L2.032486,3.978268 L2.032443,3.981536 L2.032372,3.984803 L2.032272,3.988069 L2.032144,3.991335 L2.031987,3.994599 L2.031802,3.997861 L2.031589,4.001122 L2.031347,4.004381 L2.031077,4.007638 L2.030778,4.010892 L2.030451,4.014144 L2.030096,4.017393 L2.029713,4.020638 L2.029301,4.023880 L2.028861,4.027118 L2.028392,4.030352 L2.027896,4.033582 L2.027371,4.036808 L2.026819,4.040029 L2.026238,4.043245 L2.025629,4.046455 L2.024993,4.049661 L2.024328,4.052860 L2.023636,4.056054 L2.022915,4.059242 L2.022167,4.062423 L2.021392,4.065597 L2.020588,4.068765 L2.019757,4.071926 L2.018899,4.075079 L2.018013,4.078224 L2.017100,4.081362 L2.016159,4.084492 L2.015192,4.087613 L2.014197,4.090726 L2.013175,4.093830 L2.012126,4.096925 L2.011050,4.100011 L2.009947,4.103087 L2.008817,4.106153 L2.007661,4.109210 L2.006478,4.112256 L2.005269,4.115292 L2.004033,4.118318 L2.002771,4.121332 L2.001483,4.124335 L2.000168,4.127327 L1.998828,4.130308 L1.997461,4.133276 L1.996069,4.136233 L1.994651,4.139177 L1.993208,4.142109 L1.991739,4.145028 L1.990244,4.147934 L1.988725,4.150827 L1.987180,4.153707 L1.985610,4.156573 L1.984015,4.159426 L1.982396,4.162264 L1.980751,4.165088 L1.979083,4.167898 L1.977389,4.170693 L1.975672,4.173473 L1.973930,4.176238 L1.972165,4.178988 L1.970375,4.181723 L1.968562,4.184441 L1.966725,4.187144 L1.964864,4.189831 L1.962980,4.192501 L1.961073,4.195155 L1.959143,4.197792 L1.957190,4.200412 L1.955215,4.203015 L1.953216,4.205601 L1.951195,4.208169 L1.949152,4.210720 L1.947087,4.213253 L1.945000,4.215767 L1.942891,4.218263 L1.940760,4.220741 L1.938608,4.223200 L1.936434,4.225641 L1.934239,4.228062 L1.932024,4.230464 L1.929787,4.232846 L1.927530,4.235209 L1.925252,4.237553 L1.922954,4.239876 L1.920635,4.242179 L1.918297,4.244462 L1.915939,4.246725 L1.913561,4.248966 L1.911164,4.251188 L1.908748,4.253388 L1.906312,4.255566 L1.903858,4.257724 L1.901385,4.259860 L1.898893,4.261975 L1.896383,4.264067 L1.893855,4.266138 L1.891309,4.268187 L1.888745,4.270213 L1.886163,4.272217 L1.883565,4.274199 L1.880949,4.276157 L1.878316,4.278093 L1.875666,4.280006 L1.873000,4.281895 L1.870317,4.283762 L1.867619,4.285605 L1.864904,4.287424 L1.862173,4.289219 L1.859427,4.290991 L1.856666,4.292739 L1.853890,4.294462 L1.851098,4.296162 L1.848292,4.297836 L1.845471,4.299487 L1.842637,4.301113 L1.839788,4.302714 L1.836925,4.304290 L1.834049,4.305841 L1.831159,4.307367 L1.828256,4.308867 L1.825340,4.310343 L1.822411,4.311793 L1.819470,4.313217 L1.816516,4.314616 L1.813551,4.315988 L1.810573,4.317335 L1.807584,4.318656 L1.804584,4.319951 L1.801572,4.321220 L1.798550,4.322462 L1.795516,4.323678 L1.792473,4.324868 L1.789419,4.326031 L1.786354,4.327167 L1.783281,4.328276 L1.780197,4.329359 L1.777105,4.330415 L1.774003,4.331444 L1.770892,4.332445 L1.767773,4.333420 L1.764645,4.334367 L1.761510,4.335287 L1.758366,4.336180 L1.755215,4.337045 L1.752056,4.337883 L1.748890,4.338693 L1.745717,4.339476 L1.742538,4.340231 L1.739352,4.340958 L1.736159,4.341657 L1.732961,4.342329 L1.729757,4.342973 L1.726548,4.343588 L1.723333,4.344176 L1.720113,4.344736 L1.716889,4.345267 L1.713660,4.345771 L1.710427,4.346246 L1.707190,4.346693 L1.703949,4.347112 L1.700704,4.347503 L1.697456,4.347865 L1.694206,4.348199 L1.690952,4.348505 L1.687696,4.348782 L1.684437,4.349031 L1.681177,4.349252 L1.677915,4.349444 L1.674651,4.349608 L1.671386,4.349743 L1.668119,4.349850 L1.664852,4.349928 L1.661585,4.349978 L1.658317,4.349999 L1.655049,4.349992 L1.651781,4.349956 L1.648514,4.349892 L1.645247,4.349800 L1.641982,4.349679 L1.638717,4.349529 L1.635454,4.349351 L1.632193,4.349145 L1.628933,4.348910 L1.625676,4.348647 L1.622421,4.348356 L1.619169,4.348036 L1.615919,4.347688 L1.612673,4.347311 L1.609430,4.346906 L1.606191,4.346473 L1.602956,4.346012 L1.599725,4.345523 L1.596498,4.345005 L1.593276,4.344459 L1.590059,4.343886 L1.586847,4.343284 L1.583640,4.342654 L1.580439,4.341997 L1.577244,4.341311 L1.574055,4.340598 L1.570872,4.339857 L1.567696,4.339088 L1.564526,4.338292 L1.561364,4.337468 L1.558209,4.336616 L1.555061,4.335737 L1.551922,4.334831 L1.548790,4.333897 L1.545666,4.332936 L1.542551,4.331948 L1.539445,4.330933 L1.536348,4.329890 L1.533260,4.328821 L1.530181,4.327725 L1.527112,4.326602 L1.524053,4.325452 L1.521004,4.324276 L1.517966,4.323074 L1.514938,4.321844 L1.511921,4.320589 L1.508915,4.319307 L1.505920,4.317999 L1.502936,4.316665 L1.499965,4.315305 L1.497005,4.313920 L1.494058,4.312508 L1.491123,4.311071 L1.488201,4.309608 L1.485291,4.308120 L1.482395,4.306607 L1.479512,4.305068 L1.476642,4.303505 L1.473786,4.301916 L1.470944,4.300303 L1.468116,4.298665 L1.465303,4.297002 L1.462504,4.295315 L1.459720,4.293604 L1.456951,4.291868 L1.454198,4.290108 L1.451459,4.288325 L1.448737,4.286517 L1.446030,4.284686 L1.443339,4.282831 L1.440665,4.280953 L1.438007,4.279052 L1.435366,4.277128 L1.432741,4.275181 L1.430134,4.273211 L1.427544,4.271218 L1.424971,4.269203 L1.422416,4.267165 L1.419879,4.265106 L1.417360,4.263024 L1.414859,4.260920 L1.412377,4.258795 L1.409913,4.256648 L1.407468,4.254480 L1.405042,4.252290 L1.402635,4.250080 L1.400247,4.247848 L1.397879,4.245596 L1.395531,4.243323 L1.393203,4.241030 L1.390895,4.238717 L1.388607,4.236384 L1.386339,4.234030 L1.384092,4.231658 L1.381866,4.229265 L1.379660,4.226854 L1.377476,4.224423 L1.375313,4.221973 L1.373172,4.219505 L1.371052,4.217018 L1.368954,4.214512 L1.366877,4.211988 L1.364823,4.209447 L1.362791,4.206887 L1.360782,4.204310 L1.358795,4.201716 L1.356830,4.199104 L1.354889,4.196476 L1.352970,4.193830 L1.351075,4.191168 L1.349203,4.188490 L1.347354,4.185795 L1.345529,4.183084 L1.343727,4.180357 L1.341950,4.177615 L1.340196,4.174858 L1.338466,4.172085 L1.336761,4.169297 L1.335080,4.166495 L1.333423,4.163678 L1.331792,4.160847 L1.330184,4.158001 L1.328602,4.155142 L1.327045,4.152269 L1.325512,4.149382 L1.324005,4.146483 L1.322524,4.143570 L1.321067,4.140645 L1.319637,4.137706 L1.318232,4.134756 L1.316852,4.131793 L1.315499,4.128819 L1.314171,4.125833 L1.312870,4.122835 L1.311595,4.119826 L1.310346,4.116806 L1.309123,4.113776 L1.307927,4.110734 L1.306758,4.107683 L1.305615,4.104621 L1.304498,4.101550 L1.303409,4.098469 L1.302347,4.095379 L1.301311,4.092279 L1.300302,4.089171 L1.299321,4.086054 L1.298367,4.082928 L1.297440,4.079794 L1.296541,4.076653 L1.295668,4.073503 L1.294824,4.070346 L1.294007,4.067182 L1.293217,4.064011 L1.292455,4.060833 L1.291721,4.057649 L1.291015,4.054458 L1.290336,4.051261 L1.289686,4.048059 L1.289063,4.044851 L1.288468,4.041637 L1.287901,4.038419 L1.287363,4.035196 L1.286852,4.031968 L1.286370,4.028736 L1.285916,4.025499 L1.285490,4.022259 L1.285092,4.019016 L1.284723,4.015769 L1.284382,4.012519 L1.284069,4.009266 L1.283784,4.006010 L1.283528,4.002752 L1.283301,3.999492 L1.283101,3.996230 L1.282931,3.992967 L1.282788,3.989702 L1.282674,3.986436 L1.282589,3.983169 L1.282532,3.979902 L1.282504,3.976634 L1.282504,3.973366 L1.282532,3.970098 L1.282589,3.966831 L1.282674,3.963564 L1.282788,3.960298 L1.282931,3.957033 L1.283101,3.953770 L1.283301,3.950508 L1.283528,3.947248 L1.283784,3.943990 L1.284069,3.940734 L1.284382,3.937481 L1.284723,3.934231 L1.285092,3.930984 L1.285490,3.927741 L1.285916,3.924501 L1.286370,3.921264 L1.286852,3.918032 L1.287363,3.914804 L1.287901,3.911581 L1.288468,3.908363 L1.289063,3.905149 L1.289686,3.901941 L1.290336,3.898739 L1.291015,3.895542 L1.291721,3.892351 L1.292455,3.889167 L1.293217,3.885989 L1.294007,3.882818 L1.294824,3.879654 L1.295668,3.876497 L1.296541,3.873347 L1.297440,3.870206 L1.298367,3.867072 L1.299321,3.863946 L1.300302,3.860829 L1.301311,3.857721 L1.302347,3.854621 L1.303409,3.851531 L1.304498,3.848450 L1.305615,3.845379 L1.306758,3.842317 L1.307927,3.839266 L1.309123,3.836224 L1.310346,3.833194 L1.311595,3.830174 L1.312870,3.827165 L1.314171,3.824167 L1.315499,3.821181 L1.316852,3.818207 L1.318232,3.815244 L1.319637,3.812294 L1.321067,3.809355 L1.322524,3.806430 L1.324005,3.803517 L1.325512,3.800618 L1.327045,3.797731 L1.328602,3.794858 L1.330184,3.791999 L1.331792,3.789153 L1.333423,3.786322 L1.335080,3.783505 L1.336761,3.780703 L1.338466,3.777915 L1.340196,3.775142 L1.341950,3.772385 L1.343727,3.769643 L1.345529,3.766916 L1.347354,3.764205 L1.349203,3.761510 L1.351075,3.758832 L1.352970,3.756170 L1.354889,3.753524 L1.356830,3.750896 L1.358795,3.748284 L1.360782,3.745690 L1.362791,3.743113 L1.364823,3.740553 L1.366877,3.738012 L1.368954,3.735488 L1.371052,3.732982 L1.373172,3.730495 L1.375313,3.728027 L1.377476,3.725577 L1.379660,3.723146 L1.381866,3.720735 L1.384092,3.718342 L1.386339,3.715970 L1.388607,3.713616 L1.390895,3.711283 L1.393203,3.708970 L1.395531,3.706677 L1.397879,3.704404 L1.400247,3.702152 L1.402635,3.699920 L1.405042,3.697710 L1.407468,3.695520 L1.409913,3.693352 L1.412377,3.691205 L1.414859,3.689080 L1.417360,3.686976 L1.419879,3.684894 L1.422416,3.682835 L1.424971,3.680797 L1.427544,3.678782 L1.430134,3.676789 L1.432741,3.674819 L1.435366,3.672872 L1.438007,3.670948 L1.440665,3.669047 L1.443339,3.667169 L1.446030,3.665314 L1.448737,3.663483 L1.451459,3.661675 L1.454198,3.659892 L1.456951,3.658132 L1.459720,3.656396 L1.462504,3.654685 L1.465303,3.652998 L1.468116,3.651335 L1.470944,3.649697 L1.473786,3.648084 L1.476642,3.646495 L1.479512,3.644932 L1.482395,3.643393 L1.485291,3.641880 L1.488201,3.640392 L1.491123,3.638929 L1.494058,3.637492 L1.497005,3.636080 L1.499965,3.634695 L1.502936,3.633335 L1.505920,3.632001 L1.508915,3.630693 L1.511921,3.629411 L1.514938,3.628156 L1.517966,3.626926 L1.521004,3.625724 L1.524053,3.624548 L1.527112,3.623398 L1.530181,3.622275 L1.533260,3.621179 L1.536348,3.620110 L1.539445,3.619067 L1.542551,3.618052 L1.545666,3.617064 L1.548790,3.616103 L1.551922,3.615169 L1.555061,3.614263 L1.558209,3.613384 L1.561364,3.612532 L1.564526,3.611708 L1.567696,3.610912 L1.570872,3.610143 L1.574055,3.609402 L1.577244,3.608689 L1.580439,3.608003 L1.583640,3.607346 L1.586847,3.606716 L1.590059,3.606114 L1.593276,3.605541 L1.596498,3.604995 L1.599725,3.604477 L1.602956,3.603988 L1.606191,3.603527 L1.609430,3.603094 L1.612673,3.602689 L1.615919,3.602312 L1.619169,3.601964 L1.622421,3.601644 L1.625676,3.601353 L1.628933,3.601090 L1.632193,3.600855 L1.635454,3.600649 L1.638717,3.600471 L1.641982,3.600321 L1.645247,3.600200 L1.648514,3.600108 L1.651781,3.600044 L1.655049,3.600008 L1.658317,3.600001 L1.661585,3.600022 L1.664852,3.600072 L1.668119,3.600150 L1.671386,3.600257 L1.674651,3.600392 L1.677915,3.600556 L1.681177,3.600748 L1.684437,3.600969 L1.687696,3.601218 L1.690952,3.601495 L1.694206,3.601801 L1.697456,3.602135 L1.700704,3.602497 L1.703949,3.602888 L1.707190,3.603307 L1.710427,3.603754 L1.713660,3.604229 L1.716889,3.604733 L1.720113,3.605264 L1.723333,3.605824 L1.726548,3.606412 L1.729757,3.607027 L1.732961,3.607671 L1.736159,3.608343 L1.739352,3.609042 L1.742538,3.609769 L1.745717,3.610524 L1.748890,3.611307 L1.752056,3.612117 L1.755215,3.612955 L1.758366,3.613820 L1.761510,3.614713 L1.764645,3.615633 L1.767773,3.616580 L1.770892,3.617555 L1.774003,3.618556 L1.777105,3.619585 L1.780197,3.620641 L1.783281,3.621724 L1.786354,3.622833 L1.789419,3.623969 L1.792473,3.625132 L1.795516,3.626322 L1.798550,3.627538 L1.801572,3.628780 L1.804584,3.630049 L1.807584,3.631344 L1.810573,3.632665 L1.813551,3.634012 L1.816516,3.635384 L1.819470,3.636783 L1.822411,3.638207 L1.825340,3.639657 L1.828256,3.641133 L1.831159,3.642633 L1.834049,3.644159 L1.836925,3.645710 L1.839788,3.647286 L1.842637,3.648887 L1.845471,3.650513 L1.848292,3.652164 L1.851098,3.653838 L1.853890,3.655538 L1.856666,3.657261 L1.859427,3.659009 L1.862173,3.660781 L1.864904,3.662576 L1.867619,3.664395 L1.870317,3.666238 L1.873000,3.668105 L1.875666,3.669994 L1.878316,3.671907 L1.880949,3.673843 L1.883565,3.675801 L1.886163,3.677783 L1.888745,3.679787 L1.891309,3.681813 L1.893855,3.683862 L1.896383,3.685933 L1.898893,3.688025 L1.901385,3.690140 L1.903858,3.692276 L1.906312,3.694434 L1.908748,3.696612 L1.911164,3.698812 L1.913561,3.701034 L1.915939,3.703275 L1.918297,3.705538 L1.920635,3.707821 L1.922954,3.710124 L1.925252,3.712447 L1.927530,3.714791 L1.929787,3.717154 L1.932024,3.719536 L1.934239,3.721938 L1.936434,3.724359 L1.938608,3.726800 L1.940760,3.729259 L1.942891,3.731737 L1.945000,3.734233 L1.947087,3.736747 L1.949152,3.739280 L1.951195,3.741831 L1.953216,3.744399 L1.955215,3.746985 L1.957190,3.749588 L1.959143,3.752208 L1.961073,3.754845 L1.962980,3.757499 L1.964864,3.760169 L1.966725,3.762856 L1.968562,3.765559 L1.970375,3.768277 L1.972165,3.771012 L1.973930,3.773762 L1.975672,3.776527 L1.977389,3.779307 L1.979083,3.782102 L1.980751,3.784912 L1.982396,3.787736 L1.984015,3.790574 L1.985610,3.793427 L1.987180,3.796293 L1.988725,3.799173 L1.990244,3.802066 L1.991739,3.804972 L1.993208,3.807891 L1.994651,3.810823 L1.996069,3.813767 L1.997461,3.816724 L1.998828,3.819692 L2.000168,3.822673 L2.001483,3.825665 L2.002771,3.828668 L2.004033,3.831682 L2.005269,3.834708 L2.006478,3.837744 L2.007661,3.840790 L2.008817,3.843847 L2.009947,3.846913 L2.011050,3.849989 L2.012126,3.853075 L2.013175,3.856170 L2.014197,3.859274 L2.015192,3.862387 L2.016159,3.865508 L2.017100,3.868638 L2.018013,3.871776 L2.018899,3.874921 L2.019757,3.878074 L2.020588,3.881235 L2.021392,3.884403 L2.022167,3.887577 L2.022915,3.890758 L2.023636,3.893946 L2.024328,3.897140 L2.024993,3.900339 L2.025629,3.903545 L2.026238,3.906755 L2.026819,3.909971 L2.027371,3.913192 L2.027896,3.916418 L2.028392,3.919648 L2.028861,3.922882 L2.029301,3.926120 L2.029713,3.929362 L2.030096,3.932607 L2.030451,3.935856 L2.030778,3.939108 L2.031077,3.942362 L2.031347,3.945619 L2.031589,3.948878 L2.031802,3.952139 L2.031987,3.955401 L2.032144,3.958665 L2.032272,3.961931 L2.032372,3.965197 L2.032443,3.968464 L2.032486,3.971732 L2.032500,3.975000 M5.217500,3.975000 L5.217486,3.978268 L5.217443,3.981536 L5.217372,3.984803 L5.217272,3.988069 L5.217144,3.991335 L5.216987,3.994599 L5.216802,3.997861 L5.216589,4.001122 L5.216347,4.004381 L5.216077,4.007638 L5.215778,4.010892 L5.215451,4.014144 L5.215096,4.017393 L5.214713,4.020638 L5.214301,4.023880 L5.213861,4.027118 L5.213392,4.030352 L5.212896,4.033582 L5.212371,4.036808 L5.211819,4.040029 L5.211238,4.043245 L5.210629,4.046455 L5.209993,4.049661 L5.209328,4.052860 L5.208636,4.056054 L5.207915,4.059242 L5.207167,4.062423 L5.206392,4.065597 L5.205588,4.068765 L5.204757,4.071926 L5.203899,4.075079 L5.203013,4.078224 L5.202100,4.081362 L5.201159,4.084492 L5.200192,4.087613 L5.199197,4.090726 L5.198175,4.093830 L5.197126,4.096925 L5.196050,4.100011 L5.194947,4.103087 L5.193817,4.106153 L5.192661,4.109210 L5.191478,4.112256 L5.190269,4.115292 L5.189033,4.118318 L5.187771,4.121332 L5.186483,4.124335 L5.185168,4.127327 L5.183828,4.130308 L5.182461,4.133276 L5.181069,4.136233 L5.179651,4.139177 L5.178208,4.142109 L5.176739,4.145028 L5.175244,4.147934 L5.173725,4.150827 L5.172180,4.153707 L5.170610,4.156573 L5.169015,4.159426 L5.167396,4.162264 L5.165751,4.165088 L5.164083,4.167898 L5.162389,4.170693 L5.160672,4.173473 L5.158930,4.176238 L5.157165,4.178988 L5.155375,4.181723 L5.153562,4.184441 L5.151725,4.187144 L5.149864,4.189831 L5.147980,4.192501 L5.146073,4.195155 L5.144143,4.197792 L5.142190,4.200412 L5.140215,4.203015 L5.138216,4.205601 L5.136195,4.208169 L5.134152,4.210720 L5.132087,4.213253 L5.130000,4.215767 L5.127891,4.218263 L5.125760,4.220741 L5.123608,4.223200 L5.121434,4.225641 L5.119239,4.228062 L5.117024,4.230464 L5.114787,4.232846 L5.112530,4.235209 L5.110252,4.237553 L5.107954,4.239876 L5.105635,4.242179 L5.103297,4.244462 L5.100939,4.246725 L5.098561,4.248966 L5.096164,4.251188 L5.093748,4.253388 L5.091312,4.255566 L5.088858,4.257724 L5.086385,4.259860 L5.083893,4.261975 L5.081383,4.264067 L5.078855,4.266138 L5.076309,4.268187 L5.073745,4.270213 L5.071163,4.272217 L5.068565,4.274199 L5.065949,4.276157 L5.063316,4.278093 L5.060666,4.280006 L5.058000,4.281895 L5.055317,4.283762 L5.052619,4.285605 L5.049904,4.287424 L5.047173,4.289219 L5.044427,4.290991 L5.041666,4.292739 L5.038890,4.294462 L5.036098,4.296162 L5.033292,4.297836 L5.030471,4.299487 L5.027637,4.301113 L5.024788,4.302714 L5.021925,4.304290 L5.019049,4.305841 L5.016159,4.307367 L5.013256,4.308867 L5.010340,4.310343 L5.007411,4.311793 L5.004470,4.313217 L5.001516,4.314616 L4.998551,4.315988 L4.995573,4.317335 L4.992584,4.318656 L4.989584,4.319951 L4.986572,4.321220 L4.983550,4.322462 L4.980516,4.323678 L4.977473,4.324868 L4.974419,4.326031 L4.971354,4.327167 L4.968281,4.328276 L4.965197,4.329359 L4.962105,4.330415 L4.959003,4.331444 L4.955892,4.332445 L4.952773,4.333420 L4.949645,4.334367 L4.946510,4.335287 L4.943366,4.336180 L4.940215,4.337045 L4.937056,4.337883 L4.933890,4.338693 L4.930717,4.339476 L4.927538,4.340231 L4.924352,4.340958 L4.921159,4.341657 L4.917961,4.342329 L4.914757,4.342973 L4.911548,4.343588 L4.908333,4.344176 L4.905113,4.344736 L4.901889,4.345267 L4.898660,4.345771 L4.895427,4.346246 L4.892190,4.346693 L4.888949,4.347112 L4.885704,4.347503 L4.882456,4.347865 L4.879206,4.348199 L4.875952,4.348505 L4.872696,4.348782 L4.869437,4.349031 L4.866177,4.349252 L4.862915,4.349444 L4.859651,4.349608 L4.856386,4.349743 L4.853119,4.349850 L4.849852,4.349928 L4.846585,4.349978 L4.843317,4.349999 L4.840049,4.349992 L4.836781,4.349956 L4.833514,4.349892 L4.830247,4.349800 L4.826982,4.349679 L4.823717,4.349529 L4.820454,4.349351 L4.817193,4.349145 L4.813933,4.348910 L4.810676,4.348647 L4.807421,4.348356 L4.804169,4.348036 L4.800919,4.347688 L4.797673,4.347311 L4.794430,4.346906 L4.791191,4.346473 L4.787956,4.346012 L4.784725,4.345523 L4.781498,4.345005 L4.778276,4.344459 L4.775059,4.343886 L4.771847,4.343284 L4.768640,4.342654 L4.765439,4.341997 L4.762244,4.341311 L4.759055,4.340598 L4.755872,4.339857 L4.752696,4.339088 L4.749526,4.338292 L4.746364,4.337468 L4.743209,4.336616 L4.740061,4.335737 L4.736922,4.334831 L4.733790,4.333897 L4.730666,4.332936 L4.727551,4.331948 L4.724445,4.330933 L4.721348,4.329890 L4.718260,4.328821 L4.715181,4.327725 L4.712112,4.326602 L4.709053,4.325452 L4.706004,4.324276 L4.702966,4.323074 L4.699938,4.321844 L4.696921,4.320589 L4.693915,4.319307 L4.690920,4.317999 L4.687936,4.316665 L4.684965,4.315305 L4.682005,4.313920 L4.679058,4.312508 L4.676123,4.311071 L4.673201,4.309608 L4.670291,4.308120 L4.667395,4.306607 L4.664512,4.305068 L4.661642,4.303505 L4.658786,4.301916 L4.655944,4.300303 L4.653116,4.298665 L4.650303,4.297002 L4.647504,4.295315 L4.644720,4.293604 L4.641951,4.291868 L4.639198,4.290108 L4.636459,4.288325 L4.633737,4.286517 L4.631030,4.284686 L4.628339,4.282831 L4.625665,4.280953 L4.623007,4.279052 L4.620366,4.277128 L4.617741,4.275181 L4.615134,4.273211 L4.612544,4.271218 L4.609971,4.269203 L4.607416,4.267165 L4.604879,4.265106 L4.602360,4.263024 L4.599859,4.260920 L4.597377,4.258795 L4.594913,4.256648 L4.592468,4.254480 L4.590042,4.252290 L4.587635,4.250080 L4.585247,4.247848 L4.582879,4.245596 L4.580531,4.243323 L4.578203,4.241030 L4.575895,4.238717 L4.573607,4.236384 L4.571339,4.234030 L4.569092,4.231658 L4.566866,4.229265 L4.564660,4.226854 L4.562476,4.224423 L4.560313,4.221973 L4.558172,4.219505 L4.556052,4.217018 L4.553954,4.214512 L4.551877,4.211988 L4.549823,4.209447 L4.547791,4.206887 L4.545782,4.204310 L4.543795,4.201716 L4.541830,4.199104 L4.539889,4.196476 L4.537970,4.193830 L4.536075,4.191168 L4.534203,4.188490 L4.532354,4.185795 L4.530529,4.183084 L4.528727,4.180357 L4.526950,4.177615 L4.525196,4.174858 L4.523466,4.172085 L4.521761,4.169297 L4.520080,4.166495 L4.518423,4.163678 L4.516792,4.160847 L4.515184,4.158001 L4.513602,4.155142 L4.512045,4.152269 L4.510512,4.149382 L4.509005,4.146483 L4.507524,4.143570 L4.506067,4.140645 L4.504637,4.137706 L4.503232,4.134756 L4.501852,4.131793 L4.500499,4.128819 L4.499171,4.125833 L4.497870,4.122835 L4.496595,4.119826 L4.495346,4.116806 L4.494123,4.113776 L4.492927,4.110734 L4.491758,4.107683 L4.490615,4.104621 L4.489498,4.101550 L4.488409,4.098469 L4.487347,4.095379 L4.486311,4.092279 L4.485302,4.089171 L4.484321,4.086054 L4.483367,4.082928 L4.482440,4.079794 L4.481541,4.076653 L4.480668,4.073503 L4.479824,4.070346 L4.479007,4.067182 L4.478217,4.064011 L4.477455,4.060833 L4.476721,4.057649 L4.476015,4.054458 L4.475336,4.051261 L4.474686,4.048059 L4.474063,4.044851 L4.473468,4.041637 L4.472901,4.038419 L4.472363,4.035196 L4.471852,4.031968 L4.471370,4.028736 L4.470916,4.025499 L4.470490,4.022259 L4.470092,4.019016 L4.469723,4.015769 L4.469382,4.012519 L4.469069,4.009266 L4.468784,4.006010 L4.468528,4.002752 L4.468301,3.999492 L4.468101,3.996230 L4.467931,3.992967 L4.467788,3.989702 L4.467674,3.986436 L4.467589,3.983169 L4.467532,3.979902 L4.467504,3.976634 L4.467504,3.973366 L4.467532,3.970098 L4.467589,3.966831 L4.467674,3.963564 L4.467788,3.960298 L4.467931,3.957033 L4.468101,3.953770 L4.468301,3.950508 L4.468528,3.947248 L4.468784,3.943990 L4.469069,3.940734 L4.469382,3.937481 L4.469723,3.934231 L4.470092,3.930984 L4.470490,3.927741 L4.470916,3.924501 L4.471370,3.921264 L4.471852,3.918032 L4.472363,3.914804 L4.472901,3.911581 L4.473468,3.908363 L4.474063,3.905149 L4.474686,3.901941 L4.475336,3.898739 L4.476015,3.895542 L4.476721,3.892351 L4.477455,3.889167 L4.478217,3.885989 L4.479007,3.882818 L4.479824,3.879654 L4.480668,3.876497 L4.481541,3.873347 L4.482440,3.870206 L4.483367,3.867072 L4.484321,3.863946 L4.485302,3.860829 L4.486311,3.857721 L4.487347,3.854621 L4.488409,3.851531 L4.489498,3.848450 L4.490615,3.845379 L4.491758,3.842317 L4.492927,3.839266 L4.494123,3.836224 L4.495346,3.833194 L4.496595,3.830174 L4.497870,3.827165 L4.499171,3.824167 L4.500499,3.821181 L4.501852,3.818207 L4.503232,3.815244 L4.504637,3.812294 L4.506067,3.809355 L4.507524,3.806430 L4.509005,3.803517 L4.510512,3.800618 L4.512045,3.797731 L4.513602,3.794858 L4.515184,3.791999 L4.516792,3.789153 L4.518423,3.786322 L4.520080,3.783505 L4.521761,3.780703 L4.523466,3.777915 L4.525196,3.775142 L4.526950,3.772385 L4.528727,3.769643 L4.530529,3.766916 L4.532354,3.764205 L4.534203,3.761510 L4.536075,3.758832 L4.537970,3.756170 L4.539889,3.753524 L4.541830,3.750896 L4.543795,3.748284 L4.545782,3.745690 L4.547791,3.743113 L4.549823,3.740553 L4.551877,3.738012 L4.553954,3.735488 L4.556052,3.732982 L4.558172,3.730495 L4.560313,3.728027 L4.562476,3.725577 L4.564660,3.723146 L4.566866,3.720735 L4.569092,3.718342 L4.571339,3.715970 L4.573607,3.713616 L4.575895,3.711283 L4.578203,3.708970 L4.580531,3.706677 L4.582879,3.704404 L4.585247,3.702152 L4.587635,3.699920 L4.590042,3.697710 L4.592468,3.695520 L4.594913,3.693352 L4.597377,3.691205 L4.599859,3.689080 L4.602360,3.686976 L4.604879,3.684894 L4.607416,3.682835 L4.609971,3.680797 L4.612544,3.678782 L4.615134,3.676789 L4.617741,3.674819 L4.620366,3.672872 L4.623007,3.670948 L4.625665,3.669047 L4.628339,3.667169 L4.631030,3.665314 L4.633737,3.663483 L4.636459,3.661675 L4.639198,3.659892 L4.641951,3.658132 L4.644720,3.656396 L4.647504,3.654685 L4.650303,3.652998 L4.653116,3.651335 L4.655944,3.649697 L4.658786,3.648084 L4.661642,3.646495 L4.664512,3.644932 L4.667395,3.643393 L4.670291,3.641880 L4.673201,3.640392 L4.676123,3.638929 L4.679058,3.637492 L4.682005,3.636080 L4.684965,3.634695 L4.687936,3.633335 L4.690920,3.632001 L4.693915,3.630693 L4.696921,3.629411 L4.699938,3.628156 L4.702966,3.626926 L4.706004,3.625724 L4.709053,3.624548 L4.712112,3.623398 L4.715181,3.622275 L4.718260,3.621179 L4.721348,3.620110 L4.724445,3.619067 L4.727551,3.618052 L4.730666,3.617064 L4.733790,3.616103 L4.736922,3.615169 L4.740061,3.614263 L4.743209,3.613384 L4.746364,3.612532 L4.749526,3.611708 L4.752696,3.610912 L4.755872,3.610143 L4.759055,3.609402 L4.762244,3.608689 L4.765439,3.608003 L4.768640,3.607346 L4.771847,3.606716 L4.775059,3.606114 L4.778276,3.605541 L4.781498,3.604995 L4.784725,3.604477 L4.787956,3.603988 L4.791191,3.603527 L4.794430,3.603094 L4.797673,3.602689 L4.800919,3.602312 L4.804169,3.601964 L4.807421,3.601644 L4.810676,3.601353 L4.813933,3.601090 L4.817193,3.600855 L4.820454,3.600649 L4.823717,3.600471 L4.826982,3.600321 L4.830247,3.600200 L4.833514,3.600108 L4.836781,3.600044 L4.840049,3.600008 L4.843317,3.600001 L4.846585,3.600022 L4.849852,3.600072 L4.853119,3.600150 L4.856386,3.600257 L4.859651,3.600392 L4.862915,3.600556 L4.866177,3.600748 L4.869437,3.600969 L4.872696,3.601218 L4.875952,3.601495 L4.879206,3.601801 L4.882456,3.602135 L4.885704,3.602497 L4.888949,3.602888 L4.892190,3.603307 L4.895427,3.603754 L4.898660,3.604229 L4.901889,3.604733 L4.905113,3.605264 L4.908333,3.605824 L4.911548,3.606412 L4.914757,3.607027 L4.917961,3.607671 L4.921159,3.608343 L4.924352,3.609042 L4.927538,3.609769 L4.930717,3.610524 L4.933890,3.611307 L4.937056,3.612117 L4.940215,3.612955 L4.943366,3.613820 L4.946510,3.614713 L4.949645,3.615633 L4.952773,3.616580 L4.955892,3.617555 L4.959003,3.618556 L4.962105,3.619585 L4.965197,3.620641 L4.968281,3.621724 L4.971354,3.622833 L4.974419,3.623969 L4.977473,3.625132 L4.980516,3.626322 L4.983550,3.627538 L4.986572,3.628780 L4.989584,3.630049 L4.992584,3.631344 L4.995573,3.632665 L4.998551,3.634012 L5.001516,3.635384 L5.004470,3.636783 L5.007411,3.638207 L5.010340,3.639657 L5.013256,3.641133 L5.016159,3.642633 L5.019049,3.644159 L5.021925,3.645710 L5.024788,3.647286 L5.027637,3.648887 L5.030471,3.650513 L5.033292,3.652164 L5.036098,3.653838 L5.038890,3.655538 L5.041666,3.657261 L5.044427,3.659009 L5.047173,3.660781 L5.049904,3.662576 L5.052619,3.664395 L5.055317,3.666238 L5.058000,3.668105 L5.060666,3.669994 L5.063316,3.671907 L5.065949,3.673843 L5.068565,3.675801 L5.071163,3.677783 L5.073745,3.679787 L5.076309,3.681813 L5.078855,3.683862 L5.081383,3.685933 L5.083893,3.688025 L5.086385,3.690140 L5.088858,3.692276 L5.091312,3.694434 L5.093748,3.696612 L5.096164,3.698812 L5.098561,3.701034 L5.100939,3.703275 L5.103297,3.705538 L5.105635,3.707821 L5.107954,3.710124 L5.110252,3.712447 L5.112530,3.714791 L5.114787,3.717154 L5.117024,3.719536 L5.119239,3.721938 L5.121434,3.724359 L5.123608,3.726800 L5.125760,3.729259 L5.127891,3.731737 L5.130000,3.734233 L5.132087,3.736747 L5.134152,3.739280 L5.136195,3.741831 L5.138216,3.744399 L5.140215,3.746985 L5.142190,3.749588 L5.144143,3.752208 L5.146073,3.754845 L5.147980,3.757499 L5.149864,3.760169 L5.151725,3.762856 L5.153562,3.765559 L5.155375,3.768277 L5.157165,3.771012 L5.158930,3.773762 L5.160672,3.776527 L5.162389,3.779307 L5.164083,3.782102 L5.165751,3.784912 L5.167396,3.787736 L5.169015,3.790574 L5.170610,3.793427 L5.172180,3.796293 L5.173725,3.799173 L5.175244,3.802066 L5.176739,3.804972 L5.178208,3.807891 L5.179651,3.810823 L5.181069,3.813767 L5.182461,3.816724 L5.183828,3.819692 L5.185168,3.822673 L5.186483,3.825665 L5.187771,3.828668 L5.189033,3.831682 L5.190269,3.834708 L5.191478,3.837744 L5.192661,3.840790 L5.193817,3.843847 L5.194947,3.846913 L5.196050,3.849989 L5.197126,3.853075 L5.198175,3.856170 L5.199197,3.859274 L5.200192,3.862387 L5.201159,3.865508 L5.202100,3.868638 L5.203013,3.871776 L5.203899,3.874921 L5.204757,3.878074 L5.205588,3.881235 L5.206392,3.884403 L5.207167,3.887577 L5.207915,3.890758 L5.208636,3.893946 L5.209328,3.897140 L5.209993,3.900339 L5.210629,3.903545 L5.211238,3.906755 L5.211819,3.909971 L5.212371,3.913192 L5.212896,3.916418 L5.213392,3.919648 L5.213861,3.922882 L5.214301,3.926120 L5.214713,3.929362 L5.215096,3.932607 L5.215451,3.935856 L5.215778,3.939108 L5.216077,3.942362 L5.216347,3.945619 L5.216589,3.948878 L5.216802,3.952139 L5.216987,3.955401 L5.217144,3.958665 L5.217272,3.961931 L5.217372,3.965197 L5.217443,3.968464 L5.217486,3.971732 L5.217500,3.975000" />

</svg>
