<!DOCTYPE svg PUBLIC "-//W3C//DTD SVG 1.1//EN" "http://www.w3.org/Graphics/SVG/1.1/DTD/svg11.dtd">
<svg version="1.1" xmlns="http://www.w3.org/2000/svg" xmlns:xlink="http://www.w3.org/1999/xlink" xml:space="preserve" width="8.600000in" height="6.500000in" viewBox="0.000000 0.000000 8.600000 6.500000">
<!-- handle_theta0=0.341184, theta1=1.229612 -->

  <path stroke="black" fill="none" stroke-width=".01" d=" M6.253770,4.316548 L6.214857,4.420375 L6.172357,4.522787 L6.126320,4.623658 L6.076803,4.722868 L6.023866,4.820295 L5.967572,4.915822 L5.907989,5.009333 L5.845190,5.100715 L5.779251,5.189857 L5.710251,5.276653 L5.638274,5.360996 L5.563407,5.442784 L5.485741,5.521920 L5.405369,5.598306 L5.322390,5.671850 L5.236902,5.742464 L5.149011,5.810061 L5.058821,5.874561 L4.966443,5.935885 L4.871987,5.993959 L4.775569,6.048713 L4.677305,6.100080 L4.577314,6.147998 L4.475716,6.192410 L4.372636,6.233261 L4.268197,6.270502 L4.162526,6.304088 L4.055750,6.333978 L3.948000,6.360137 L3.839405,6.382532 L3.730097,6.401137 L3.620208,6.415928 L3.509871,6.426889 L3.399219,6.434005 L3.288387,6.437269 L3.177508,6.436676 L3.066718,6.432226 L2.956149,6.423926 L2.845935,6.411786 L2.736211,6.395819 L2.627108,6.376046 L2.518759,6.352490 L2.411294,6.325180 L2.304845,6.294148 L2.199539,6.259433 L2.095505,6.221077 L1.992867,6.179125 L1.891751,6.133629 L1.792278,6.084643 L1.694569,6.032228 L1.598743,5.976446 L1.504914,5.917364 L1.413197,5.855055 L1.323703,5.789594 L1.236540,5.721059 L1.151813,5.649535 L1.069625,5.575107 L0.990075,5.497865 L0.913260,5.417903 L0.839273,5.335318 L0.768203,5.250210 L0.700136,5.162681 L0.635154,5.072838 L0.573337,4.980789 L0.514758,4.886646 L0.459490,4.790522 L0.407598,4.692534 L0.359145,4.592801 L0.314191,4.491442 L0.272789,4.388582 L0.234989,4.284344 L0.200838,4.178854 L0.170377,4.072240 L0.143642,3.964631 L0.120666,3.856157 L0.101477,3.746950 L0.086098,3.637142 L0.074547,3.526865 L0.066839,3.416253 L0.062982,3.305440 L0.062982,3.194560 L0.066839,3.083747 L0.074547,2.973135 L0.086098,2.862858 L0.101477,2.753050 L0.120666,2.643843 L0.143642,2.535369 L0.170377,2.427760 L0.200838,2.321146 L0.234989,2.215656 L0.272789,2.111418 L0.314191,2.008558 L0.359145,1.907199 L0.407598,1.807466 L0.459490,1.709478 L0.514758,1.613354 L0.573337,1.519211 L0.635154,1.427162 L0.700136,1.337319 L0.768203,1.249790 L0.839273,1.164682 L0.913260,1.082097 L0.990075,1.002135 L1.069625,0.924893 L1.151813,0.850465 L1.236540,0.778941 L1.323703,0.710406 L1.413197,0.644945 L1.504914,0.582636 L1.598743,0.523554 L1.694569,0.467772 L1.792278,0.415357 L1.891751,0.366371 L1.992867,0.320875 L2.095505,0.278923 L2.199539,0.240567 L2.304845,0.205852 L2.411294,0.174820 L2.518759,0.147510 L2.627108,0.123954 L2.736211,0.104181 L2.845935,0.088214 L2.956149,0.076074 L3.066718,0.067774 L3.177508,0.063324 L3.288387,0.062731 L3.399219,0.065995 L3.509871,0.073111 L3.620208,0.084072 L3.730097,0.098863 L3.839405,0.117468 L3.948000,0.139863 L4.055750,0.166022 L4.162526,0.195912 L4.268197,0.229498 L4.372636,0.266739 L4.475716,0.307590 L4.577314,0.352002 L4.677305,0.399920 L4.775569,0.451287 L4.871987,0.506041 L4.966443,0.564115 L5.058821,0.625439 L5.149011,0.689939 L5.236902,0.757536 L5.322390,0.828150 L5.405369,0.901694 L5.485741,0.978080 L5.563407,1.057216 L5.638274,1.139004 L5.710251,1.223347 L5.779251,1.310143 L5.845190,1.399285 L5.907989,1.490667 L5.967572,1.584178 L6.023866,1.679705 L6.076803,1.777132 L6.126320,1.876342 L6.172357,1.977213 L6.214857,2.079625 L6.253770,2.183452 L6.283925,2.256063 L6.295343,2.278932 L6.307535,2.301398 L6.320485,2.323435 L6.334178,2.345019 L6.348599,2.366123 L6.363731,2.386724 L6.379555,2.406797 L6.396055,2.426320 L6.413210,2.445268 L6.431001,2.463621 L6.449408,2.481358 L6.468407,2.498456 L6.487979,2.514898 L6.508099,2.530662 L6.528745,2.545732 L6.549893,2.560090 L6.571517,2.573719 L6.593593,2.586603 L6.616096,2.598727 L6.638998,2.610078 L6.662274,2.620641 L6.685897,2.630405 L6.709838,2.639359 L6.734071,2.647491 L6.758567,2.654793 L6.783297,2.661256 L6.808233,2.666872 L6.833346,2.671636 L6.858607,2.675541 L6.883986,2.678583 L6.909454,2.680758 L6.934982,2.682064 L6.960539,2.682500 L8.367621,2.682587 L8.372736,2.682850 L8.377840,2.683286 L8.382925,2.683897 L8.387987,2.684681 L8.393018,2.685637 L8.398015,2.686765 L8.402970,2.688062 L8.407877,2.689528 L8.412732,2.691161 L8.417528,2.692958 L8.422260,2.694918 L8.426923,2.697039 L8.431510,2.699317 L8.436017,2.701751 L8.440438,2.704337 L8.444768,2.707073 L8.449002,2.709955 L8.453135,2.712979 L8.457163,2.716143 L8.461081,2.719443 L8.464883,2.722875 L8.468566,2.726434 L8.472125,2.730117 L8.475557,2.733919 L8.478857,2.737837 L8.482021,2.741865 L8.485045,2.745998 L8.487927,2.750232 L8.490663,2.754562 L8.493249,2.758983 L8.495683,2.763490 L8.497961,2.768077 L8.500082,2.772740 L8.502042,2.777472 L8.503839,2.782268 L8.505472,2.787123 L8.506938,2.792030 L8.508235,2.796985 L8.509363,2.801982 L8.510319,2.807013 L8.511103,2.812075 L8.511714,2.817160 L8.512150,2.822264 L8.512413,2.827379 L8.512500,2.832500 L8.512413,3.672621 L8.512150,3.677736 L8.511714,3.682840 L8.511103,3.687925 L8.510319,3.692987 L8.509363,3.698018 L8.508235,3.703015 L8.506938,3.707970 L8.505472,3.712877 L8.503839,3.717732 L8.502042,3.722528 L8.500082,3.727260 L8.497961,3.731923 L8.495683,3.736510 L8.493249,3.741017 L8.490663,3.745438 L8.487927,3.749768 L8.485045,3.754002 L8.482021,3.758135 L8.478857,3.762163 L8.475557,3.766081 L8.472125,3.769883 L8.468566,3.773566 L8.464883,3.777125 L8.461081,3.780557 L8.457163,3.783857 L8.453135,3.787021 L8.449002,3.790045 L8.444768,3.792927 L8.440438,3.795663 L8.436017,3.798249 L8.431510,3.800683 L8.426923,3.802961 L8.422260,3.805082 L8.417528,3.807042 L8.412732,3.808839 L8.407877,3.810472 L8.402970,3.811938 L8.398015,3.813235 L8.393018,3.814363 L8.387987,3.815319 L8.382925,3.816103 L8.377840,3.816714 L8.372736,3.817150 L8.367621,3.817413 L8.362500,3.817500 L6.934927,3.817937 L6.909345,3.819249 L6.883823,3.821434 L6.858390,3.824489 L6.833076,3.828411 L6.807911,3.833194 L6.782924,3.838835 L6.758144,3.845325 L6.733601,3.852658 L6.709322,3.860825 L6.685336,3.869816 L6.661671,3.879621 L6.638355,3.890228 L6.615414,3.901625 L6.592876,3.913800 L6.570768,3.926736 L6.549113,3.940420 L6.527939,3.954836 L6.507269,3.969966 L6.487128,3.985794 L6.467540,4.002300 L6.448526,4.019465 L6.430110,4.037269 L6.412312,4.055692 L6.395154,4.074712 L6.378655,4.094307 L6.362836,4.114454 L6.347713,4.135130 L6.333305,4.156309 L6.319629,4.177969 L6.306701,4.200082 L6.294535,4.222625 L6.283146,4.245570 L6.272548,4.268890 L6.262752,4.292558 L6.253770,4.316548 z" />
  <path stroke="black" fill="none" stroke-width=".01" d=" M8.285500,3.250000 L8.285295,3.261818 L8.284680,3.273621 L8.283655,3.285396 L8.282223,3.297128 L8.280384,3.308804 L8.278141,3.320408 L8.275497,3.331928 L8.272454,3.343349 L8.269017,3.354658 L8.265189,3.365841 L8.260976,3.376884 L8.256382,3.387774 L8.251413,3.398498 L8.246074,3.409043 L8.240373,3.419396 L8.234316,3.429546 L8.227910,3.439479 L8.221163,3.449183 L8.214084,3.458648 L8.206680,3.467861 L8.198961,3.476812 L8.190937,3.485490 L8.182615,3.493884 L8.174008,3.501984 L8.165124,3.509780 L8.155975,3.517263 L8.146573,3.524424 L8.136927,3.531255 L8.127050,3.537747 L8.116953,3.543892 L8.106650,3.549683 L8.096151,3.555112 L8.085471,3.560175 L8.074621,3.564863 L8.063615,3.569172 L8.052466,3.573096 L8.041188,3.576632 L8.029793,3.579773 L8.018297,3.582517 L8.006712,3.584861 L7.995053,3.586801 L7.983334,3.588335 L7.971568,3.589462 L7.959770,3.590179 L7.947955,3.590487 L7.936136,3.590385 L7.924328,3.589872 L7.912544,3.588950 L7.900800,3.587619 L7.889109,3.585882 L7.877485,3.583739 L7.865943,3.581195 L7.854496,3.578252 L7.843158,3.574913 L7.831942,3.571183 L7.820863,3.567065 L7.809934,3.562566 L7.799167,3.557690 L7.788576,3.552443 L7.778173,3.546832 L7.767972,3.540863 L7.757984,3.534544 L7.748221,3.527882 L7.738695,3.520885 L7.729418,3.513561 L7.720400,3.505920 L7.711653,3.497971 L7.703188,3.489723 L7.695013,3.481186 L7.687140,3.472370 L7.679578,3.463287 L7.672335,3.453947 L7.665421,3.444360 L7.658844,3.434540 L7.652612,3.424497 L7.646732,3.414244 L7.641211,3.403793 L7.636056,3.393157 L7.631274,3.382348 L7.626869,3.371380 L7.622848,3.360266 L7.619215,3.349019 L7.615975,3.337652 L7.613131,3.326180 L7.610687,3.314616 L7.608646,3.302974 L7.607010,3.291268 L7.605781,3.279513 L7.604962,3.267722 L7.604551,3.255910 L7.604551,3.244090 L7.604962,3.232278 L7.605781,3.220487 L7.607010,3.208732 L7.608646,3.197026 L7.610687,3.185384 L7.613131,3.173820 L7.615975,3.162348 L7.619215,3.150981 L7.622848,3.139734 L7.626869,3.128620 L7.631274,3.117652 L7.636056,3.106843 L7.641211,3.096207 L7.646732,3.085756 L7.652612,3.075503 L7.658844,3.065460 L7.665421,3.055640 L7.672335,3.046053 L7.679578,3.036713 L7.687140,3.027630 L7.695013,3.018814 L7.703188,3.010277 L7.711653,3.002029 L7.720400,2.994080 L7.729418,2.986439 L7.738695,2.979115 L7.748221,2.972118 L7.757984,2.965456 L7.767972,2.959137 L7.778173,2.953168 L7.788576,2.947557 L7.799167,2.942310 L7.809934,2.937434 L7.820863,2.932935 L7.831942,2.928817 L7.843158,2.925087 L7.854496,2.921748 L7.865943,2.918805 L7.877485,2.916261 L7.889109,2.914118 L7.900800,2.912381 L7.912544,2.911050 L7.924328,2.910128 L7.936136,2.909615 L7.947955,2.909513 L7.959770,2.909821 L7.971568,2.910538 L7.983334,2.911665 L7.995053,2.913199 L8.006712,2.915139 L8.018297,2.917483 L8.029793,2.920227 L8.041188,2.923368 L8.052466,2.926904 L8.063615,2.930828 L8.074621,2.935137 L8.085471,2.939825 L8.096151,2.944888 L8.106650,2.950317 L8.116953,2.956108 L8.127050,2.962253 L8.136927,2.968745 L8.146573,2.975576 L8.155975,2.982737 L8.165124,2.990220 L8.174008,2.998016 L8.182615,3.006116 L8.190937,3.014510 L8.198961,3.023188 L8.206680,3.032139 L8.214084,3.041352 L8.221163,3.050817 L8.227910,3.060521 L8.234316,3.070454 L8.240373,3.080604 L8.246074,3.090957 L8.251413,3.101502 L8.256382,3.112226 L8.260976,3.123116 L8.265189,3.134159 L8.269017,3.145342 L8.272454,3.156651 L8.275497,3.168072 L8.278141,3.179592 L8.280384,3.191196 L8.282223,3.202872 L8.283655,3.214604 L8.284680,3.226379 L8.285295,3.238182 L8.285500,3.250000 M0.743500,3.250000 L0.743336,3.259454 L0.742844,3.268897 L0.742024,3.278317 L0.740878,3.287703 L0.739407,3.297043 L0.737613,3.306327 L0.735497,3.315543 L0.733063,3.324680 L0.730314,3.333726 L0.727251,3.342672 L0.723881,3.351507 L0.720206,3.360219 L0.716230,3.368798 L0.711959,3.377234 L0.707398,3.385517 L0.702553,3.393637 L0.697428,3.401583 L0.692031,3.409347 L0.686367,3.416919 L0.680444,3.424289 L0.674269,3.431450 L0.667849,3.438392 L0.661192,3.445107 L0.654306,3.451587 L0.647199,3.457824 L0.639880,3.463811 L0.632358,3.469540 L0.624641,3.475004 L0.616740,3.480197 L0.608663,3.485113 L0.600420,3.489746 L0.592021,3.494090 L0.583477,3.498140 L0.574797,3.501890 L0.565992,3.505338 L0.557073,3.508477 L0.548050,3.511305 L0.538935,3.513819 L0.529738,3.516014 L0.520470,3.517889 L0.511142,3.519441 L0.501767,3.520668 L0.492354,3.521570 L0.482916,3.522144 L0.473464,3.522390 L0.464009,3.522308 L0.454562,3.521898 L0.445135,3.521160 L0.435740,3.520095 L0.426387,3.518705 L0.417088,3.516992 L0.407854,3.514956 L0.398697,3.512601 L0.389626,3.509930 L0.380654,3.506946 L0.371791,3.503652 L0.363047,3.500053 L0.354434,3.496152 L0.345961,3.491954 L0.337639,3.487465 L0.329478,3.482690 L0.321487,3.477635 L0.313677,3.472305 L0.306056,3.466708 L0.298634,3.460849 L0.291420,3.454736 L0.284423,3.448377 L0.277650,3.441778 L0.271111,3.434949 L0.264812,3.427896 L0.258762,3.420630 L0.252968,3.413157 L0.247437,3.405488 L0.242175,3.397632 L0.237189,3.389598 L0.232485,3.381395 L0.228069,3.373035 L0.223945,3.364526 L0.220119,3.355879 L0.216596,3.347104 L0.213379,3.338213 L0.210472,3.329215 L0.207880,3.320122 L0.205605,3.310944 L0.203650,3.301693 L0.202017,3.292379 L0.200708,3.283015 L0.199725,3.273610 L0.199069,3.264178 L0.198741,3.254728 L0.198741,3.245272 L0.199069,3.235822 L0.199725,3.226390 L0.200708,3.216985 L0.202017,3.207621 L0.203650,3.198307 L0.205605,3.189056 L0.207880,3.179878 L0.210472,3.170785 L0.213379,3.161787 L0.216596,3.152896 L0.220119,3.144121 L0.223945,3.135474 L0.228069,3.126965 L0.232485,3.118605 L0.237189,3.110402 L0.242175,3.102368 L0.247437,3.094512 L0.252968,3.086843 L0.258762,3.079370 L0.264812,3.072104 L0.271111,3.065051 L0.277650,3.058222 L0.284423,3.051623 L0.291420,3.045264 L0.298634,3.039151 L0.306056,3.033292 L0.313677,3.027695 L0.321487,3.022365 L0.329478,3.017310 L0.337639,3.012535 L0.345961,3.008046 L0.354434,3.003848 L0.363047,2.999947 L0.371791,2.996348 L0.380654,2.993054 L0.389626,2.990070 L0.398697,2.987399 L0.407854,2.985044 L0.417088,2.983008 L0.426387,2.981295 L0.435740,2.979905 L0.445135,2.978840 L0.454562,2.978102 L0.464009,2.977692 L0.473464,2.977610 L0.482916,2.977856 L0.492354,2.978430 L0.501767,2.979332 L0.511142,2.980559 L0.520470,2.982111 L0.529738,2.983986 L0.538935,2.986181 L0.548050,2.988695 L0.557073,2.991523 L0.565992,2.994662 L0.574797,2.998110 L0.583477,3.001860 L0.592021,3.005910 L0.600420,3.010254 L0.608663,3.014887 L0.616740,3.019803 L0.624641,3.024996 L0.632358,3.030460 L0.639880,3.036189 L0.647199,3.042176 L0.654306,3.048413 L0.661192,3.054893 L0.667849,3.061608 L0.674269,3.068550 L0.680444,3.075711 L0.686367,3.083081 L0.692031,3.090653 L0.697428,3.098417 L0.702553,3.106363 L0.707398,3.114483 L0.711959,3.122766 L0.716230,3.131202 L0.720206,3.139781 L0.723881,3.148493 L0.727251,3.157328 L0.730314,3.166274 L0.733063,3.175320 L0.735497,3.184457 L0.737613,3.193673 L0.739407,3.202957 L0.740878,3.212297 L0.742024,3.221683 L0.742844,3.231103 L0.743336,3.240546 L0.743500,3.250000 z" />
  <path stroke="black" fill="none" stroke-width=".01" d="M2.150000,1.912500 l2.200000,0 l0,2.675000 l-2.200000,0 z" />
  <path stroke="black" fill="none" stroke-width=".01" d=" M1.845000,2.287500 L1.844887,2.294008 L1.844548,2.300507 L1.843984,2.306991 L1.843195,2.313452 L1.842183,2.319881 L1.840948,2.326271 L1.839492,2.332615 L1.837816,2.338904 L1.835923,2.345131 L1.833816,2.351289 L1.831496,2.357370 L1.828966,2.363367 L1.826229,2.369272 L1.823290,2.375079 L1.820150,2.380780 L1.816815,2.386369 L1.813287,2.391838 L1.809572,2.397182 L1.805674,2.402394 L1.801597,2.407468 L1.797347,2.412397 L1.792928,2.417175 L1.788345,2.421797 L1.783606,2.426257 L1.778714,2.430551 L1.773676,2.434671 L1.768498,2.438615 L1.763187,2.442376 L1.757748,2.445951 L1.752188,2.449335 L1.746514,2.452523 L1.740733,2.455513 L1.734852,2.458301 L1.728877,2.460883 L1.722817,2.463255 L1.716677,2.465417 L1.710467,2.467363 L1.704192,2.469093 L1.697862,2.470604 L1.691482,2.471895 L1.685062,2.472963 L1.678609,2.473808 L1.672130,2.474428 L1.665633,2.474824 L1.659127,2.474993 L1.652619,2.474936 L1.646117,2.474654 L1.639628,2.474146 L1.633161,2.473414 L1.626723,2.472457 L1.620322,2.471277 L1.613966,2.469876 L1.607663,2.468255 L1.601419,2.466417 L1.595244,2.464363 L1.589143,2.462095 L1.583124,2.459618 L1.577196,2.456933 L1.571363,2.454044 L1.565635,2.450954 L1.560018,2.447667 L1.554517,2.444187 L1.549141,2.440518 L1.543896,2.436666 L1.538787,2.432633 L1.533822,2.428425 L1.529005,2.424048 L1.524343,2.419506 L1.519842,2.414805 L1.515507,2.409951 L1.511342,2.404949 L1.507354,2.399805 L1.503547,2.394527 L1.499925,2.389119 L1.496493,2.383589 L1.493255,2.377943 L1.490215,2.372188 L1.487377,2.366331 L1.484743,2.360379 L1.482318,2.354339 L1.480104,2.348219 L1.478103,2.342026 L1.476319,2.335767 L1.474753,2.329449 L1.473407,2.323081 L1.472283,2.316671 L1.471382,2.310225 L1.470706,2.303752 L1.470254,2.297259 L1.470028,2.290754 L1.470028,2.284246 L1.470254,2.277741 L1.470706,2.271248 L1.471382,2.264775 L1.472283,2.258329 L1.473407,2.251919 L1.474753,2.245551 L1.476319,2.239233 L1.478103,2.232974 L1.480104,2.226781 L1.482318,2.220661 L1.484743,2.214621 L1.487377,2.208669 L1.490215,2.202812 L1.493255,2.197057 L1.496493,2.191411 L1.499925,2.185881 L1.503547,2.180473 L1.507354,2.175195 L1.511342,2.170051 L1.515507,2.165049 L1.519842,2.160195 L1.524343,2.155494 L1.529005,2.150952 L1.533822,2.146575 L1.538787,2.142367 L1.543896,2.138334 L1.549141,2.134482 L1.554517,2.130813 L1.560018,2.127333 L1.565635,2.124046 L1.571363,2.120956 L1.577196,2.118067 L1.583124,2.115382 L1.589143,2.112905 L1.595244,2.110637 L1.601419,2.108583 L1.607663,2.106745 L1.613966,2.105124 L1.620322,2.103723 L1.626723,2.102543 L1.633161,2.101586 L1.639628,2.100854 L1.646117,2.100346 L1.652619,2.100064 L1.659127,2.100007 L1.665633,2.100176 L1.672130,2.100572 L1.678609,2.101192 L1.685062,2.102037 L1.691482,2.103105 L1.697862,2.104396 L1.704192,2.105907 L1.710467,2.107637 L1.716677,2.109583 L1.722817,2.111745 L1.728877,2.114117 L1.734852,2.116699 L1.740733,2.119487 L1.746514,2.122477 L1.752188,2.125665 L1.757748,2.129049 L1.763187,2.132624 L1.768498,2.136385 L1.773676,2.140329 L1.778714,2.144449 L1.783606,2.148743 L1.788345,2.153203 L1.792928,2.157825 L1.797347,2.162603 L1.801597,2.167532 L1.805674,2.172606 L1.809572,2.177818 L1.813287,2.183162 L1.816815,2.188631 L1.820150,2.194220 L1.823290,2.199921 L1.826229,2.205728 L1.828966,2.211633 L1.831496,2.217630 L1.833816,2.223711 L1.835923,2.229869 L1.837816,2.236096 L1.839492,2.242385 L1.840948,2.248729 L1.842183,2.255119 L1.843195,2.261548 L1.843984,2.268009 L1.844548,2.274493 L1.844887,2.280992 L1.845000,2.287500 M5.030000,2.287500 L5.029887,2.294008 L5.029548,2.300507 L5.028984,2.306991 L5.028195,2.313452 L5.027183,2.319881 L5.025948,2.326271 L5.024492,2.332615 L5.022816,2.338904 L5.020923,2.345131 L5.018816,2.351289 L5.016496,2.357370 L5.013966,2.363367 L5.011229,2.369272 L5.008290,2.375079 L5.005150,2.380780 L5.001815,2.386369 L4.998287,2.391838 L4.994572,2.397182 L4.990674,2.402394 L4.986597,2.407468 L4.982347,2.412397 L4.977928,2.417175 L4.973345,2.421797 L4.968606,2.426257 L4.963714,2.430551 L4.958676,2.434671 L4.953498,2.438615 L4.948187,2.442376 L4.942748,2.445951 L4.937188,2.449335 L4.931514,2.452523 L4.925733,2.455513 L4.919852,2.458301 L4.913877,2.460883 L4.907817,2.463255 L4.901677,2.465417 L4.895467,2.467363 L4.889192,2.469093 L4.882862,2.470604 L4.876482,2.471895 L4.870062,2.472963 L4.863609,2.473808 L4.857130,2.474428 L4.850633,2.474824 L4.844127,2.474993 L4.837619,2.474936 L4.831117,2.474654 L4.824628,2.474146 L4.818161,2.473414 L4.811723,2.472457 L4.805322,2.471277 L4.798966,2.469876 L4.792663,2.468255 L4.786419,2.466417 L4.780244,2.464363 L4.774143,2.462095 L4.768124,2.459618 L4.762196,2.456933 L4.756363,2.454044 L4.750635,2.450954 L4.745018,2.447667 L4.739517,2.444187 L4.734141,2.440518 L4.728896,2.436666 L4.723787,2.432633 L4.718822,2.428425 L4.714005,2.424048 L4.709343,2.419506 L4.704842,2.414805 L4.700507,2.409951 L4.696342,2.404949 L4.692354,2.399805 L4.688547,2.394527 L4.684925,2.389119 L4.681493,2.383589 L4.678255,2.377943 L4.675215,2.372188 L4.672377,2.366331 L4.669743,2.360379 L4.667318,2.354339 L4.665104,2.348219 L4.663103,2.342026 L4.661319,2.335767 L4.659753,2.329449 L4.658407,2.323081 L4.657283,2.316671 L4.656382,2.310225 L4.655706,2.303752 L4.655254,2.297259 L4.655028,2.290754 L4.655028,2.284246 L4.655254,2.277741 L4.655706,2.271248 L4.656382,2.264775 L4.657283,2.258329 L4.658407,2.251919 L4.659753,2.245551 L4.661319,2.239233 L4.663103,2.232974 L4.665104,2.226781 L4.667318,2.220661 L4.669743,2.214621 L4.672377,2.208669 L4.675215,2.202812 L4.678255,2.197057 L4.681493,2.191411 L4.684925,2.185881 L4.688547,2.180473 L4.692354,2.175195 L4.696342,2.170051 L4.700507,2.165049 L4.704842,2.160195 L4.709343,2.155494 L4.714005,2.150952 L4.718822,2.146575 L4.723787,2.142367 L4.728896,2.138334 L4.734141,2.134482 L4.739517,2.130813 L4.745018,2.127333 L4.750635,2.124046 L4.756363,2.120956 L4.762196,2.118067 L4.768124,2.115382 L4.774143,2.112905 L4.780244,2.110637 L4.786419,2.108583 L4.792663,2.106745 L4.798966,2.105124 L4.805322,2.103723 L4.811723,2.102543 L4.818161,2.101586 L4.824628,2.100854 L4.831117,2.100346 L4.837619,2.100064 L4.844127,2.100007 L4.850633,2.100176 L4.857130,2.100572 L4.863609,2.101192 L4.870062,2.102037 L4.876482,2.103105 L4.882862,2.104396 L4.889192,2.105907 L4.895467,2.107637 L4.901677,2.109583 L4.907817,2.111745 L4.913877,2.114117 L4.919852,2.116699 L4.925733,2.119487 L4.931514,2.122477 L4.937188,2.125665 L4.942748,2.129049 L4.948187,2.132624 L4.953498,2.136385 L4.958676,2.140329 L4.963714,2.144449 L4.968606,2.148743 L4.973345,2.153203 L4.977928,2.157825 L4.982347,2.162603 L4.986597,2.167532 L4.990674,2.172606 L4.994572,2.177818 L4.998287,2.183162 L5.001815,2.188631 L5.005150,2.194220 L5.008290,2.199921 L5.011229,2.205728 L5.013966,2.211633 L5.016496,2.217630 L5.018816,2.223711 L5.020923,2.229869 L5.022816,2.236096 L5.024492,2.242385 L5.025948,2.248729 L5.027183,2.255119 L5.028195,2.261548 L5.028984,2.268009 L5.029548,2.274493 L5.029887,2.280992 L5.030000,2.287500 M1.845000,4.212500 L1.844887,4.219008 L1.844548,4.225507 L1.843984,4.231991 L1.843195,4.238452 L1.842183,4.244881 L1.840948,4.251271 L1.839492,4.257615 L1.837816,4.263904 L1.835923,4.270131 L1.833816,4.276289 L1.831496,4.282370 L1.828966,4.288367 L1.826229,4.294272 L1.823290,4.300079 L1.820150,4.305780 L1.816815,4.311369 L1.813287,4.316838 L1.809572,4.322182 L1.805674,4.327394 L1.801597,4.332468 L1.797347,4.337397 L1.792928,4.342175 L1.788345,4.346797 L1.783606,4.351257 L1.778714,4.355551 L1.773676,4.359671 L1.768498,4.363615 L1.763187,4.367376 L1.757748,4.370951 L1.752188,4.374335 L1.746514,4.377523 L1.740733,4.380513 L1.734852,4.383301 L1.728877,4.385883 L1.722817,4.388255 L1.716677,4.390417 L1.710467,4.392363 L1.704192,4.394093 L1.697862,4.395604 L1.691482,4.396895 L1.685062,4.397963 L1.678609,4.398808 L1.672130,4.399428 L1.665633,4.399824 L1.659127,4.399993 L1.652619,4.399936 L1.646117,4.399654 L1.639628,4.399146 L1.633161,4.398414 L1.626723,4.397457 L1.620322,4.396277 L1.613966,4.394876 L1.607663,4.393255 L1.601419,4.391417 L1.595244,4.389363 L1.589143,4.387095 L1.583124,4.384618 L1.577196,4.381933 L1.571363,4.379044 L1.565635,4.375954 L1.560018,4.372667 L1.554517,4.369187 L1.549141,4.365518 L1.543896,4.361666 L1.538787,4.357633 L1.533822,4.353425 L1.529005,4.349048 L1.524343,4.344506 L1.519842,4.339805 L1.515507,4.334951 L1.511342,4.329949 L1.507354,4.324805 L1.503547,4.319527 L1.499925,4.314119 L1.496493,4.308589 L1.493255,4.302943 L1.490215,4.297188 L1.487377,4.291331 L1.484743,4.285379 L1.482318,4.279339 L1.480104,4.273219 L1.478103,4.267026 L1.476319,4.260767 L1.474753,4.254449 L1.473407,4.248081 L1.472283,4.241671 L1.471382,4.235225 L1.470706,4.228752 L1.470254,4.222259 L1.470028,4.215754 L1.470028,4.209246 L1.470254,4.202741 L1.470706,4.196248 L1.471382,4.189775 L1.472283,4.183329 L1.473407,4.176919 L1.474753,4.170551 L1.476319,4.164233 L1.478103,4.157974 L1.480104,4.151781 L1.482318,4.145661 L1.484743,4.139621 L1.487377,4.133669 L1.490215,4.127812 L1.493255,4.122057 L1.496493,4.116411 L1.499925,4.110881 L1.503547,4.105473 L1.507354,4.100195 L1.511342,4.095051 L1.515507,4.090049 L1.519842,4.085195 L1.524343,4.080494 L1.529005,4.075952 L1.533822,4.071575 L1.538787,4.067367 L1.543896,4.063334 L1.549141,4.059482 L1.554517,4.055813 L1.560018,4.052333 L1.565635,4.049046 L1.571363,4.045956 L1.577196,4.043067 L1.583124,4.040382 L1.589143,4.037905 L1.595244,4.035637 L1.601419,4.033583 L1.607663,4.031745 L1.613966,4.030124 L1.620322,4.028723 L1.626723,4.027543 L1.633161,4.026586 L1.639628,4.025854 L1.646117,4.025346 L1.652619,4.025064 L1.659127,4.025007 L1.665633,4.025176 L1.672130,4.025572 L1.678609,4.026192 L1.685062,4.027037 L1.691482,4.028105 L1.697862,4.029396 L1.704192,4.030907 L1.710467,4.032637 L1.716677,4.034583 L1.722817,4.036745 L1.728877,4.039117 L1.734852,4.041699 L1.740733,4.044487 L1.746514,4.047477 L1.752188,4.050665 L1.757748,4.054049 L1.763187,4.057624 L1.768498,4.061385 L1.773676,4.065329 L1.778714,4.069449 L1.783606,4.073743 L1.788345,4.078203 L1.792928,4.082825 L1.797347,4.087603 L1.801597,4.092532 L1.805674,4.097606 L1.809572,4.102818 L1.813287,4.108162 L1.816815,4.113631 L1.820150,4.119220 L1.823290,4.124921 L1.826229,4.130728 L1.828966,4.136633 L1.831496,4.142630 L1.833816,4.148711 L1.835923,4.154869 L1.837816,4.161096 L1.839492,4.167385 L1.840948,4.173729 L1.842183,4.180119 L1.843195,4.186548 L1.843984,4.193009 L1.844548,4.199493 L1.844887,4.205992 L1.845000,4.212500 M5.030000,4.212500 L5.029887,4.219008 L5.029548,4.225507 L5.028984,4.231991 L5.028195,4.238452 L5.027183,4.244881 L5.025948,4.251271 L5.024492,4.257615 L5.022816,4.263904 L5.020923,4.270131 L5.018816,4.276289 L5.016496,4.282370 L5.013966,4.288367 L5.011229,4.294272 L5.008290,4.300079 L5.005150,4.305780 L5.001815,4.311369 L4.998287,4.316838 L4.994572,4.322182 L4.990674,4.327394 L4.986597,4.332468 L4.982347,4.337397 L4.977928,4.342175 L4.973345,4.346797 L4.968606,4.351257 L4.963714,4.355551 L4.958676,4.359671 L4.953498,4.363615 L4.948187,4.367376 L4.942748,4.370951 L4.937188,4.374335 L4.931514,4.377523 L4.925733,4.380513 L4.919852,4.383301 L4.913877,4.385883 L4.907817,4.388255 L4.901677,4.390417 L4.895467,4.392363 L4.889192,4.394093 L4.882862,4.395604 L4.876482,4.396895 L4.870062,4.397963 L4.863609,4.398808 L4.857130,4.399428 L4.850633,4.399824 L4.844127,4.399993 L4.837619,4.399936 L4.831117,4.399654 L4.824628,4.399146 L4.818161,4.398414 L4.811723,4.397457 L4.805322,4.396277 L4.798966,4.394876 L4.792663,4.393255 L4.786419,4.391417 L4.780244,4.389363 L4.774143,4.387095 L4.768124,4.384618 L4.762196,4.381933 L4.756363,4.379044 L4.750635,4.375954 L4.745018,4.372667 L4.739517,4.369187 L4.734141,4.365518 L4.728896,4.361666 L4.723787,4.357633 L4.718822,4.353425 L4.714005,4.349048 L4.709343,4.344506 L4.704842,4.339805 L4.700507,4.334951 L4.696342,4.329949 L4.692354,4.324805 L4.688547,4.319527 L4.684925,4.314119 L4.681493,4.308589 L4.678255,4.302943 L4.675215,4.297188 L4.672377,4.291331 L4.669743,4.285379 L4.667318,4.279339 L4.665104,4.273219 L4.663103,4.267026 L4.661319,4.260767 L4.659753,4.254449 L4.658407,4.248081 L4.657283,4.241671 L4.656382,4.235225 L4.655706,4.228752 L4.655254,4.222259 L4.655028,4.215754 L4.655028,4.209246 L4.655254,4.202741 L4.655706,4.196248 L4.656382,4.189775 L4.657283,4.183329 L4.658407,4.176919 L4.659753,4.170551 L4.661319,4.164233 L4.663103,4.157974 L4.665104,4.151781 L4.667318,4.145661 L4.669743,4.139621 L4.672377,4.133669 L4.675215,4.127812 L4.678255,4.122057 L4.681493,4.116411 L4.684925,4.110881 L4.688547,4.105473 L4.692354,4.100195 L4.696342,4.095051 L4.700507,4.090049 L4.704842,4.085195 L4.709343,4.080494 L4.714005,4.075952 L4.718822,4.071575 L4.723787,4.067367 L4.728896,4.063334 L4.734141,4.059482 L4.739517,4.055813 L4.745018,4.052333 L4.750635,4.049046 L4.756363,4.045956 L4.762196,4.043067 L4.768124,4.040382 L4.774143,4.037905 L4.780244,4.035637 L4.786419,4.033583 L4.792663,4.031745 L4.798966,4.030124 L4.805322,4.028723 L4.811723,4.027543 L4.818161,4.026586 L4.824628,4.025854 L4.831117,4.025346 L4.837619,4.025064 L4.844127,4.025007 L4.850633,4.025176 L4.857130,4.025572 L4.863609,4.026192 L4.870062,4.027037 L4.876482,4.028105 L4.882862,4.029396 L4.889192,4.030907 L4.895467,4.032637 L4.901677,4.034583 L4.907817,4.036745 L4.913877,4.039117 L4.919852,4.041699 L4.925733,4.044487 L4.931514,4.047477 L4.937188,4.050665 L4.942748,4.054049 L4.948187,4.057624 L4.953498,4.061385 L4.958676,4.065329 L4.963714,4.069449 L4.968606,4.073743 L4.973345,4.078203 L4.977928,4.082825 L4.982347,4.087603 L4.986597,4.092532 L4.990674,4.097606 L4.994572,4.102818 L4.998287,4.108162 L5.001815,4.113631 L5.005150,4.119220 L5.008290,4.124921 L5.011229,4.130728 L5.013966,4.136633 L5.016496,4.142630 L5.018816,4.148711 L5.020923,4.154869 L5.022816,4.161096 L5.024492,4.167385 L5.025948,4.173729 L5.027183,4.180119 L5.028195,4.186548 L5.028984,4.193009 L5.029548,4.199493 L5.029887,4.205992 L5.030000,4.212500" />
  <path stroke="black" fill="none" stroke-width=".01" d=" M3.375000,1.137500 L3.374925,1.141838 L3.374699,1.146171 L3.374323,1.150494 L3.373797,1.154801 L3.373122,1.159087 L3.372298,1.163347 L3.371328,1.167576 L3.370211,1.171769 L3.368949,1.175921 L3.367544,1.180026 L3.365997,1.184080 L3.364311,1.188078 L3.362486,1.192015 L3.360526,1.195886 L3.358434,1.199687 L3.356210,1.203412 L3.353858,1.207059 L3.351382,1.210622 L3.348783,1.214096 L3.346065,1.217479 L3.343231,1.220764 L3.340285,1.223950 L3.337230,1.227031 L3.334070,1.230005 L3.330809,1.232867 L3.327451,1.235614 L3.323999,1.238243 L3.320458,1.240751 L3.316832,1.243134 L3.313125,1.245390 L3.309343,1.247516 L3.305489,1.249509 L3.301568,1.251367 L3.297585,1.253088 L3.293544,1.254670 L3.289452,1.256111 L3.285311,1.257409 L3.281128,1.258562 L3.276908,1.259570 L3.272655,1.260430 L3.268375,1.261142 L3.264073,1.261705 L3.259753,1.262119 L3.255422,1.262382 L3.251085,1.262495 L3.246746,1.262458 L3.242411,1.262269 L3.238085,1.261931 L3.233774,1.261442 L3.229482,1.260805 L3.225215,1.260018 L3.220978,1.259084 L3.216775,1.258004 L3.212613,1.256778 L3.208496,1.255408 L3.204429,1.253897 L3.200416,1.252245 L3.196464,1.250455 L3.192576,1.248529 L3.188757,1.246469 L3.185012,1.244278 L3.181345,1.241958 L3.177761,1.239512 L3.174264,1.236944 L3.170858,1.234255 L3.167548,1.231450 L3.164337,1.228532 L3.161229,1.225504 L3.158228,1.222370 L3.155338,1.219134 L3.152562,1.215799 L3.149903,1.212370 L3.147365,1.208851 L3.144950,1.205246 L3.142662,1.201559 L3.140504,1.197795 L3.138477,1.193959 L3.136585,1.190054 L3.134829,1.186086 L3.133212,1.182060 L3.131736,1.177979 L3.130402,1.173850 L3.129213,1.169678 L3.128169,1.165466 L3.127271,1.161221 L3.126522,1.156947 L3.125921,1.152650 L3.125470,1.148334 L3.125169,1.144006 L3.125019,1.139669 L3.125019,1.135331 L3.125169,1.130994 L3.125470,1.126666 L3.125921,1.122350 L3.126522,1.118053 L3.127271,1.113779 L3.128169,1.109534 L3.129213,1.105322 L3.130402,1.101150 L3.131736,1.097021 L3.133212,1.092940 L3.134829,1.088914 L3.136585,1.084946 L3.138477,1.081041 L3.140504,1.077205 L3.142662,1.073441 L3.144950,1.069754 L3.147365,1.066149 L3.149903,1.062630 L3.152562,1.059201 L3.155338,1.055866 L3.158228,1.052630 L3.161229,1.049496 L3.164337,1.046468 L3.167548,1.043550 L3.170858,1.040745 L3.174264,1.038056 L3.177761,1.035488 L3.181345,1.033042 L3.185012,1.030722 L3.188757,1.028531 L3.192576,1.026471 L3.196464,1.024545 L3.200416,1.022755 L3.204429,1.021103 L3.208496,1.019592 L3.212613,1.018222 L3.216775,1.016996 L3.220978,1.015916 L3.225215,1.014982 L3.229482,1.014195 L3.233774,1.013558 L3.238085,1.013069 L3.242411,1.012731 L3.246746,1.012542 L3.251085,1.012505 L3.255422,1.012618 L3.259753,1.012881 L3.264073,1.013295 L3.268375,1.013858 L3.272655,1.014570 L3.276908,1.015430 L3.281128,1.016438 L3.285311,1.017591 L3.289452,1.018889 L3.293544,1.020330 L3.297585,1.021912 L3.301568,1.023633 L3.305489,1.025491 L3.309343,1.027484 L3.313125,1.029610 L3.316832,1.031866 L3.320458,1.034249 L3.323999,1.036757 L3.327451,1.039386 L3.330809,1.042133 L3.334070,1.044995 L3.337230,1.047969 L3.340285,1.051050 L3.343231,1.054236 L3.346065,1.057521 L3.348783,1.060904 L3.351382,1.064378 L3.353858,1.067941 L3.356210,1.071588 L3.358434,1.075313 L3.360526,1.079114 L3.362486,1.082985 L3.364311,1.086922 L3.365997,1.090920 L3.367544,1.094974 L3.368949,1.099079 L3.370211,1.103231 L3.371328,1.107424 L3.372298,1.111653 L3.373122,1.115913 L3.373797,1.120199 L3.374323,1.124506 L3.374699,1.128829 L3.374925,1.133162 L3.375000,1.137500 M3.375000,5.362500 L3.374925,5.366838 L3.374699,5.371171 L3.374323,5.375494 L3.373797,5.379801 L3.373122,5.384087 L3.372298,5.388347 L3.371328,5.392576 L3.370211,5.396769 L3.368949,5.400921 L3.367544,5.405026 L3.365997,5.409080 L3.364311,5.413078 L3.362486,5.417015 L3.360526,5.420886 L3.358434,5.424687 L3.356210,5.428412 L3.353858,5.432059 L3.351382,5.435622 L3.348783,5.439096 L3.346065,5.442479 L3.343231,5.445764 L3.340285,5.448950 L3.337230,5.452031 L3.334070,5.455005 L3.330809,5.457867 L3.327451,5.460614 L3.323999,5.463243 L3.320458,5.465751 L3.316832,5.468134 L3.313125,5.470390 L3.309343,5.472516 L3.305489,5.474509 L3.301568,5.476367 L3.297585,5.478088 L3.293544,5.479670 L3.289452,5.481111 L3.285311,5.482409 L3.281128,5.483562 L3.276908,5.484570 L3.272655,5.485430 L3.268375,5.486142 L3.264073,5.486705 L3.259753,5.487119 L3.255422,5.487382 L3.251085,5.487495 L3.246746,5.487458 L3.242411,5.487269 L3.238085,5.486931 L3.233774,5.486442 L3.229482,5.485805 L3.225215,5.485018 L3.220978,5.484084 L3.216775,5.483004 L3.212613,5.481778 L3.208496,5.480408 L3.204429,5.478897 L3.200416,5.477245 L3.196464,5.475455 L3.192576,5.473529 L3.188757,5.471469 L3.185012,5.469278 L3.181345,5.466958 L3.177761,5.464512 L3.174264,5.461944 L3.170858,5.459255 L3.167548,5.456450 L3.164337,5.453532 L3.161229,5.450504 L3.158228,5.447370 L3.155338,5.444134 L3.152562,5.440799 L3.149903,5.437370 L3.147365,5.433851 L3.144950,5.430246 L3.142662,5.426559 L3.140504,5.422795 L3.138477,5.418959 L3.136585,5.415054 L3.134829,5.411086 L3.133212,5.407060 L3.131736,5.402979 L3.130402,5.398850 L3.129213,5.394678 L3.128169,5.390466 L3.127271,5.386221 L3.126522,5.381947 L3.125921,5.377650 L3.125470,5.373334 L3.125169,5.369006 L3.125019,5.364669 L3.125019,5.360331 L3.125169,5.355994 L3.125470,5.351666 L3.125921,5.347350 L3.126522,5.343053 L3.127271,5.338779 L3.128169,5.334534 L3.129213,5.330322 L3.130402,5.326150 L3.131736,5.322021 L3.133212,5.317940 L3.134829,5.313914 L3.136585,5.309946 L3.138477,5.306041 L3.140504,5.302205 L3.142662,5.298441 L3.144950,5.294754 L3.147365,5.291149 L3.149903,5.287630 L3.152562,5.284201 L3.155338,5.280866 L3.158228,5.277630 L3.161229,5.274496 L3.164337,5.271468 L3.167548,5.268550 L3.170858,5.265745 L3.174264,5.263056 L3.177761,5.260488 L3.181345,5.258042 L3.185012,5.255722 L3.188757,5.253531 L3.192576,5.251471 L3.196464,5.249545 L3.200416,5.247755 L3.204429,5.246103 L3.208496,5.244592 L3.212613,5.243222 L3.216775,5.241996 L3.220978,5.240916 L3.225215,5.239982 L3.229482,5.239195 L3.233774,5.238558 L3.238085,5.238069 L3.242411,5.237731 L3.246746,5.237542 L3.251085,5.237505 L3.255422,5.237618 L3.259753,5.237881 L3.264073,5.238295 L3.268375,5.238858 L3.272655,5.239570 L3.276908,5.240430 L3.281128,5.241438 L3.285311,5.242591 L3.289452,5.243889 L3.293544,5.245330 L3.297585,5.246912 L3.301568,5.248633 L3.305489,5.250491 L3.309343,5.252484 L3.313125,5.254610 L3.316832,5.256866 L3.320458,5.259249 L3.323999,5.261757 L3.327451,5.264386 L3.330809,5.267133 L3.334070,5.269995 L3.337230,5.272969 L3.340285,5.276050 L3.343231,5.279236 L3.346065,5.282521 L3.348783,5.285904 L3.351382,5.289378 L3.353858,5.292941 L3.356210,5.296588 L3.358434,5.300313 L3.360526,5.304114 L3.362486,5.307985 L3.364311,5.311922 L3.365997,5.315920 L3.367544,5.319974 L3.368949,5.324079 L3.370211,5.328231 L3.371328,5.332424 L3.372298,5.336653 L3.373122,5.340913 L3.373797,5.345199 L3.374323,5.349506 L3.374699,5.353829 L3.374925,5.358162 L3.375000,5.362500 M1.262500,3.250000 L1.262425,3.254338 L1.262199,3.258671 L1.261823,3.262994 L1.261297,3.267301 L1.260622,3.271587 L1.259798,3.275847 L1.258828,3.280076 L1.257711,3.284269 L1.256449,3.288421 L1.255044,3.292526 L1.253497,3.296580 L1.251811,3.300578 L1.249986,3.304515 L1.248026,3.308386 L1.245934,3.312187 L1.243710,3.315912 L1.241358,3.319559 L1.238882,3.323122 L1.236283,3.326596 L1.233565,3.329979 L1.230731,3.333264 L1.227785,3.336450 L1.224730,3.339531 L1.221570,3.342505 L1.218309,3.345367 L1.214951,3.348114 L1.211499,3.350743 L1.207958,3.353251 L1.204332,3.355634 L1.200625,3.357890 L1.196843,3.360016 L1.192989,3.362009 L1.189068,3.363867 L1.185085,3.365588 L1.181044,3.367170 L1.176952,3.368611 L1.172811,3.369909 L1.168628,3.371062 L1.164408,3.372070 L1.160155,3.372930 L1.155875,3.373642 L1.151573,3.374205 L1.147253,3.374619 L1.142922,3.374882 L1.138585,3.374995 L1.134246,3.374958 L1.129911,3.374769 L1.125585,3.374431 L1.121274,3.373942 L1.116982,3.373305 L1.112715,3.372518 L1.108478,3.371584 L1.104275,3.370504 L1.100113,3.369278 L1.095996,3.367908 L1.091929,3.366397 L1.087916,3.364745 L1.083964,3.362955 L1.080076,3.361029 L1.076257,3.358969 L1.072512,3.356778 L1.068845,3.354458 L1.065261,3.352012 L1.061764,3.349444 L1.058358,3.346755 L1.055048,3.343950 L1.051837,3.341032 L1.048729,3.338004 L1.045728,3.334870 L1.042838,3.331634 L1.040062,3.328299 L1.037403,3.324870 L1.034865,3.321351 L1.032450,3.317746 L1.030162,3.314059 L1.028004,3.310295 L1.025977,3.306459 L1.024085,3.302554 L1.022329,3.298586 L1.020712,3.294560 L1.019236,3.290479 L1.017902,3.286350 L1.016713,3.282178 L1.015669,3.277966 L1.014771,3.273721 L1.014022,3.269447 L1.013421,3.265150 L1.012970,3.260834 L1.012669,3.256506 L1.012519,3.252169 L1.012519,3.247831 L1.012669,3.243494 L1.012970,3.239166 L1.013421,3.234850 L1.014022,3.230553 L1.014771,3.226279 L1.015669,3.222034 L1.016713,3.217822 L1.017902,3.213650 L1.019236,3.209521 L1.020712,3.205440 L1.022329,3.201414 L1.024085,3.197446 L1.025977,3.193541 L1.028004,3.189705 L1.030162,3.185941 L1.032450,3.182254 L1.034865,3.178649 L1.037403,3.175130 L1.040062,3.171701 L1.042838,3.168366 L1.045728,3.165130 L1.048729,3.161996 L1.051837,3.158968 L1.055048,3.156050 L1.058358,3.153245 L1.061764,3.150556 L1.065261,3.147988 L1.068845,3.145542 L1.072512,3.143222 L1.076257,3.141031 L1.080076,3.138971 L1.083964,3.137045 L1.087916,3.135255 L1.091929,3.133603 L1.095996,3.132092 L1.100113,3.130722 L1.104275,3.129496 L1.108478,3.128416 L1.112715,3.127482 L1.116982,3.126695 L1.121274,3.126058 L1.125585,3.125569 L1.129911,3.125231 L1.134246,3.125042 L1.138585,3.125005 L1.142922,3.125118 L1.147253,3.125381 L1.151573,3.125795 L1.155875,3.126358 L1.160155,3.127070 L1.164408,3.127930 L1.168628,3.128938 L1.172811,3.130091 L1.176952,3.131389 L1.181044,3.132830 L1.185085,3.134412 L1.189068,3.136133 L1.192989,3.137991 L1.196843,3.139984 L1.200625,3.142110 L1.204332,3.144366 L1.207958,3.146749 L1.211499,3.149257 L1.214951,3.151886 L1.218309,3.154633 L1.221570,3.157495 L1.224730,3.160469 L1.227785,3.163550 L1.230731,3.166736 L1.233565,3.170021 L1.236283,3.173404 L1.238882,3.176878 L1.241358,3.180441 L1.243710,3.184088 L1.245934,3.187813 L1.248026,3.191614 L1.249986,3.195485 L1.251811,3.199422 L1.253497,3.203420 L1.255044,3.207474 L1.256449,3.211579 L1.257711,3.215731 L1.258828,3.219924 L1.259798,3.224153 L1.260622,3.228413 L1.261297,3.232699 L1.261823,3.237006 L1.262199,3.241329 L1.262425,3.245662 L1.262500,3.250000 M5.487500,3.250000 L5.487425,3.254338 L5.487199,3.258671 L5.486823,3.262994 L5.486297,3.267301 L5.485622,3.271587 L5.484798,3.275847 L5.483828,3.280076 L5.482711,3.284269 L5.481449,3.288421 L5.480044,3.292526 L5.478497,3.296580 L5.476811,3.300578 L5.474986,3.304515 L5.473026,3.308386 L5.470934,3.312187 L5.468710,3.315912 L5.466358,3.319559 L5.463882,3.323122 L5.461283,3.326596 L5.458565,3.329979 L5.455731,3.333264 L5.452785,3.336450 L5.449730,3.339531 L5.446570,3.342505 L5.443309,3.345367 L5.439951,3.348114 L5.436499,3.350743 L5.432958,3.353251 L5.429332,3.355634 L5.425625,3.357890 L5.421843,3.360016 L5.417989,3.362009 L5.414068,3.363867 L5.410085,3.365588 L5.406044,3.367170 L5.401952,3.368611 L5.397811,3.369909 L5.393628,3.371062 L5.389408,3.372070 L5.385155,3.372930 L5.380875,3.373642 L5.376573,3.374205 L5.372253,3.374619 L5.367922,3.374882 L5.363585,3.374995 L5.359246,3.374958 L5.354911,3.374769 L5.350585,3.374431 L5.346274,3.373942 L5.341982,3.373305 L5.337715,3.372518 L5.333478,3.371584 L5.329275,3.370504 L5.325113,3.369278 L5.320996,3.367908 L5.316929,3.366397 L5.312916,3.364745 L5.308964,3.362955 L5.305076,3.361029 L5.301257,3.358969 L5.297512,3.356778 L5.293845,3.354458 L5.290261,3.352012 L5.286764,3.349444 L5.283358,3.346755 L5.280048,3.343950 L5.276837,3.341032 L5.273729,3.338004 L5.270728,3.334870 L5.267838,3.331634 L5.265062,3.328299 L5.262403,3.324870 L5.259865,3.321351 L5.257450,3.317746 L5.255162,3.314059 L5.253004,3.310295 L5.250977,3.306459 L5.249085,3.302554 L5.247329,3.298586 L5.245712,3.294560 L5.244236,3.290479 L5.242902,3.286350 L5.241713,3.282178 L5.240669,3.277966 L5.239771,3.273721 L5.239022,3.269447 L5.238421,3.265150 L5.237970,3.260834 L5.237669,3.256506 L5.237519,3.252169 L5.237519,3.247831 L5.237669,3.243494 L5.237970,3.239166 L5.238421,3.234850 L5.239022,3.230553 L5.239771,3.226279 L5.240669,3.222034 L5.241713,3.217822 L5.242902,3.213650 L5.244236,3.209521 L5.245712,3.205440 L5.247329,3.201414 L5.249085,3.197446 L5.250977,3.193541 L5.253004,3.189705 L5.255162,3.185941 L5.257450,3.182254 L5.259865,3.178649 L5.262403,3.175130 L5.265062,3.171701 L5.267838,3.168366 L5.270728,3.165130 L5.273729,3.161996 L5.276837,3.158968 L5.280048,3.156050 L5.283358,3.153245 L5.286764,3.150556 L5.290261,3.147988 L5.293845,3.145542 L5.297512,3.143222 L5.301257,3.141031 L5.305076,3.138971 L5.308964,3.137045 L5.312916,3.135255 L5.316929,3.133603 L5.320996,3.132092 L5.325113,3.130722 L5.329275,3.129496 L5.333478,3.128416 L5.337715,3.127482 L5.341982,3.126695 L5.346274,3.126058 L5.350585,3.125569 L5.354911,3.125231 L5.359246,3.125042 L5.363585,3.125005 L5.367922,3.125118 L5.372253,3.125381 L5.376573,3.125795 L5.380875,3.126358 L5.385155,3.127070 L5.389408,3.127930 L5.393628,3.128938 L5.397811,3.130091 L5.401952,3.131389 L5.406044,3.132830 L5.410085,3.134412 L5.414068,3.136133 L5.417989,3.137991 L5.421843,3.139984 L5.425625,3.142110 L5.429332,3.144366 L5.432958,3.146749 L5.436499,3.149257 L5.439951,3.151886 L5.443309,3.154633 L5.446570,3.157495 L5.449730,3.160469 L5.452785,3.163550 L5.455731,3.166736 L5.458565,3.170021 L5.461283,3.173404 L5.463882,3.176878 L5.466358,3.180441 L5.468710,3.184088 L5.470934,3.187813 L5.473026,3.191614 L5.474986,3.195485 L5.476811,3.199422 L5.478497,3.203420 L5.480044,3.207474 L5.481449,3.211579 L5.482711,3.215731 L5.483828,3.219924 L5.484798,3.224153 L5.485622,3.228413 L5.486297,3.232699 L5.486823,3.237006 L5.487199,3.241329 L5.487425,3.245662 L5.487500,3.250000" />
</svg>
