<!DOCTYPE svg PUBLIC "-//W3C//DTD SVG 1.1//EN" "http://www.w3.org/Graphics/SVG/1.1/DTD/svg11.dtd"><svg version="1.1" xmlns="http://www.w3.org/2000/svg" xmlns:xlink="http://www.w3.org/1999/xlink" xml:space="preserve" width="8.600000in" height="6.500000in" viewBox="0.000000 0.000000 8.600000 6.500000"><!-- Paddle outline -->
  <path stroke="black" fill="none" stroke-width=".01" d=" M6.253770,4.316548 L6.244351,4.342712 L6.234704,4.368792 L6.224830,4.394788 L6.214730,4.420697 L6.204404,4.446516 L6.193854,4.472245 L6.183079,4.497880 L6.172081,4.523420 L6.160860,4.548864 L6.149419,4.574209 L6.137756,4.599452 L6.125874,4.624594 L6.113772,4.649630 L6.101453,4.674560 L6.088917,4.699382 L6.076165,4.724093 L6.063197,4.748692 L6.050016,4.773177 L6.036621,4.797546 L6.023014,4.821798 L6.009197,4.845929 L5.995169,4.869939 L5.980932,4.893826 L5.966488,4.917588 L5.951837,4.941223 L5.936980,4.964729 L5.921918,4.988105 L5.906653,5.011348 L5.891187,5.034458 L5.875519,5.057431 L5.859651,5.080267 L5.843584,5.102964 L5.827321,5.125520 L5.810861,5.147933 L5.794206,5.170201 L5.777357,5.192323 L5.760317,5.214298 L5.743085,5.236123 L5.725663,5.257797 L5.708053,5.279318 L5.690256,5.300684 L5.672273,5.321895 L5.654106,5.342948 L5.635756,5.363841 L5.617224,5.384574 L5.598512,5.405144 L5.579622,5.425550 L5.560554,5.445791 L5.541310,5.465865 L5.521892,5.485769 L5.502301,5.505504 L5.482538,5.525067 L5.462606,5.544457 L5.442505,5.563672 L5.422237,5.582711 L5.401804,5.601573 L5.381207,5.620256 L5.360448,5.638758 L5.339529,5.657078 L5.318450,5.675216 L5.297214,5.693168 L5.275822,5.710935 L5.254276,5.728514 L5.232578,5.745905 L5.210728,5.763106 L5.188729,5.780116 L5.166583,5.796933 L5.144291,5.813556 L5.121855,5.829984 L5.099276,5.846216 L5.076556,5.862250 L5.053698,5.878085 L5.030702,5.893720 L5.007571,5.909154 L4.984306,5.924386 L4.960909,5.939414 L4.937381,5.954238 L4.913726,5.968855 L4.889943,5.983266 L4.866036,5.997469 L4.842006,6.011462 L4.817855,6.025246 L4.793584,6.038818 L4.769196,6.052178 L4.744692,6.065324 L4.720075,6.078257 L4.695345,6.090974 L4.670506,6.103475 L4.645558,6.115759 L4.620505,6.127824 L4.595347,6.139671 L4.570086,6.151298 L4.544725,6.162704 L4.519266,6.173888 L4.493710,6.184850 L4.468059,6.195588 L4.442316,6.206102 L4.416482,6.216391 L4.390559,6.226455 L4.364549,6.236291 L4.338455,6.245901 L4.312277,6.255283 L4.286019,6.264435 L4.259682,6.273359 L4.233268,6.282052 L4.206779,6.290515 L4.180218,6.298746 L4.153585,6.306745 L4.126884,6.314511 L4.100116,6.322045 L4.073284,6.329344 L4.046389,6.336409 L4.019433,6.343239 L3.992418,6.349834 L3.965347,6.356193 L3.938222,6.362315 L3.911044,6.368201 L3.883816,6.373849 L3.856540,6.379260 L3.829218,6.384432 L3.801851,6.389366 L3.774443,6.394060 L3.746994,6.398516 L3.719508,6.402732 L3.691986,6.406708 L3.664430,6.410444 L3.636843,6.413939 L3.609226,6.417193 L3.581582,6.420207 L3.553913,6.422979 L3.526221,6.425509 L3.498508,6.427798 L3.470775,6.429845 L3.443026,6.431650 L3.415262,6.433213 L3.387486,6.434534 L3.359699,6.435612 L3.331904,6.436448 L3.304103,6.437041 L3.276297,6.437392 L3.248490,6.437500 L3.220682,6.437365 L3.192877,6.436988 L3.165077,6.436369 L3.137282,6.435506 L3.109496,6.434402 L3.081721,6.433055 L3.053959,6.431466 L3.026212,6.429634 L2.998481,6.427561 L2.970770,6.425246 L2.943080,6.422689 L2.915414,6.419891 L2.887773,6.416851 L2.860159,6.413571 L2.832575,6.410050 L2.805023,6.406288 L2.777505,6.402286 L2.750023,6.398044 L2.722579,6.393562 L2.695175,6.388841 L2.667813,6.383882 L2.640495,6.378683 L2.613224,6.373247 L2.586001,6.367573 L2.558829,6.361662 L2.531710,6.355514 L2.504645,6.349129 L2.477637,6.342509 L2.450687,6.335653 L2.423799,6.328563 L2.396973,6.321238 L2.370212,6.313679 L2.343519,6.305887 L2.316894,6.297863 L2.290340,6.289607 L2.263859,6.281119 L2.237454,6.272401 L2.211125,6.263452 L2.184876,6.254275 L2.158707,6.244868 L2.132622,6.235234 L2.106621,6.225373 L2.080708,6.215285 L2.054884,6.204971 L2.029150,6.194432 L2.003510,6.183670 L1.977964,6.172684 L1.952515,6.161476 L1.927165,6.150046 L1.901916,6.138395 L1.876769,6.126524 L1.851727,6.114435 L1.826791,6.102128 L1.801963,6.089603 L1.777246,6.076863 L1.752641,6.063907 L1.728150,6.050737 L1.703774,6.037354 L1.679516,6.023759 L1.655378,6.009952 L1.631361,5.995936 L1.607468,5.981711 L1.583699,5.967278 L1.560057,5.952637 L1.536544,5.937792 L1.513161,5.922741 L1.489910,5.907488 L1.466794,5.892032 L1.443813,5.876375 L1.420969,5.860518 L1.398265,5.844462 L1.375702,5.828209 L1.353281,5.811760 L1.331004,5.795115 L1.308874,5.778277 L1.286892,5.761247 L1.265058,5.744025 L1.243376,5.726614 L1.221847,5.709014 L1.200472,5.691227 L1.179253,5.673255 L1.158191,5.655097 L1.137289,5.636757 L1.116548,5.618235 L1.095969,5.599533 L1.075554,5.580652 L1.055304,5.561594 L1.035221,5.542359 L1.015307,5.522951 L0.995563,5.503369 L0.975991,5.483616 L0.956592,5.463692 L0.937367,5.443601 L0.918318,5.423342 L0.899447,5.402918 L0.880754,5.382330 L0.862242,5.361580 L0.843912,5.340669 L0.825765,5.319599 L0.807802,5.298371 L0.790025,5.276988 L0.772435,5.255450 L0.755034,5.233760 L0.737823,5.211918 L0.720803,5.189928 L0.703976,5.167790 L0.687342,5.145505 L0.670903,5.123077 L0.654661,5.100506 L0.638616,5.077794 L0.622770,5.054943 L0.607124,5.031954 L0.591679,5.008830 L0.576436,4.985573 L0.561397,4.962183 L0.546562,4.938662 L0.531933,4.915013 L0.517511,4.891238 L0.503297,4.867338 L0.489292,4.843314 L0.475498,4.819169 L0.461914,4.794905 L0.448542,4.770523 L0.435384,4.746026 L0.422440,4.721414 L0.409711,4.696691 L0.397198,4.671858 L0.384903,4.646916 L0.372825,4.621868 L0.360967,4.596716 L0.349328,4.571461 L0.337910,4.546105 L0.326714,4.520651 L0.315740,4.495100 L0.304990,4.469455 L0.294463,4.443716 L0.284162,4.417887 L0.274086,4.391969 L0.264237,4.365964 L0.254615,4.339874 L0.245221,4.313701 L0.236056,4.287447 L0.227120,4.261114 L0.218414,4.234704 L0.209939,4.208220 L0.201695,4.181662 L0.193683,4.155033 L0.185904,4.128336 L0.178358,4.101572 L0.171046,4.074743 L0.163968,4.047851 L0.157126,4.020898 L0.150518,3.993887 L0.144146,3.966819 L0.138011,3.939696 L0.132113,3.912522 L0.126452,3.885296 L0.121028,3.858022 L0.115843,3.830703 L0.110896,3.803338 L0.106188,3.775932 L0.101720,3.748486 L0.097491,3.721001 L0.093502,3.693481 L0.089753,3.665927 L0.086245,3.638342 L0.082977,3.610727 L0.079951,3.583084 L0.077166,3.555416 L0.074622,3.527725 L0.072320,3.500013 L0.070260,3.472282 L0.068442,3.444534 L0.066866,3.416771 L0.065532,3.388995 L0.064441,3.361209 L0.063592,3.333414 L0.062985,3.305613 L0.062621,3.277807 L0.062500,3.250000 L0.062621,3.222193 L0.062985,3.194387 L0.063592,3.166586 L0.064441,3.138791 L0.065532,3.111005 L0.066866,3.083229 L0.068442,3.055466 L0.070260,3.027718 L0.072320,2.999987 L0.074622,2.972275 L0.077166,2.944584 L0.079951,2.916916 L0.082977,2.889273 L0.086245,2.861658 L0.089753,2.834073 L0.093502,2.806519 L0.097491,2.778999 L0.101720,2.751514 L0.106188,2.724068 L0.110896,2.696662 L0.115843,2.669297 L0.121028,2.641978 L0.126452,2.614704 L0.132113,2.587478 L0.138011,2.560304 L0.144146,2.533181 L0.150518,2.506113 L0.157126,2.479102 L0.163968,2.452149 L0.171046,2.425257 L0.178358,2.398428 L0.185904,2.371664 L0.193683,2.344967 L0.201695,2.318338 L0.209939,2.291780 L0.218414,2.265296 L0.227120,2.238886 L0.236056,2.212553 L0.245221,2.186299 L0.254615,2.160126 L0.264237,2.134036 L0.274086,2.108031 L0.284162,2.082113 L0.294463,2.056284 L0.304990,2.030545 L0.315740,2.004900 L0.326714,1.979349 L0.337910,1.953895 L0.349328,1.928539 L0.360967,1.903284 L0.372825,1.878132 L0.384903,1.853084 L0.397198,1.828142 L0.409711,1.803309 L0.422440,1.778586 L0.435384,1.753974 L0.448542,1.729477 L0.461914,1.705095 L0.475498,1.680831 L0.489292,1.656686 L0.503297,1.632662 L0.517511,1.608762 L0.531933,1.584987 L0.546562,1.561338 L0.561397,1.537817 L0.576436,1.514427 L0.591679,1.491170 L0.607124,1.468046 L0.622770,1.445057 L0.638616,1.422206 L0.654661,1.399494 L0.670903,1.376923 L0.687342,1.354495 L0.703976,1.332210 L0.720803,1.310072 L0.737823,1.288082 L0.755034,1.266240 L0.772435,1.244550 L0.790025,1.223012 L0.807802,1.201629 L0.825765,1.180401 L0.843912,1.159331 L0.862242,1.138420 L0.880754,1.117670 L0.899447,1.097082 L0.918318,1.076658 L0.937367,1.056399 L0.956592,1.036308 L0.975991,1.016384 L0.995563,0.996631 L1.015307,0.977049 L1.035221,0.957641 L1.055304,0.938406 L1.075554,0.919348 L1.095969,0.900467 L1.116548,0.881765 L1.137289,0.863243 L1.158191,0.844903 L1.179253,0.826745 L1.200472,0.808773 L1.221847,0.790986 L1.243376,0.773386 L1.265058,0.755975 L1.286892,0.738753 L1.308874,0.721723 L1.331004,0.704885 L1.353281,0.688240 L1.375702,0.671791 L1.398265,0.655538 L1.420969,0.639482 L1.443813,0.623625 L1.466794,0.607968 L1.489910,0.592512 L1.513161,0.577259 L1.536544,0.562208 L1.560057,0.547363 L1.583699,0.532722 L1.607468,0.518289 L1.631361,0.504064 L1.655378,0.490048 L1.679516,0.476241 L1.703774,0.462646 L1.728150,0.449263 L1.752641,0.436093 L1.777246,0.423137 L1.801963,0.410397 L1.826791,0.397872 L1.851727,0.385565 L1.876769,0.373476 L1.901916,0.361605 L1.927165,0.349954 L1.952515,0.338524 L1.977964,0.327316 L2.003510,0.316330 L2.029150,0.305568 L2.054884,0.295029 L2.080708,0.284715 L2.106621,0.274627 L2.132622,0.264766 L2.158707,0.255132 L2.184876,0.245725 L2.211125,0.236548 L2.237454,0.227599 L2.263859,0.218881 L2.290340,0.210393 L2.316894,0.202137 L2.343519,0.194113 L2.370212,0.186321 L2.396973,0.178762 L2.423799,0.171437 L2.450687,0.164347 L2.477637,0.157491 L2.504645,0.150871 L2.531710,0.144486 L2.558829,0.138338 L2.586001,0.132427 L2.613224,0.126753 L2.640495,0.121317 L2.667813,0.116118 L2.695175,0.111159 L2.722579,0.106438 L2.750023,0.101956 L2.777505,0.097714 L2.805023,0.093712 L2.832575,0.089950 L2.860159,0.086429 L2.887773,0.083149 L2.915414,0.080109 L2.943080,0.077311 L2.970770,0.074754 L2.998481,0.072439 L3.026212,0.070366 L3.053959,0.068534 L3.081721,0.066945 L3.109496,0.065598 L3.137282,0.064494 L3.165077,0.063631 L3.192877,0.063012 L3.220682,0.062635 L3.248490,0.062500 L3.276297,0.062608 L3.304103,0.062959 L3.331904,0.063552 L3.359699,0.064388 L3.387486,0.065466 L3.415262,0.066787 L3.443026,0.068350 L3.470775,0.070155 L3.498508,0.072202 L3.526221,0.074491 L3.553913,0.077021 L3.581582,0.079793 L3.609226,0.082807 L3.636843,0.086061 L3.664430,0.089556 L3.691986,0.093292 L3.719508,0.097268 L3.746994,0.101484 L3.774443,0.105940 L3.801851,0.110634 L3.829218,0.115568 L3.856540,0.120740 L3.883816,0.126151 L3.911044,0.131799 L3.938222,0.137685 L3.965347,0.143807 L3.992418,0.150166 L4.019433,0.156761 L4.046389,0.163591 L4.073284,0.170656 L4.100116,0.177955 L4.126884,0.185489 L4.153585,0.193255 L4.180218,0.201254 L4.206779,0.209485 L4.233268,0.217948 L4.259682,0.226641 L4.286019,0.235565 L4.312277,0.244717 L4.338455,0.254099 L4.364549,0.263709 L4.390559,0.273545 L4.416482,0.283609 L4.442316,0.293898 L4.468059,0.304412 L4.493710,0.315150 L4.519266,0.326112 L4.544725,0.337296 L4.570086,0.348702 L4.595347,0.360329 L4.620505,0.372176 L4.645558,0.384241 L4.670506,0.396525 L4.695345,0.409026 L4.720075,0.421743 L4.744692,0.434676 L4.769196,0.447822 L4.793584,0.461182 L4.817855,0.474754 L4.842006,0.488538 L4.866036,0.502531 L4.889943,0.516734 L4.913726,0.531145 L4.937381,0.545762 L4.960909,0.560586 L4.984306,0.575614 L5.007571,0.590846 L5.030702,0.606280 L5.053698,0.621915 L5.076556,0.637750 L5.099276,0.653784 L5.121855,0.670016 L5.144291,0.686444 L5.166583,0.703067 L5.188729,0.719884 L5.210728,0.736894 L5.232578,0.754095 L5.254276,0.771486 L5.275822,0.789065 L5.297214,0.806832 L5.318450,0.824784 L5.339529,0.842922 L5.360448,0.861242 L5.381207,0.879744 L5.401804,0.898427 L5.422237,0.917289 L5.442505,0.936328 L5.462606,0.955543 L5.482538,0.974933 L5.502301,0.994496 L5.521892,1.014231 L5.541310,1.034135 L5.560554,1.054209 L5.579622,1.074450 L5.598512,1.094856 L5.617224,1.115426 L5.635756,1.136159 L5.654106,1.157052 L5.672273,1.178105 L5.690256,1.199316 L5.708053,1.220682 L5.725663,1.242203 L5.743085,1.263877 L5.760317,1.285702 L5.777357,1.307677 L5.794206,1.329799 L5.810861,1.352067 L5.827321,1.374480 L5.843584,1.397036 L5.859651,1.419733 L5.875519,1.442569 L5.891187,1.465542 L5.906653,1.488652 L5.921918,1.511895 L5.936980,1.535271 L5.951837,1.558777 L5.966488,1.582412 L5.980932,1.606174 L5.995169,1.630061 L6.009197,1.654071 L6.023014,1.678202 L6.036621,1.702454 L6.050016,1.726823 L6.063197,1.751308 L6.076165,1.775907 L6.088917,1.800618 L6.101453,1.825440 L6.113772,1.850370 L6.125874,1.875406 L6.137756,1.900548 L6.149419,1.925791 L6.160860,1.951136 L6.172081,1.976580 L6.183079,2.002120 L6.193854,2.027755 L6.204404,2.053484 L6.214730,2.079303 L6.224830,2.105212 L6.234704,2.131208 L6.244351,2.157288 L6.253770,2.183452 L6.275935,2.238795 L6.278629,2.244748 L6.281376,2.250678 L6.284174,2.256583 L6.287023,2.262464 L6.289923,2.268319 L6.292875,2.274150 L6.295877,2.279954 L6.298929,2.285732 L6.302032,2.291483 L6.305185,2.297207 L6.308387,2.302903 L6.311639,2.308571 L6.314941,2.314210 L6.318291,2.319821 L6.321690,2.325402 L6.325137,2.330953 L6.328633,2.336474 L6.332177,2.341964 L6.335768,2.347424 L6.339407,2.352851 L6.343093,2.358247 L6.346826,2.363611 L6.350606,2.368941 L6.354431,2.374239 L6.358303,2.379503 L6.362221,2.384733 L6.366184,2.389929 L6.370192,2.395090 L6.374244,2.400216 L6.378342,2.405307 L6.382483,2.410362 L6.386669,2.415380 L6.390898,2.420362 L6.395170,2.425306 L6.399485,2.430213 L6.403843,2.435083 L6.408243,2.439914 L6.412685,2.444707 L6.417169,2.449461 L6.421693,2.454176 L6.426259,2.458851 L6.430865,2.463486 L6.435512,2.468080 L6.440198,2.472635 L6.444924,2.477148 L6.449689,2.481620 L6.454493,2.486050 L6.459335,2.490438 L6.464215,2.494783 L6.469133,2.499086 L6.474088,2.503346 L6.479080,2.507563 L6.484109,2.511736 L6.489174,2.515865 L6.494275,2.519950 L6.499411,2.523990 L6.504582,2.527985 L6.509787,2.531935 L6.515027,2.535840 L6.520301,2.539699 L6.525608,2.543511 L6.530948,2.547278 L6.536321,2.550997 L6.541726,2.554670 L6.547162,2.558295 L6.552631,2.561873 L6.558130,2.565403 L6.563659,2.568885 L6.569219,2.572319 L6.574808,2.575704 L6.580427,2.579041 L6.586075,2.582328 L6.591751,2.585566 L6.597455,2.588754 L6.603186,2.591893 L6.608945,2.594982 L6.614731,2.598020 L6.620542,2.601007 L6.626380,2.603944 L6.632243,2.606830 L6.638130,2.609665 L6.644043,2.612449 L6.649979,2.615180 L6.655939,2.617860 L6.661922,2.620488 L6.667927,2.623064 L6.673955,2.625587 L6.680005,2.628058 L6.686076,2.630476 L6.692167,2.632840 L6.698279,2.635152 L6.704411,2.637410 L6.710563,2.639615 L6.716733,2.641766 L6.722922,2.643864 L6.729129,2.645907 L6.735354,2.647896 L6.741595,2.649831 L6.747854,2.651711 L6.754128,2.653537 L6.760418,2.655308 L6.766723,2.657024 L6.773043,2.658686 L6.779378,2.660292 L6.785726,2.661842 L6.792087,2.663338 L6.798461,2.664778 L6.804847,2.666162 L6.811245,2.667491 L6.817655,2.668764 L6.824075,2.669981 L6.830506,2.671142 L6.836947,2.672247 L6.843396,2.673295 L6.849855,2.674288 L6.856323,2.675224 L6.862798,2.676104 L6.869280,2.676927 L6.875770,2.677694 L6.882266,2.678404 L6.888768,2.679058 L6.895275,2.679655 L6.901787,2.680195 L6.908304,2.680679 L6.914825,2.681106 L6.921349,2.681475 L6.927876,2.681788 L6.934406,2.682045 L6.940937,2.682244 L6.947470,2.682386 L6.954004,2.682472 L6.960539,2.682500 L8.363802,2.682506 L8.365103,2.682523 L8.366405,2.682551 L8.367706,2.682590 L8.369007,2.682641 L8.370307,2.682703 L8.371607,2.682777 L8.372906,2.682861 L8.374204,2.682957 L8.375501,2.683065 L8.376798,2.683183 L8.378093,2.683313 L8.379387,2.683454 L8.380680,2.683606 L8.381971,2.683769 L8.383261,2.683944 L8.384550,2.684129 L8.385837,2.684326 L8.387122,2.684535 L8.388405,2.684754 L8.389686,2.684984 L8.390965,2.685226 L8.392242,2.685478 L8.393517,2.685742 L8.394789,2.686017 L8.396059,2.686302 L8.397327,2.686599 L8.398592,2.686907 L8.399854,2.687225 L8.401113,2.687555 L8.402370,2.687896 L8.403623,2.688247 L8.404873,2.688609 L8.406121,2.688983 L8.407364,2.689367 L8.408605,2.689761 L8.409842,2.690167 L8.411075,2.690583 L8.412305,2.691010 L8.413531,2.691447 L8.414753,2.691896 L8.415972,2.692354 L8.417186,2.692824 L8.418396,2.693304 L8.419602,2.693794 L8.420803,2.694295 L8.422000,2.694806 L8.423193,2.695327 L8.424381,2.695859 L8.425565,2.696401 L8.426744,2.696954 L8.427917,2.697516 L8.429086,2.698089 L8.430250,2.698672 L8.431409,2.699265 L8.432563,2.699868 L8.433711,2.700481 L8.434854,2.701104 L8.435992,2.701737 L8.437124,2.702380 L8.438250,2.703032 L8.439371,2.703695 L8.440486,2.704367 L8.441595,2.705048 L8.442698,2.705739 L8.443795,2.706440 L8.444886,2.707150 L8.445971,2.707870 L8.447049,2.708599 L8.448121,2.709338 L8.449187,2.710085 L8.450246,2.710842 L8.451298,2.711608 L8.452344,2.712383 L8.453383,2.713168 L8.454415,2.713961 L8.455441,2.714763 L8.456459,2.715574 L8.457470,2.716394 L8.458474,2.717222 L8.459471,2.718060 L8.460461,2.718905 L8.461443,2.719760 L8.462417,2.720623 L8.463384,2.721494 L8.464344,2.722374 L8.465296,2.723262 L8.466240,2.724158 L8.467176,2.725062 L8.468105,2.725975 L8.469025,2.726895 L8.469938,2.727824 L8.470842,2.728760 L8.471738,2.729704 L8.472626,2.730656 L8.473506,2.731616 L8.474377,2.732583 L8.475240,2.733557 L8.476095,2.734539 L8.476940,2.735529 L8.477778,2.736526 L8.478606,2.737530 L8.479426,2.738541 L8.480237,2.739559 L8.481039,2.740585 L8.481832,2.741617 L8.482617,2.742656 L8.483392,2.743702 L8.484158,2.744754 L8.484915,2.745813 L8.485662,2.746879 L8.486401,2.747951 L8.487130,2.749029 L8.487850,2.750114 L8.488560,2.751205 L8.489261,2.752302 L8.489952,2.753405 L8.490633,2.754514 L8.491305,2.755629 L8.491968,2.756750 L8.492620,2.757876 L8.493263,2.759008 L8.493896,2.760146 L8.494519,2.761289 L8.495132,2.762437 L8.495735,2.763591 L8.496328,2.764750 L8.496911,2.765914 L8.497484,2.767083 L8.498046,2.768256 L8.498599,2.769435 L8.499141,2.770619 L8.499673,2.771807 L8.500194,2.773000 L8.500705,2.774197 L8.501206,2.775398 L8.501696,2.776604 L8.502176,2.777814 L8.502646,2.779028 L8.503104,2.780247 L8.503553,2.781469 L8.503990,2.782695 L8.504417,2.783925 L8.504833,2.785158 L8.505239,2.786395 L8.505633,2.787636 L8.506017,2.788879 L8.506391,2.790127 L8.506753,2.791377 L8.507104,2.792630 L8.507445,2.793887 L8.507775,2.795146 L8.508093,2.796408 L8.508401,2.797673 L8.508698,2.798941 L8.508983,2.800211 L8.509258,2.801483 L8.509522,2.802758 L8.509774,2.804035 L8.510016,2.805314 L8.510246,2.806595 L8.510465,2.807878 L8.510674,2.809163 L8.510871,2.810450 L8.511056,2.811739 L8.511231,2.813029 L8.511394,2.814320 L8.511546,2.815613 L8.511687,2.816907 L8.511817,2.818202 L8.511935,2.819499 L8.512043,2.820796 L8.512139,2.822094 L8.512223,2.823393 L8.512297,2.824693 L8.512359,2.825993 L8.512410,2.827294 L8.512449,2.828595 L8.512477,2.829897 L8.512494,2.831198 L8.512500,2.832500 L8.512494,3.668802 L8.512477,3.670103 L8.512449,3.671405 L8.512410,3.672706 L8.512359,3.674007 L8.512297,3.675307 L8.512223,3.676607 L8.512139,3.677906 L8.512043,3.679204 L8.511935,3.680501 L8.511817,3.681798 L8.511687,3.683093 L8.511546,3.684387 L8.511394,3.685680 L8.511231,3.686971 L8.511056,3.688261 L8.510871,3.689550 L8.510674,3.690837 L8.510465,3.692122 L8.510246,3.693405 L8.510016,3.694686 L8.509774,3.695965 L8.509522,3.697242 L8.509258,3.698517 L8.508983,3.699789 L8.508698,3.701059 L8.508401,3.702327 L8.508093,3.703592 L8.507775,3.704854 L8.507445,3.706113 L8.507104,3.707370 L8.506753,3.708623 L8.506391,3.709873 L8.506017,3.711121 L8.505633,3.712364 L8.505239,3.713605 L8.504833,3.714842 L8.504417,3.716075 L8.503990,3.717305 L8.503553,3.718531 L8.503104,3.719753 L8.502646,3.720972 L8.502176,3.722186 L8.501696,3.723396 L8.501206,3.724602 L8.500705,3.725803 L8.500194,3.727000 L8.499673,3.728193 L8.499141,3.729381 L8.498599,3.730565 L8.498046,3.731744 L8.497484,3.732917 L8.496911,3.734086 L8.496328,3.735250 L8.495735,3.736409 L8.495132,3.737563 L8.494519,3.738711 L8.493896,3.739854 L8.493263,3.740992 L8.492620,3.742124 L8.491968,3.743250 L8.491305,3.744371 L8.490633,3.745486 L8.489952,3.746595 L8.489261,3.747698 L8.488560,3.748795 L8.487850,3.749886 L8.487130,3.750971 L8.486401,3.752049 L8.485662,3.753121 L8.484915,3.754187 L8.484158,3.755246 L8.483392,3.756298 L8.482617,3.757344 L8.481832,3.758383 L8.481039,3.759415 L8.480237,3.760441 L8.479426,3.761459 L8.478606,3.762470 L8.477778,3.763474 L8.476940,3.764471 L8.476095,3.765461 L8.475240,3.766443 L8.474377,3.767417 L8.473506,3.768384 L8.472626,3.769344 L8.471738,3.770296 L8.470842,3.771240 L8.469938,3.772176 L8.469025,3.773105 L8.468105,3.774025 L8.467176,3.774938 L8.466240,3.775842 L8.465296,3.776738 L8.464344,3.777626 L8.463384,3.778506 L8.462417,3.779377 L8.461443,3.780240 L8.460461,3.781095 L8.459471,3.781940 L8.458474,3.782778 L8.457470,3.783606 L8.456459,3.784426 L8.455441,3.785237 L8.454415,3.786039 L8.453383,3.786832 L8.452344,3.787617 L8.451298,3.788392 L8.450246,3.789158 L8.449187,3.789915 L8.448121,3.790662 L8.447049,3.791401 L8.445971,3.792130 L8.444886,3.792850 L8.443795,3.793560 L8.442698,3.794261 L8.441595,3.794952 L8.440486,3.795633 L8.439371,3.796305 L8.438250,3.796968 L8.437124,3.797620 L8.435992,3.798263 L8.434854,3.798896 L8.433711,3.799519 L8.432563,3.800132 L8.431409,3.800735 L8.430250,3.801328 L8.429086,3.801911 L8.427917,3.802484 L8.426744,3.803046 L8.425565,3.803599 L8.424381,3.804141 L8.423193,3.804673 L8.422000,3.805194 L8.420803,3.805705 L8.419602,3.806206 L8.418396,3.806696 L8.417186,3.807176 L8.415972,3.807646 L8.414753,3.808104 L8.413531,3.808553 L8.412305,3.808990 L8.411075,3.809417 L8.409842,3.809833 L8.408605,3.810239 L8.407364,3.810633 L8.406121,3.811017 L8.404873,3.811391 L8.403623,3.811753 L8.402370,3.812104 L8.401113,3.812445 L8.399854,3.812775 L8.398592,3.813093 L8.397327,3.813401 L8.396059,3.813698 L8.394789,3.813983 L8.393517,3.814258 L8.392242,3.814522 L8.390965,3.814774 L8.389686,3.815016 L8.388405,3.815246 L8.387122,3.815465 L8.385837,3.815674 L8.384550,3.815871 L8.383261,3.816056 L8.381971,3.816231 L8.380680,3.816394 L8.379387,3.816546 L8.378093,3.816687 L8.376798,3.816817 L8.375501,3.816935 L8.374204,3.817043 L8.372906,3.817139 L8.371607,3.817223 L8.370307,3.817297 L8.369007,3.817359 L8.367706,3.817410 L8.366405,3.817449 L8.365103,3.817477 L8.363802,3.817494 L8.362500,3.817500 L6.953999,3.817529 L6.947459,3.817614 L6.940920,3.817757 L6.934382,3.817956 L6.927847,3.818213 L6.921314,3.818526 L6.914784,3.818897 L6.908258,3.819324 L6.901735,3.819809 L6.895217,3.820350 L6.888704,3.820948 L6.882196,3.821603 L6.875695,3.822314 L6.869199,3.823083 L6.862711,3.823908 L6.856230,3.824789 L6.849758,3.825727 L6.843293,3.826721 L6.836838,3.827772 L6.830391,3.828879 L6.823955,3.830042 L6.817529,3.831261 L6.811114,3.832536 L6.804711,3.833867 L6.798319,3.835254 L6.791940,3.836696 L6.785573,3.838194 L6.779220,3.839748 L6.772880,3.841357 L6.766555,3.843021 L6.760245,3.844740 L6.753949,3.846514 L6.747670,3.848343 L6.741406,3.850227 L6.735160,3.852165 L6.728930,3.854158 L6.722718,3.856205 L6.716524,3.858305 L6.710349,3.860460 L6.704193,3.862669 L6.698056,3.864931 L6.691939,3.867247 L6.685843,3.869616 L6.679767,3.872038 L6.673713,3.874513 L6.667681,3.877041 L6.661671,3.879621 L6.655684,3.882253 L6.649720,3.884938 L6.643779,3.887674 L6.637863,3.890462 L6.631971,3.893302 L6.626104,3.896193 L6.620262,3.899135 L6.614447,3.902128 L6.608658,3.905171 L6.602895,3.908265 L6.597160,3.911409 L6.591452,3.914603 L6.585773,3.917846 L6.580122,3.921139 L6.574499,3.924481 L6.568907,3.927872 L6.563344,3.931312 L6.557811,3.934800 L6.552309,3.938336 L6.546837,3.941919 L6.541398,3.945551 L6.535990,3.949230 L6.530614,3.952956 L6.525272,3.956728 L6.519962,3.960547 L6.514686,3.964412 L6.509443,3.968323 L6.504235,3.972280 L6.499062,3.976282 L6.493924,3.980329 L6.488821,3.984420 L6.483754,3.988556 L6.478724,3.992736 L6.473730,3.996959 L6.468773,4.001226 L6.463853,4.005536 L6.458972,4.009889 L6.454128,4.014284 L6.449323,4.018721 L6.444557,4.023200 L6.439830,4.027720 L6.435142,4.032282 L6.430495,4.036884 L6.425888,4.041526 L6.421321,4.046209 L6.416796,4.050931 L6.412312,4.055692 L6.407870,4.060493 L6.403469,4.065332 L6.399111,4.070209 L6.394796,4.075123 L6.390524,4.080076 L6.386295,4.085065 L6.382109,4.090091 L6.377968,4.095154 L6.373871,4.100252 L6.369819,4.105386 L6.365811,4.110555 L6.361849,4.115758 L6.357933,4.120996 L6.354062,4.126268 L6.350237,4.131574 L6.346459,4.136913 L6.342727,4.142284 L6.339042,4.147688 L6.335405,4.153124 L6.331815,4.158591 L6.328273,4.164090 L6.324779,4.169619 L6.321334,4.175178 L6.317937,4.180767 L6.314589,4.186386 L6.311290,4.192033 L6.308040,4.197709 L6.304840,4.203413 L6.301690,4.209145 L6.298590,4.214904 L6.295541,4.220690 L6.292541,4.226503 L6.289593,4.232341 L6.286696,4.238205 L6.283850,4.244094 L6.281055,4.250007 L6.278312,4.255944 L6.275621,4.261906 L6.272983,4.267890 L6.270396,4.273897 L6.267862,4.279927 L6.265380,4.285978 L6.262952,4.292051 L6.260576,4.298145 L6.258254,4.304259 L6.255985,4.310394 L6.253770,4.316548 z" />

<!-- Film cutout 2.6750x2.2000" -->
  <path stroke="black" fill="none" stroke-width=".01" d="M2.150000,1.912500 l2.200000,0 l0,2.675000 l-2.200000,0 z" />

<!-- Aligner pins 0.7500" diam -->
  <path stroke="black" fill="none" stroke-width=".01" d=" M2.032500,2.287500 L2.032486,2.290768 L2.032443,2.294036 L2.032372,2.297303 L2.032272,2.300569 L2.032144,2.303835 L2.031987,2.307099 L2.031802,2.310361 L2.031589,2.313622 L2.031347,2.316881 L2.031077,2.320138 L2.030778,2.323392 L2.030451,2.326644 L2.030096,2.329893 L2.029713,2.333138 L2.029301,2.336380 L2.028861,2.339618 L2.028392,2.342852 L2.027896,2.346082 L2.027371,2.349308 L2.026819,2.352529 L2.026238,2.355745 L2.025629,2.358955 L2.024993,2.362161 L2.024328,2.365360 L2.023636,2.368554 L2.022915,2.371742 L2.022167,2.374923 L2.021392,2.378097 L2.020588,2.381265 L2.019757,2.384426 L2.018899,2.387579 L2.018013,2.390724 L2.017100,2.393862 L2.016159,2.396992 L2.015192,2.400113 L2.014197,2.403226 L2.013175,2.406330 L2.012126,2.409425 L2.011050,2.412511 L2.009947,2.415587 L2.008817,2.418653 L2.007661,2.421710 L2.006478,2.424756 L2.005269,2.427792 L2.004033,2.430818 L2.002771,2.433832 L2.001483,2.436835 L2.000168,2.439827 L1.998828,2.442808 L1.997461,2.445776 L1.996069,2.448733 L1.994651,2.451677 L1.993208,2.454609 L1.991739,2.457528 L1.990244,2.460434 L1.988725,2.463327 L1.987180,2.466207 L1.985610,2.469073 L1.984015,2.471926 L1.982396,2.474764 L1.980751,2.477588 L1.979083,2.480398 L1.977389,2.483193 L1.975672,2.485973 L1.973930,2.488738 L1.972165,2.491488 L1.970375,2.494223 L1.968562,2.496941 L1.966725,2.499644 L1.964864,2.502331 L1.962980,2.505001 L1.961073,2.507655 L1.959143,2.510292 L1.957190,2.512912 L1.955215,2.515515 L1.953216,2.518101 L1.951195,2.520669 L1.949152,2.523220 L1.947087,2.525753 L1.945000,2.528267 L1.942891,2.530763 L1.940760,2.533241 L1.938608,2.535700 L1.936434,2.538141 L1.934239,2.540562 L1.932024,2.542964 L1.929787,2.545346 L1.927530,2.547709 L1.925252,2.550053 L1.922954,2.552376 L1.920635,2.554679 L1.918297,2.556962 L1.915939,2.559225 L1.913561,2.561466 L1.911164,2.563688 L1.908748,2.565888 L1.906312,2.568066 L1.903858,2.570224 L1.901385,2.572360 L1.898893,2.574475 L1.896383,2.576567 L1.893855,2.578638 L1.891309,2.580687 L1.888745,2.582713 L1.886163,2.584717 L1.883565,2.586699 L1.880949,2.588657 L1.878316,2.590593 L1.875666,2.592506 L1.873000,2.594395 L1.870317,2.596262 L1.867619,2.598105 L1.864904,2.599924 L1.862173,2.601719 L1.859427,2.603491 L1.856666,2.605239 L1.853890,2.606962 L1.851098,2.608662 L1.848292,2.610336 L1.845471,2.611987 L1.842637,2.613613 L1.839788,2.615214 L1.836925,2.616790 L1.834049,2.618341 L1.831159,2.619867 L1.828256,2.621367 L1.825340,2.622843 L1.822411,2.624293 L1.819470,2.625717 L1.816516,2.627116 L1.813551,2.628488 L1.810573,2.629835 L1.807584,2.631156 L1.804584,2.632451 L1.801572,2.633720 L1.798550,2.634962 L1.795516,2.636178 L1.792473,2.637368 L1.789419,2.638531 L1.786354,2.639667 L1.783281,2.640776 L1.780197,2.641859 L1.777105,2.642915 L1.774003,2.643944 L1.770892,2.644945 L1.767773,2.645920 L1.764645,2.646867 L1.761510,2.647787 L1.758366,2.648680 L1.755215,2.649545 L1.752056,2.650383 L1.748890,2.651193 L1.745717,2.651976 L1.742538,2.652731 L1.739352,2.653458 L1.736159,2.654157 L1.732961,2.654829 L1.729757,2.655473 L1.726548,2.656088 L1.723333,2.656676 L1.720113,2.657236 L1.716889,2.657767 L1.713660,2.658271 L1.710427,2.658746 L1.707190,2.659193 L1.703949,2.659612 L1.700704,2.660003 L1.697456,2.660365 L1.694206,2.660699 L1.690952,2.661005 L1.687696,2.661282 L1.684437,2.661531 L1.681177,2.661752 L1.677915,2.661944 L1.674651,2.662108 L1.671386,2.662243 L1.668119,2.662350 L1.664852,2.662428 L1.661585,2.662478 L1.658317,2.662499 L1.655049,2.662492 L1.651781,2.662456 L1.648514,2.662392 L1.645247,2.662300 L1.641982,2.662179 L1.638717,2.662029 L1.635454,2.661851 L1.632193,2.661645 L1.628933,2.661410 L1.625676,2.661147 L1.622421,2.660856 L1.619169,2.660536 L1.615919,2.660188 L1.612673,2.659811 L1.609430,2.659406 L1.606191,2.658973 L1.602956,2.658512 L1.599725,2.658023 L1.596498,2.657505 L1.593276,2.656959 L1.590059,2.656386 L1.586847,2.655784 L1.583640,2.655154 L1.580439,2.654497 L1.577244,2.653811 L1.574055,2.653098 L1.570872,2.652357 L1.567696,2.651588 L1.564526,2.650792 L1.561364,2.649968 L1.558209,2.649116 L1.555061,2.648237 L1.551922,2.647331 L1.548790,2.646397 L1.545666,2.645436 L1.542551,2.644448 L1.539445,2.643433 L1.536348,2.642390 L1.533260,2.641321 L1.530181,2.640225 L1.527112,2.639102 L1.524053,2.637952 L1.521004,2.636776 L1.517966,2.635574 L1.514938,2.634344 L1.511921,2.633089 L1.508915,2.631807 L1.505920,2.630499 L1.502936,2.629165 L1.499965,2.627805 L1.497005,2.626420 L1.494058,2.625008 L1.491123,2.623571 L1.488201,2.622108 L1.485291,2.620620 L1.482395,2.619107 L1.479512,2.617568 L1.476642,2.616005 L1.473786,2.614416 L1.470944,2.612803 L1.468116,2.611165 L1.465303,2.609502 L1.462504,2.607815 L1.459720,2.606104 L1.456951,2.604368 L1.454198,2.602608 L1.451459,2.600825 L1.448737,2.599017 L1.446030,2.597186 L1.443339,2.595331 L1.440665,2.593453 L1.438007,2.591552 L1.435366,2.589628 L1.432741,2.587681 L1.430134,2.585711 L1.427544,2.583718 L1.424971,2.581703 L1.422416,2.579665 L1.419879,2.577606 L1.417360,2.575524 L1.414859,2.573420 L1.412377,2.571295 L1.409913,2.569148 L1.407468,2.566980 L1.405042,2.564790 L1.402635,2.562580 L1.400247,2.560348 L1.397879,2.558096 L1.395531,2.555823 L1.393203,2.553530 L1.390895,2.551217 L1.388607,2.548884 L1.386339,2.546530 L1.384092,2.544158 L1.381866,2.541765 L1.379660,2.539354 L1.377476,2.536923 L1.375313,2.534473 L1.373172,2.532005 L1.371052,2.529518 L1.368954,2.527012 L1.366877,2.524488 L1.364823,2.521947 L1.362791,2.519387 L1.360782,2.516810 L1.358795,2.514216 L1.356830,2.511604 L1.354889,2.508976 L1.352970,2.506330 L1.351075,2.503668 L1.349203,2.500990 L1.347354,2.498295 L1.345529,2.495584 L1.343727,2.492857 L1.341950,2.490115 L1.340196,2.487358 L1.338466,2.484585 L1.336761,2.481797 L1.335080,2.478995 L1.333423,2.476178 L1.331792,2.473347 L1.330184,2.470501 L1.328602,2.467642 L1.327045,2.464769 L1.325512,2.461882 L1.324005,2.458983 L1.322524,2.456070 L1.321067,2.453145 L1.319637,2.450206 L1.318232,2.447256 L1.316852,2.444293 L1.315499,2.441319 L1.314171,2.438333 L1.312870,2.435335 L1.311595,2.432326 L1.310346,2.429306 L1.309123,2.426276 L1.307927,2.423234 L1.306758,2.420183 L1.305615,2.417121 L1.304498,2.414050 L1.303409,2.410969 L1.302347,2.407879 L1.301311,2.404779 L1.300302,2.401671 L1.299321,2.398554 L1.298367,2.395428 L1.297440,2.392294 L1.296541,2.389153 L1.295668,2.386003 L1.294824,2.382846 L1.294007,2.379682 L1.293217,2.376511 L1.292455,2.373333 L1.291721,2.370149 L1.291015,2.366958 L1.290336,2.363761 L1.289686,2.360559 L1.289063,2.357351 L1.288468,2.354137 L1.287901,2.350919 L1.287363,2.347696 L1.286852,2.344468 L1.286370,2.341236 L1.285916,2.337999 L1.285490,2.334759 L1.285092,2.331516 L1.284723,2.328269 L1.284382,2.325019 L1.284069,2.321766 L1.283784,2.318510 L1.283528,2.315252 L1.283301,2.311992 L1.283101,2.308730 L1.282931,2.305467 L1.282788,2.302202 L1.282674,2.298936 L1.282589,2.295669 L1.282532,2.292402 L1.282504,2.289134 L1.282504,2.285866 L1.282532,2.282598 L1.282589,2.279331 L1.282674,2.276064 L1.282788,2.272798 L1.282931,2.269533 L1.283101,2.266270 L1.283301,2.263008 L1.283528,2.259748 L1.283784,2.256490 L1.284069,2.253234 L1.284382,2.249981 L1.284723,2.246731 L1.285092,2.243484 L1.285490,2.240241 L1.285916,2.237001 L1.286370,2.233764 L1.286852,2.230532 L1.287363,2.227304 L1.287901,2.224081 L1.288468,2.220863 L1.289063,2.217649 L1.289686,2.214441 L1.290336,2.211239 L1.291015,2.208042 L1.291721,2.204851 L1.292455,2.201667 L1.293217,2.198489 L1.294007,2.195318 L1.294824,2.192154 L1.295668,2.188997 L1.296541,2.185847 L1.297440,2.182706 L1.298367,2.179572 L1.299321,2.176446 L1.300302,2.173329 L1.301311,2.170221 L1.302347,2.167121 L1.303409,2.164031 L1.304498,2.160950 L1.305615,2.157879 L1.306758,2.154817 L1.307927,2.151766 L1.309123,2.148724 L1.310346,2.145694 L1.311595,2.142674 L1.312870,2.139665 L1.314171,2.136667 L1.315499,2.133681 L1.316852,2.130707 L1.318232,2.127744 L1.319637,2.124794 L1.321067,2.121855 L1.322524,2.118930 L1.324005,2.116017 L1.325512,2.113118 L1.327045,2.110231 L1.328602,2.107358 L1.330184,2.104499 L1.331792,2.101653 L1.333423,2.098822 L1.335080,2.096005 L1.336761,2.093203 L1.338466,2.090415 L1.340196,2.087642 L1.341950,2.084885 L1.343727,2.082143 L1.345529,2.079416 L1.347354,2.076705 L1.349203,2.074010 L1.351075,2.071332 L1.352970,2.068670 L1.354889,2.066024 L1.356830,2.063396 L1.358795,2.060784 L1.360782,2.058190 L1.362791,2.055613 L1.364823,2.053053 L1.366877,2.050512 L1.368954,2.047988 L1.371052,2.045482 L1.373172,2.042995 L1.375313,2.040527 L1.377476,2.038077 L1.379660,2.035646 L1.381866,2.033235 L1.384092,2.030842 L1.386339,2.028470 L1.388607,2.026116 L1.390895,2.023783 L1.393203,2.021470 L1.395531,2.019177 L1.397879,2.016904 L1.400247,2.014652 L1.402635,2.012420 L1.405042,2.010210 L1.407468,2.008020 L1.409913,2.005852 L1.412377,2.003705 L1.414859,2.001580 L1.417360,1.999476 L1.419879,1.997394 L1.422416,1.995335 L1.424971,1.993297 L1.427544,1.991282 L1.430134,1.989289 L1.432741,1.987319 L1.435366,1.985372 L1.438007,1.983448 L1.440665,1.981547 L1.443339,1.979669 L1.446030,1.977814 L1.448737,1.975983 L1.451459,1.974175 L1.454198,1.972392 L1.456951,1.970632 L1.459720,1.968896 L1.462504,1.967185 L1.465303,1.965498 L1.468116,1.963835 L1.470944,1.962197 L1.473786,1.960584 L1.476642,1.958995 L1.479512,1.957432 L1.482395,1.955893 L1.485291,1.954380 L1.488201,1.952892 L1.491123,1.951429 L1.494058,1.949992 L1.497005,1.948580 L1.499965,1.947195 L1.502936,1.945835 L1.505920,1.944501 L1.508915,1.943193 L1.511921,1.941911 L1.514938,1.940656 L1.517966,1.939426 L1.521004,1.938224 L1.524053,1.937048 L1.527112,1.935898 L1.530181,1.934775 L1.533260,1.933679 L1.536348,1.932610 L1.539445,1.931567 L1.542551,1.930552 L1.545666,1.929564 L1.548790,1.928603 L1.551922,1.927669 L1.555061,1.926763 L1.558209,1.925884 L1.561364,1.925032 L1.564526,1.924208 L1.567696,1.923412 L1.570872,1.922643 L1.574055,1.921902 L1.577244,1.921189 L1.580439,1.920503 L1.583640,1.919846 L1.586847,1.919216 L1.590059,1.918614 L1.593276,1.918041 L1.596498,1.917495 L1.599725,1.916977 L1.602956,1.916488 L1.606191,1.916027 L1.609430,1.915594 L1.612673,1.915189 L1.615919,1.914812 L1.619169,1.914464 L1.622421,1.914144 L1.625676,1.913853 L1.628933,1.913590 L1.632193,1.913355 L1.635454,1.913149 L1.638717,1.912971 L1.641982,1.912821 L1.645247,1.912700 L1.648514,1.912608 L1.651781,1.912544 L1.655049,1.912508 L1.658317,1.912501 L1.661585,1.912522 L1.664852,1.912572 L1.668119,1.912650 L1.671386,1.912757 L1.674651,1.912892 L1.677915,1.913056 L1.681177,1.913248 L1.684437,1.913469 L1.687696,1.913718 L1.690952,1.913995 L1.694206,1.914301 L1.697456,1.914635 L1.700704,1.914997 L1.703949,1.915388 L1.707190,1.915807 L1.710427,1.916254 L1.713660,1.916729 L1.716889,1.917233 L1.720113,1.917764 L1.723333,1.918324 L1.726548,1.918912 L1.729757,1.919527 L1.732961,1.920171 L1.736159,1.920843 L1.739352,1.921542 L1.742538,1.922269 L1.745717,1.923024 L1.748890,1.923807 L1.752056,1.924617 L1.755215,1.925455 L1.758366,1.926320 L1.761510,1.927213 L1.764645,1.928133 L1.767773,1.929080 L1.770892,1.930055 L1.774003,1.931056 L1.777105,1.932085 L1.780197,1.933141 L1.783281,1.934224 L1.786354,1.935333 L1.789419,1.936469 L1.792473,1.937632 L1.795516,1.938822 L1.798550,1.940038 L1.801572,1.941280 L1.804584,1.942549 L1.807584,1.943844 L1.810573,1.945165 L1.813551,1.946512 L1.816516,1.947884 L1.819470,1.949283 L1.822411,1.950707 L1.825340,1.952157 L1.828256,1.953633 L1.831159,1.955133 L1.834049,1.956659 L1.836925,1.958210 L1.839788,1.959786 L1.842637,1.961387 L1.845471,1.963013 L1.848292,1.964664 L1.851098,1.966338 L1.853890,1.968038 L1.856666,1.969761 L1.859427,1.971509 L1.862173,1.973281 L1.864904,1.975076 L1.867619,1.976895 L1.870317,1.978738 L1.873000,1.980605 L1.875666,1.982494 L1.878316,1.984407 L1.880949,1.986343 L1.883565,1.988301 L1.886163,1.990283 L1.888745,1.992287 L1.891309,1.994313 L1.893855,1.996362 L1.896383,1.998433 L1.898893,2.000525 L1.901385,2.002640 L1.903858,2.004776 L1.906312,2.006934 L1.908748,2.009112 L1.911164,2.011312 L1.913561,2.013534 L1.915939,2.015775 L1.918297,2.018038 L1.920635,2.020321 L1.922954,2.022624 L1.925252,2.024947 L1.927530,2.027291 L1.929787,2.029654 L1.932024,2.032036 L1.934239,2.034438 L1.936434,2.036859 L1.938608,2.039300 L1.940760,2.041759 L1.942891,2.044237 L1.945000,2.046733 L1.947087,2.049247 L1.949152,2.051780 L1.951195,2.054331 L1.953216,2.056899 L1.955215,2.059485 L1.957190,2.062088 L1.959143,2.064708 L1.961073,2.067345 L1.962980,2.069999 L1.964864,2.072669 L1.966725,2.075356 L1.968562,2.078059 L1.970375,2.080777 L1.972165,2.083512 L1.973930,2.086262 L1.975672,2.089027 L1.977389,2.091807 L1.979083,2.094602 L1.980751,2.097412 L1.982396,2.100236 L1.984015,2.103074 L1.985610,2.105927 L1.987180,2.108793 L1.988725,2.111673 L1.990244,2.114566 L1.991739,2.117472 L1.993208,2.120391 L1.994651,2.123323 L1.996069,2.126267 L1.997461,2.129224 L1.998828,2.132192 L2.000168,2.135173 L2.001483,2.138165 L2.002771,2.141168 L2.004033,2.144182 L2.005269,2.147208 L2.006478,2.150244 L2.007661,2.153290 L2.008817,2.156347 L2.009947,2.159413 L2.011050,2.162489 L2.012126,2.165575 L2.013175,2.168670 L2.014197,2.171774 L2.015192,2.174887 L2.016159,2.178008 L2.017100,2.181138 L2.018013,2.184276 L2.018899,2.187421 L2.019757,2.190574 L2.020588,2.193735 L2.021392,2.196903 L2.022167,2.200077 L2.022915,2.203258 L2.023636,2.206446 L2.024328,2.209640 L2.024993,2.212839 L2.025629,2.216045 L2.026238,2.219255 L2.026819,2.222471 L2.027371,2.225692 L2.027896,2.228918 L2.028392,2.232148 L2.028861,2.235382 L2.029301,2.238620 L2.029713,2.241862 L2.030096,2.245107 L2.030451,2.248356 L2.030778,2.251608 L2.031077,2.254862 L2.031347,2.258119 L2.031589,2.261378 L2.031802,2.264639 L2.031987,2.267901 L2.032144,2.271165 L2.032272,2.274431 L2.032372,2.277697 L2.032443,2.280964 L2.032486,2.284232 L2.032500,2.287500 M5.217500,2.287500 L5.217486,2.290768 L5.217443,2.294036 L5.217372,2.297303 L5.217272,2.300569 L5.217144,2.303835 L5.216987,2.307099 L5.216802,2.310361 L5.216589,2.313622 L5.216347,2.316881 L5.216077,2.320138 L5.215778,2.323392 L5.215451,2.326644 L5.215096,2.329893 L5.214713,2.333138 L5.214301,2.336380 L5.213861,2.339618 L5.213392,2.342852 L5.212896,2.346082 L5.212371,2.349308 L5.211819,2.352529 L5.211238,2.355745 L5.210629,2.358955 L5.209993,2.362161 L5.209328,2.365360 L5.208636,2.368554 L5.207915,2.371742 L5.207167,2.374923 L5.206392,2.378097 L5.205588,2.381265 L5.204757,2.384426 L5.203899,2.387579 L5.203013,2.390724 L5.202100,2.393862 L5.201159,2.396992 L5.200192,2.400113 L5.199197,2.403226 L5.198175,2.406330 L5.197126,2.409425 L5.196050,2.412511 L5.194947,2.415587 L5.193817,2.418653 L5.192661,2.421710 L5.191478,2.424756 L5.190269,2.427792 L5.189033,2.430818 L5.187771,2.433832 L5.186483,2.436835 L5.185168,2.439827 L5.183828,2.442808 L5.182461,2.445776 L5.181069,2.448733 L5.179651,2.451677 L5.178208,2.454609 L5.176739,2.457528 L5.175244,2.460434 L5.173725,2.463327 L5.172180,2.466207 L5.170610,2.469073 L5.169015,2.471926 L5.167396,2.474764 L5.165751,2.477588 L5.164083,2.480398 L5.162389,2.483193 L5.160672,2.485973 L5.158930,2.488738 L5.157165,2.491488 L5.155375,2.494223 L5.153562,2.496941 L5.151725,2.499644 L5.149864,2.502331 L5.147980,2.505001 L5.146073,2.507655 L5.144143,2.510292 L5.142190,2.512912 L5.140215,2.515515 L5.138216,2.518101 L5.136195,2.520669 L5.134152,2.523220 L5.132087,2.525753 L5.130000,2.528267 L5.127891,2.530763 L5.125760,2.533241 L5.123608,2.535700 L5.121434,2.538141 L5.119239,2.540562 L5.117024,2.542964 L5.114787,2.545346 L5.112530,2.547709 L5.110252,2.550053 L5.107954,2.552376 L5.105635,2.554679 L5.103297,2.556962 L5.100939,2.559225 L5.098561,2.561466 L5.096164,2.563688 L5.093748,2.565888 L5.091312,2.568066 L5.088858,2.570224 L5.086385,2.572360 L5.083893,2.574475 L5.081383,2.576567 L5.078855,2.578638 L5.076309,2.580687 L5.073745,2.582713 L5.071163,2.584717 L5.068565,2.586699 L5.065949,2.588657 L5.063316,2.590593 L5.060666,2.592506 L5.058000,2.594395 L5.055317,2.596262 L5.052619,2.598105 L5.049904,2.599924 L5.047173,2.601719 L5.044427,2.603491 L5.041666,2.605239 L5.038890,2.606962 L5.036098,2.608662 L5.033292,2.610336 L5.030471,2.611987 L5.027637,2.613613 L5.024788,2.615214 L5.021925,2.616790 L5.019049,2.618341 L5.016159,2.619867 L5.013256,2.621367 L5.010340,2.622843 L5.007411,2.624293 L5.004470,2.625717 L5.001516,2.627116 L4.998551,2.628488 L4.995573,2.629835 L4.992584,2.631156 L4.989584,2.632451 L4.986572,2.633720 L4.983550,2.634962 L4.980516,2.636178 L4.977473,2.637368 L4.974419,2.638531 L4.971354,2.639667 L4.968281,2.640776 L4.965197,2.641859 L4.962105,2.642915 L4.959003,2.643944 L4.955892,2.644945 L4.952773,2.645920 L4.949645,2.646867 L4.946510,2.647787 L4.943366,2.648680 L4.940215,2.649545 L4.937056,2.650383 L4.933890,2.651193 L4.930717,2.651976 L4.927538,2.652731 L4.924352,2.653458 L4.921159,2.654157 L4.917961,2.654829 L4.914757,2.655473 L4.911548,2.656088 L4.908333,2.656676 L4.905113,2.657236 L4.901889,2.657767 L4.898660,2.658271 L4.895427,2.658746 L4.892190,2.659193 L4.888949,2.659612 L4.885704,2.660003 L4.882456,2.660365 L4.879206,2.660699 L4.875952,2.661005 L4.872696,2.661282 L4.869437,2.661531 L4.866177,2.661752 L4.862915,2.661944 L4.859651,2.662108 L4.856386,2.662243 L4.853119,2.662350 L4.849852,2.662428 L4.846585,2.662478 L4.843317,2.662499 L4.840049,2.662492 L4.836781,2.662456 L4.833514,2.662392 L4.830247,2.662300 L4.826982,2.662179 L4.823717,2.662029 L4.820454,2.661851 L4.817193,2.661645 L4.813933,2.661410 L4.810676,2.661147 L4.807421,2.660856 L4.804169,2.660536 L4.800919,2.660188 L4.797673,2.659811 L4.794430,2.659406 L4.791191,2.658973 L4.787956,2.658512 L4.784725,2.658023 L4.781498,2.657505 L4.778276,2.656959 L4.775059,2.656386 L4.771847,2.655784 L4.768640,2.655154 L4.765439,2.654497 L4.762244,2.653811 L4.759055,2.653098 L4.755872,2.652357 L4.752696,2.651588 L4.749526,2.650792 L4.746364,2.649968 L4.743209,2.649116 L4.740061,2.648237 L4.736922,2.647331 L4.733790,2.646397 L4.730666,2.645436 L4.727551,2.644448 L4.724445,2.643433 L4.721348,2.642390 L4.718260,2.641321 L4.715181,2.640225 L4.712112,2.639102 L4.709053,2.637952 L4.706004,2.636776 L4.702966,2.635574 L4.699938,2.634344 L4.696921,2.633089 L4.693915,2.631807 L4.690920,2.630499 L4.687936,2.629165 L4.684965,2.627805 L4.682005,2.626420 L4.679058,2.625008 L4.676123,2.623571 L4.673201,2.622108 L4.670291,2.620620 L4.667395,2.619107 L4.664512,2.617568 L4.661642,2.616005 L4.658786,2.614416 L4.655944,2.612803 L4.653116,2.611165 L4.650303,2.609502 L4.647504,2.607815 L4.644720,2.606104 L4.641951,2.604368 L4.639198,2.602608 L4.636459,2.600825 L4.633737,2.599017 L4.631030,2.597186 L4.628339,2.595331 L4.625665,2.593453 L4.623007,2.591552 L4.620366,2.589628 L4.617741,2.587681 L4.615134,2.585711 L4.612544,2.583718 L4.609971,2.581703 L4.607416,2.579665 L4.604879,2.577606 L4.602360,2.575524 L4.599859,2.573420 L4.597377,2.571295 L4.594913,2.569148 L4.592468,2.566980 L4.590042,2.564790 L4.587635,2.562580 L4.585247,2.560348 L4.582879,2.558096 L4.580531,2.555823 L4.578203,2.553530 L4.575895,2.551217 L4.573607,2.548884 L4.571339,2.546530 L4.569092,2.544158 L4.566866,2.541765 L4.564660,2.539354 L4.562476,2.536923 L4.560313,2.534473 L4.558172,2.532005 L4.556052,2.529518 L4.553954,2.527012 L4.551877,2.524488 L4.549823,2.521947 L4.547791,2.519387 L4.545782,2.516810 L4.543795,2.514216 L4.541830,2.511604 L4.539889,2.508976 L4.537970,2.506330 L4.536075,2.503668 L4.534203,2.500990 L4.532354,2.498295 L4.530529,2.495584 L4.528727,2.492857 L4.526950,2.490115 L4.525196,2.487358 L4.523466,2.484585 L4.521761,2.481797 L4.520080,2.478995 L4.518423,2.476178 L4.516792,2.473347 L4.515184,2.470501 L4.513602,2.467642 L4.512045,2.464769 L4.510512,2.461882 L4.509005,2.458983 L4.507524,2.456070 L4.506067,2.453145 L4.504637,2.450206 L4.503232,2.447256 L4.501852,2.444293 L4.500499,2.441319 L4.499171,2.438333 L4.497870,2.435335 L4.496595,2.432326 L4.495346,2.429306 L4.494123,2.426276 L4.492927,2.423234 L4.491758,2.420183 L4.490615,2.417121 L4.489498,2.414050 L4.488409,2.410969 L4.487347,2.407879 L4.486311,2.404779 L4.485302,2.401671 L4.484321,2.398554 L4.483367,2.395428 L4.482440,2.392294 L4.481541,2.389153 L4.480668,2.386003 L4.479824,2.382846 L4.479007,2.379682 L4.478217,2.376511 L4.477455,2.373333 L4.476721,2.370149 L4.476015,2.366958 L4.475336,2.363761 L4.474686,2.360559 L4.474063,2.357351 L4.473468,2.354137 L4.472901,2.350919 L4.472363,2.347696 L4.471852,2.344468 L4.471370,2.341236 L4.470916,2.337999 L4.470490,2.334759 L4.470092,2.331516 L4.469723,2.328269 L4.469382,2.325019 L4.469069,2.321766 L4.468784,2.318510 L4.468528,2.315252 L4.468301,2.311992 L4.468101,2.308730 L4.467931,2.305467 L4.467788,2.302202 L4.467674,2.298936 L4.467589,2.295669 L4.467532,2.292402 L4.467504,2.289134 L4.467504,2.285866 L4.467532,2.282598 L4.467589,2.279331 L4.467674,2.276064 L4.467788,2.272798 L4.467931,2.269533 L4.468101,2.266270 L4.468301,2.263008 L4.468528,2.259748 L4.468784,2.256490 L4.469069,2.253234 L4.469382,2.249981 L4.469723,2.246731 L4.470092,2.243484 L4.470490,2.240241 L4.470916,2.237001 L4.471370,2.233764 L4.471852,2.230532 L4.472363,2.227304 L4.472901,2.224081 L4.473468,2.220863 L4.474063,2.217649 L4.474686,2.214441 L4.475336,2.211239 L4.476015,2.208042 L4.476721,2.204851 L4.477455,2.201667 L4.478217,2.198489 L4.479007,2.195318 L4.479824,2.192154 L4.480668,2.188997 L4.481541,2.185847 L4.482440,2.182706 L4.483367,2.179572 L4.484321,2.176446 L4.485302,2.173329 L4.486311,2.170221 L4.487347,2.167121 L4.488409,2.164031 L4.489498,2.160950 L4.490615,2.157879 L4.491758,2.154817 L4.492927,2.151766 L4.494123,2.148724 L4.495346,2.145694 L4.496595,2.142674 L4.497870,2.139665 L4.499171,2.136667 L4.500499,2.133681 L4.501852,2.130707 L4.503232,2.127744 L4.504637,2.124794 L4.506067,2.121855 L4.507524,2.118930 L4.509005,2.116017 L4.510512,2.113118 L4.512045,2.110231 L4.513602,2.107358 L4.515184,2.104499 L4.516792,2.101653 L4.518423,2.098822 L4.520080,2.096005 L4.521761,2.093203 L4.523466,2.090415 L4.525196,2.087642 L4.526950,2.084885 L4.528727,2.082143 L4.530529,2.079416 L4.532354,2.076705 L4.534203,2.074010 L4.536075,2.071332 L4.537970,2.068670 L4.539889,2.066024 L4.541830,2.063396 L4.543795,2.060784 L4.545782,2.058190 L4.547791,2.055613 L4.549823,2.053053 L4.551877,2.050512 L4.553954,2.047988 L4.556052,2.045482 L4.558172,2.042995 L4.560313,2.040527 L4.562476,2.038077 L4.564660,2.035646 L4.566866,2.033235 L4.569092,2.030842 L4.571339,2.028470 L4.573607,2.026116 L4.575895,2.023783 L4.578203,2.021470 L4.580531,2.019177 L4.582879,2.016904 L4.585247,2.014652 L4.587635,2.012420 L4.590042,2.010210 L4.592468,2.008020 L4.594913,2.005852 L4.597377,2.003705 L4.599859,2.001580 L4.602360,1.999476 L4.604879,1.997394 L4.607416,1.995335 L4.609971,1.993297 L4.612544,1.991282 L4.615134,1.989289 L4.617741,1.987319 L4.620366,1.985372 L4.623007,1.983448 L4.625665,1.981547 L4.628339,1.979669 L4.631030,1.977814 L4.633737,1.975983 L4.636459,1.974175 L4.639198,1.972392 L4.641951,1.970632 L4.644720,1.968896 L4.647504,1.967185 L4.650303,1.965498 L4.653116,1.963835 L4.655944,1.962197 L4.658786,1.960584 L4.661642,1.958995 L4.664512,1.957432 L4.667395,1.955893 L4.670291,1.954380 L4.673201,1.952892 L4.676123,1.951429 L4.679058,1.949992 L4.682005,1.948580 L4.684965,1.947195 L4.687936,1.945835 L4.690920,1.944501 L4.693915,1.943193 L4.696921,1.941911 L4.699938,1.940656 L4.702966,1.939426 L4.706004,1.938224 L4.709053,1.937048 L4.712112,1.935898 L4.715181,1.934775 L4.718260,1.933679 L4.721348,1.932610 L4.724445,1.931567 L4.727551,1.930552 L4.730666,1.929564 L4.733790,1.928603 L4.736922,1.927669 L4.740061,1.926763 L4.743209,1.925884 L4.746364,1.925032 L4.749526,1.924208 L4.752696,1.923412 L4.755872,1.922643 L4.759055,1.921902 L4.762244,1.921189 L4.765439,1.920503 L4.768640,1.919846 L4.771847,1.919216 L4.775059,1.918614 L4.778276,1.918041 L4.781498,1.917495 L4.784725,1.916977 L4.787956,1.916488 L4.791191,1.916027 L4.794430,1.915594 L4.797673,1.915189 L4.800919,1.914812 L4.804169,1.914464 L4.807421,1.914144 L4.810676,1.913853 L4.813933,1.913590 L4.817193,1.913355 L4.820454,1.913149 L4.823717,1.912971 L4.826982,1.912821 L4.830247,1.912700 L4.833514,1.912608 L4.836781,1.912544 L4.840049,1.912508 L4.843317,1.912501 L4.846585,1.912522 L4.849852,1.912572 L4.853119,1.912650 L4.856386,1.912757 L4.859651,1.912892 L4.862915,1.913056 L4.866177,1.913248 L4.869437,1.913469 L4.872696,1.913718 L4.875952,1.913995 L4.879206,1.914301 L4.882456,1.914635 L4.885704,1.914997 L4.888949,1.915388 L4.892190,1.915807 L4.895427,1.916254 L4.898660,1.916729 L4.901889,1.917233 L4.905113,1.917764 L4.908333,1.918324 L4.911548,1.918912 L4.914757,1.919527 L4.917961,1.920171 L4.921159,1.920843 L4.924352,1.921542 L4.927538,1.922269 L4.930717,1.923024 L4.933890,1.923807 L4.937056,1.924617 L4.940215,1.925455 L4.943366,1.926320 L4.946510,1.927213 L4.949645,1.928133 L4.952773,1.929080 L4.955892,1.930055 L4.959003,1.931056 L4.962105,1.932085 L4.965197,1.933141 L4.968281,1.934224 L4.971354,1.935333 L4.974419,1.936469 L4.977473,1.937632 L4.980516,1.938822 L4.983550,1.940038 L4.986572,1.941280 L4.989584,1.942549 L4.992584,1.943844 L4.995573,1.945165 L4.998551,1.946512 L5.001516,1.947884 L5.004470,1.949283 L5.007411,1.950707 L5.010340,1.952157 L5.013256,1.953633 L5.016159,1.955133 L5.019049,1.956659 L5.021925,1.958210 L5.024788,1.959786 L5.027637,1.961387 L5.030471,1.963013 L5.033292,1.964664 L5.036098,1.966338 L5.038890,1.968038 L5.041666,1.969761 L5.044427,1.971509 L5.047173,1.973281 L5.049904,1.975076 L5.052619,1.976895 L5.055317,1.978738 L5.058000,1.980605 L5.060666,1.982494 L5.063316,1.984407 L5.065949,1.986343 L5.068565,1.988301 L5.071163,1.990283 L5.073745,1.992287 L5.076309,1.994313 L5.078855,1.996362 L5.081383,1.998433 L5.083893,2.000525 L5.086385,2.002640 L5.088858,2.004776 L5.091312,2.006934 L5.093748,2.009112 L5.096164,2.011312 L5.098561,2.013534 L5.100939,2.015775 L5.103297,2.018038 L5.105635,2.020321 L5.107954,2.022624 L5.110252,2.024947 L5.112530,2.027291 L5.114787,2.029654 L5.117024,2.032036 L5.119239,2.034438 L5.121434,2.036859 L5.123608,2.039300 L5.125760,2.041759 L5.127891,2.044237 L5.130000,2.046733 L5.132087,2.049247 L5.134152,2.051780 L5.136195,2.054331 L5.138216,2.056899 L5.140215,2.059485 L5.142190,2.062088 L5.144143,2.064708 L5.146073,2.067345 L5.147980,2.069999 L5.149864,2.072669 L5.151725,2.075356 L5.153562,2.078059 L5.155375,2.080777 L5.157165,2.083512 L5.158930,2.086262 L5.160672,2.089027 L5.162389,2.091807 L5.164083,2.094602 L5.165751,2.097412 L5.167396,2.100236 L5.169015,2.103074 L5.170610,2.105927 L5.172180,2.108793 L5.173725,2.111673 L5.175244,2.114566 L5.176739,2.117472 L5.178208,2.120391 L5.179651,2.123323 L5.181069,2.126267 L5.182461,2.129224 L5.183828,2.132192 L5.185168,2.135173 L5.186483,2.138165 L5.187771,2.141168 L5.189033,2.144182 L5.190269,2.147208 L5.191478,2.150244 L5.192661,2.153290 L5.193817,2.156347 L5.194947,2.159413 L5.196050,2.162489 L5.197126,2.165575 L5.198175,2.168670 L5.199197,2.171774 L5.200192,2.174887 L5.201159,2.178008 L5.202100,2.181138 L5.203013,2.184276 L5.203899,2.187421 L5.204757,2.190574 L5.205588,2.193735 L5.206392,2.196903 L5.207167,2.200077 L5.207915,2.203258 L5.208636,2.206446 L5.209328,2.209640 L5.209993,2.212839 L5.210629,2.216045 L5.211238,2.219255 L5.211819,2.222471 L5.212371,2.225692 L5.212896,2.228918 L5.213392,2.232148 L5.213861,2.235382 L5.214301,2.238620 L5.214713,2.241862 L5.215096,2.245107 L5.215451,2.248356 L5.215778,2.251608 L5.216077,2.254862 L5.216347,2.258119 L5.216589,2.261378 L5.216802,2.264639 L5.216987,2.267901 L5.217144,2.271165 L5.217272,2.274431 L5.217372,2.277697 L5.217443,2.280964 L5.217486,2.284232 L5.217500,2.287500 M2.032500,4.212500 L2.032486,4.215768 L2.032443,4.219036 L2.032372,4.222303 L2.032272,4.225569 L2.032144,4.228835 L2.031987,4.232099 L2.031802,4.235361 L2.031589,4.238622 L2.031347,4.241881 L2.031077,4.245138 L2.030778,4.248392 L2.030451,4.251644 L2.030096,4.254893 L2.029713,4.258138 L2.029301,4.261380 L2.028861,4.264618 L2.028392,4.267852 L2.027896,4.271082 L2.027371,4.274308 L2.026819,4.277529 L2.026238,4.280745 L2.025629,4.283955 L2.024993,4.287161 L2.024328,4.290360 L2.023636,4.293554 L2.022915,4.296742 L2.022167,4.299923 L2.021392,4.303097 L2.020588,4.306265 L2.019757,4.309426 L2.018899,4.312579 L2.018013,4.315724 L2.017100,4.318862 L2.016159,4.321992 L2.015192,4.325113 L2.014197,4.328226 L2.013175,4.331330 L2.012126,4.334425 L2.011050,4.337511 L2.009947,4.340587 L2.008817,4.343653 L2.007661,4.346710 L2.006478,4.349756 L2.005269,4.352792 L2.004033,4.355818 L2.002771,4.358832 L2.001483,4.361835 L2.000168,4.364827 L1.998828,4.367808 L1.997461,4.370776 L1.996069,4.373733 L1.994651,4.376677 L1.993208,4.379609 L1.991739,4.382528 L1.990244,4.385434 L1.988725,4.388327 L1.987180,4.391207 L1.985610,4.394073 L1.984015,4.396926 L1.982396,4.399764 L1.980751,4.402588 L1.979083,4.405398 L1.977389,4.408193 L1.975672,4.410973 L1.973930,4.413738 L1.972165,4.416488 L1.970375,4.419223 L1.968562,4.421941 L1.966725,4.424644 L1.964864,4.427331 L1.962980,4.430001 L1.961073,4.432655 L1.959143,4.435292 L1.957190,4.437912 L1.955215,4.440515 L1.953216,4.443101 L1.951195,4.445669 L1.949152,4.448220 L1.947087,4.450753 L1.945000,4.453267 L1.942891,4.455763 L1.940760,4.458241 L1.938608,4.460700 L1.936434,4.463141 L1.934239,4.465562 L1.932024,4.467964 L1.929787,4.470346 L1.927530,4.472709 L1.925252,4.475053 L1.922954,4.477376 L1.920635,4.479679 L1.918297,4.481962 L1.915939,4.484225 L1.913561,4.486466 L1.911164,4.488688 L1.908748,4.490888 L1.906312,4.493066 L1.903858,4.495224 L1.901385,4.497360 L1.898893,4.499475 L1.896383,4.501567 L1.893855,4.503638 L1.891309,4.505687 L1.888745,4.507713 L1.886163,4.509717 L1.883565,4.511699 L1.880949,4.513657 L1.878316,4.515593 L1.875666,4.517506 L1.873000,4.519395 L1.870317,4.521262 L1.867619,4.523105 L1.864904,4.524924 L1.862173,4.526719 L1.859427,4.528491 L1.856666,4.530239 L1.853890,4.531962 L1.851098,4.533662 L1.848292,4.535336 L1.845471,4.536987 L1.842637,4.538613 L1.839788,4.540214 L1.836925,4.541790 L1.834049,4.543341 L1.831159,4.544867 L1.828256,4.546367 L1.825340,4.547843 L1.822411,4.549293 L1.819470,4.550717 L1.816516,4.552116 L1.813551,4.553488 L1.810573,4.554835 L1.807584,4.556156 L1.804584,4.557451 L1.801572,4.558720 L1.798550,4.559962 L1.795516,4.561178 L1.792473,4.562368 L1.789419,4.563531 L1.786354,4.564667 L1.783281,4.565776 L1.780197,4.566859 L1.777105,4.567915 L1.774003,4.568944 L1.770892,4.569945 L1.767773,4.570920 L1.764645,4.571867 L1.761510,4.572787 L1.758366,4.573680 L1.755215,4.574545 L1.752056,4.575383 L1.748890,4.576193 L1.745717,4.576976 L1.742538,4.577731 L1.739352,4.578458 L1.736159,4.579157 L1.732961,4.579829 L1.729757,4.580473 L1.726548,4.581088 L1.723333,4.581676 L1.720113,4.582236 L1.716889,4.582767 L1.713660,4.583271 L1.710427,4.583746 L1.707190,4.584193 L1.703949,4.584612 L1.700704,4.585003 L1.697456,4.585365 L1.694206,4.585699 L1.690952,4.586005 L1.687696,4.586282 L1.684437,4.586531 L1.681177,4.586752 L1.677915,4.586944 L1.674651,4.587108 L1.671386,4.587243 L1.668119,4.587350 L1.664852,4.587428 L1.661585,4.587478 L1.658317,4.587499 L1.655049,4.587492 L1.651781,4.587456 L1.648514,4.587392 L1.645247,4.587300 L1.641982,4.587179 L1.638717,4.587029 L1.635454,4.586851 L1.632193,4.586645 L1.628933,4.586410 L1.625676,4.586147 L1.622421,4.585856 L1.619169,4.585536 L1.615919,4.585188 L1.612673,4.584811 L1.609430,4.584406 L1.606191,4.583973 L1.602956,4.583512 L1.599725,4.583023 L1.596498,4.582505 L1.593276,4.581959 L1.590059,4.581386 L1.586847,4.580784 L1.583640,4.580154 L1.580439,4.579497 L1.577244,4.578811 L1.574055,4.578098 L1.570872,4.577357 L1.567696,4.576588 L1.564526,4.575792 L1.561364,4.574968 L1.558209,4.574116 L1.555061,4.573237 L1.551922,4.572331 L1.548790,4.571397 L1.545666,4.570436 L1.542551,4.569448 L1.539445,4.568433 L1.536348,4.567390 L1.533260,4.566321 L1.530181,4.565225 L1.527112,4.564102 L1.524053,4.562952 L1.521004,4.561776 L1.517966,4.560574 L1.514938,4.559344 L1.511921,4.558089 L1.508915,4.556807 L1.505920,4.555499 L1.502936,4.554165 L1.499965,4.552805 L1.497005,4.551420 L1.494058,4.550008 L1.491123,4.548571 L1.488201,4.547108 L1.485291,4.545620 L1.482395,4.544107 L1.479512,4.542568 L1.476642,4.541005 L1.473786,4.539416 L1.470944,4.537803 L1.468116,4.536165 L1.465303,4.534502 L1.462504,4.532815 L1.459720,4.531104 L1.456951,4.529368 L1.454198,4.527608 L1.451459,4.525825 L1.448737,4.524017 L1.446030,4.522186 L1.443339,4.520331 L1.440665,4.518453 L1.438007,4.516552 L1.435366,4.514628 L1.432741,4.512681 L1.430134,4.510711 L1.427544,4.508718 L1.424971,4.506703 L1.422416,4.504665 L1.419879,4.502606 L1.417360,4.500524 L1.414859,4.498420 L1.412377,4.496295 L1.409913,4.494148 L1.407468,4.491980 L1.405042,4.489790 L1.402635,4.487580 L1.400247,4.485348 L1.397879,4.483096 L1.395531,4.480823 L1.393203,4.478530 L1.390895,4.476217 L1.388607,4.473884 L1.386339,4.471530 L1.384092,4.469158 L1.381866,4.466765 L1.379660,4.464354 L1.377476,4.461923 L1.375313,4.459473 L1.373172,4.457005 L1.371052,4.454518 L1.368954,4.452012 L1.366877,4.449488 L1.364823,4.446947 L1.362791,4.444387 L1.360782,4.441810 L1.358795,4.439216 L1.356830,4.436604 L1.354889,4.433976 L1.352970,4.431330 L1.351075,4.428668 L1.349203,4.425990 L1.347354,4.423295 L1.345529,4.420584 L1.343727,4.417857 L1.341950,4.415115 L1.340196,4.412358 L1.338466,4.409585 L1.336761,4.406797 L1.335080,4.403995 L1.333423,4.401178 L1.331792,4.398347 L1.330184,4.395501 L1.328602,4.392642 L1.327045,4.389769 L1.325512,4.386882 L1.324005,4.383983 L1.322524,4.381070 L1.321067,4.378145 L1.319637,4.375206 L1.318232,4.372256 L1.316852,4.369293 L1.315499,4.366319 L1.314171,4.363333 L1.312870,4.360335 L1.311595,4.357326 L1.310346,4.354306 L1.309123,4.351276 L1.307927,4.348234 L1.306758,4.345183 L1.305615,4.342121 L1.304498,4.339050 L1.303409,4.335969 L1.302347,4.332879 L1.301311,4.329779 L1.300302,4.326671 L1.299321,4.323554 L1.298367,4.320428 L1.297440,4.317294 L1.296541,4.314153 L1.295668,4.311003 L1.294824,4.307846 L1.294007,4.304682 L1.293217,4.301511 L1.292455,4.298333 L1.291721,4.295149 L1.291015,4.291958 L1.290336,4.288761 L1.289686,4.285559 L1.289063,4.282351 L1.288468,4.279137 L1.287901,4.275919 L1.287363,4.272696 L1.286852,4.269468 L1.286370,4.266236 L1.285916,4.262999 L1.285490,4.259759 L1.285092,4.256516 L1.284723,4.253269 L1.284382,4.250019 L1.284069,4.246766 L1.283784,4.243510 L1.283528,4.240252 L1.283301,4.236992 L1.283101,4.233730 L1.282931,4.230467 L1.282788,4.227202 L1.282674,4.223936 L1.282589,4.220669 L1.282532,4.217402 L1.282504,4.214134 L1.282504,4.210866 L1.282532,4.207598 L1.282589,4.204331 L1.282674,4.201064 L1.282788,4.197798 L1.282931,4.194533 L1.283101,4.191270 L1.283301,4.188008 L1.283528,4.184748 L1.283784,4.181490 L1.284069,4.178234 L1.284382,4.174981 L1.284723,4.171731 L1.285092,4.168484 L1.285490,4.165241 L1.285916,4.162001 L1.286370,4.158764 L1.286852,4.155532 L1.287363,4.152304 L1.287901,4.149081 L1.288468,4.145863 L1.289063,4.142649 L1.289686,4.139441 L1.290336,4.136239 L1.291015,4.133042 L1.291721,4.129851 L1.292455,4.126667 L1.293217,4.123489 L1.294007,4.120318 L1.294824,4.117154 L1.295668,4.113997 L1.296541,4.110847 L1.297440,4.107706 L1.298367,4.104572 L1.299321,4.101446 L1.300302,4.098329 L1.301311,4.095221 L1.302347,4.092121 L1.303409,4.089031 L1.304498,4.085950 L1.305615,4.082879 L1.306758,4.079817 L1.307927,4.076766 L1.309123,4.073724 L1.310346,4.070694 L1.311595,4.067674 L1.312870,4.064665 L1.314171,4.061667 L1.315499,4.058681 L1.316852,4.055707 L1.318232,4.052744 L1.319637,4.049794 L1.321067,4.046855 L1.322524,4.043930 L1.324005,4.041017 L1.325512,4.038118 L1.327045,4.035231 L1.328602,4.032358 L1.330184,4.029499 L1.331792,4.026653 L1.333423,4.023822 L1.335080,4.021005 L1.336761,4.018203 L1.338466,4.015415 L1.340196,4.012642 L1.341950,4.009885 L1.343727,4.007143 L1.345529,4.004416 L1.347354,4.001705 L1.349203,3.999010 L1.351075,3.996332 L1.352970,3.993670 L1.354889,3.991024 L1.356830,3.988396 L1.358795,3.985784 L1.360782,3.983190 L1.362791,3.980613 L1.364823,3.978053 L1.366877,3.975512 L1.368954,3.972988 L1.371052,3.970482 L1.373172,3.967995 L1.375313,3.965527 L1.377476,3.963077 L1.379660,3.960646 L1.381866,3.958235 L1.384092,3.955842 L1.386339,3.953470 L1.388607,3.951116 L1.390895,3.948783 L1.393203,3.946470 L1.395531,3.944177 L1.397879,3.941904 L1.400247,3.939652 L1.402635,3.937420 L1.405042,3.935210 L1.407468,3.933020 L1.409913,3.930852 L1.412377,3.928705 L1.414859,3.926580 L1.417360,3.924476 L1.419879,3.922394 L1.422416,3.920335 L1.424971,3.918297 L1.427544,3.916282 L1.430134,3.914289 L1.432741,3.912319 L1.435366,3.910372 L1.438007,3.908448 L1.440665,3.906547 L1.443339,3.904669 L1.446030,3.902814 L1.448737,3.900983 L1.451459,3.899175 L1.454198,3.897392 L1.456951,3.895632 L1.459720,3.893896 L1.462504,3.892185 L1.465303,3.890498 L1.468116,3.888835 L1.470944,3.887197 L1.473786,3.885584 L1.476642,3.883995 L1.479512,3.882432 L1.482395,3.880893 L1.485291,3.879380 L1.488201,3.877892 L1.491123,3.876429 L1.494058,3.874992 L1.497005,3.873580 L1.499965,3.872195 L1.502936,3.870835 L1.505920,3.869501 L1.508915,3.868193 L1.511921,3.866911 L1.514938,3.865656 L1.517966,3.864426 L1.521004,3.863224 L1.524053,3.862048 L1.527112,3.860898 L1.530181,3.859775 L1.533260,3.858679 L1.536348,3.857610 L1.539445,3.856567 L1.542551,3.855552 L1.545666,3.854564 L1.548790,3.853603 L1.551922,3.852669 L1.555061,3.851763 L1.558209,3.850884 L1.561364,3.850032 L1.564526,3.849208 L1.567696,3.848412 L1.570872,3.847643 L1.574055,3.846902 L1.577244,3.846189 L1.580439,3.845503 L1.583640,3.844846 L1.586847,3.844216 L1.590059,3.843614 L1.593276,3.843041 L1.596498,3.842495 L1.599725,3.841977 L1.602956,3.841488 L1.606191,3.841027 L1.609430,3.840594 L1.612673,3.840189 L1.615919,3.839812 L1.619169,3.839464 L1.622421,3.839144 L1.625676,3.838853 L1.628933,3.838590 L1.632193,3.838355 L1.635454,3.838149 L1.638717,3.837971 L1.641982,3.837821 L1.645247,3.837700 L1.648514,3.837608 L1.651781,3.837544 L1.655049,3.837508 L1.658317,3.837501 L1.661585,3.837522 L1.664852,3.837572 L1.668119,3.837650 L1.671386,3.837757 L1.674651,3.837892 L1.677915,3.838056 L1.681177,3.838248 L1.684437,3.838469 L1.687696,3.838718 L1.690952,3.838995 L1.694206,3.839301 L1.697456,3.839635 L1.700704,3.839997 L1.703949,3.840388 L1.707190,3.840807 L1.710427,3.841254 L1.713660,3.841729 L1.716889,3.842233 L1.720113,3.842764 L1.723333,3.843324 L1.726548,3.843912 L1.729757,3.844527 L1.732961,3.845171 L1.736159,3.845843 L1.739352,3.846542 L1.742538,3.847269 L1.745717,3.848024 L1.748890,3.848807 L1.752056,3.849617 L1.755215,3.850455 L1.758366,3.851320 L1.761510,3.852213 L1.764645,3.853133 L1.767773,3.854080 L1.770892,3.855055 L1.774003,3.856056 L1.777105,3.857085 L1.780197,3.858141 L1.783281,3.859224 L1.786354,3.860333 L1.789419,3.861469 L1.792473,3.862632 L1.795516,3.863822 L1.798550,3.865038 L1.801572,3.866280 L1.804584,3.867549 L1.807584,3.868844 L1.810573,3.870165 L1.813551,3.871512 L1.816516,3.872884 L1.819470,3.874283 L1.822411,3.875707 L1.825340,3.877157 L1.828256,3.878633 L1.831159,3.880133 L1.834049,3.881659 L1.836925,3.883210 L1.839788,3.884786 L1.842637,3.886387 L1.845471,3.888013 L1.848292,3.889664 L1.851098,3.891338 L1.853890,3.893038 L1.856666,3.894761 L1.859427,3.896509 L1.862173,3.898281 L1.864904,3.900076 L1.867619,3.901895 L1.870317,3.903738 L1.873000,3.905605 L1.875666,3.907494 L1.878316,3.909407 L1.880949,3.911343 L1.883565,3.913301 L1.886163,3.915283 L1.888745,3.917287 L1.891309,3.919313 L1.893855,3.921362 L1.896383,3.923433 L1.898893,3.925525 L1.901385,3.927640 L1.903858,3.929776 L1.906312,3.931934 L1.908748,3.934112 L1.911164,3.936312 L1.913561,3.938534 L1.915939,3.940775 L1.918297,3.943038 L1.920635,3.945321 L1.922954,3.947624 L1.925252,3.949947 L1.927530,3.952291 L1.929787,3.954654 L1.932024,3.957036 L1.934239,3.959438 L1.936434,3.961859 L1.938608,3.964300 L1.940760,3.966759 L1.942891,3.969237 L1.945000,3.971733 L1.947087,3.974247 L1.949152,3.976780 L1.951195,3.979331 L1.953216,3.981899 L1.955215,3.984485 L1.957190,3.987088 L1.959143,3.989708 L1.961073,3.992345 L1.962980,3.994999 L1.964864,3.997669 L1.966725,4.000356 L1.968562,4.003059 L1.970375,4.005777 L1.972165,4.008512 L1.973930,4.011262 L1.975672,4.014027 L1.977389,4.016807 L1.979083,4.019602 L1.980751,4.022412 L1.982396,4.025236 L1.984015,4.028074 L1.985610,4.030927 L1.987180,4.033793 L1.988725,4.036673 L1.990244,4.039566 L1.991739,4.042472 L1.993208,4.045391 L1.994651,4.048323 L1.996069,4.051267 L1.997461,4.054224 L1.998828,4.057192 L2.000168,4.060173 L2.001483,4.063165 L2.002771,4.066168 L2.004033,4.069182 L2.005269,4.072208 L2.006478,4.075244 L2.007661,4.078290 L2.008817,4.081347 L2.009947,4.084413 L2.011050,4.087489 L2.012126,4.090575 L2.013175,4.093670 L2.014197,4.096774 L2.015192,4.099887 L2.016159,4.103008 L2.017100,4.106138 L2.018013,4.109276 L2.018899,4.112421 L2.019757,4.115574 L2.020588,4.118735 L2.021392,4.121903 L2.022167,4.125077 L2.022915,4.128258 L2.023636,4.131446 L2.024328,4.134640 L2.024993,4.137839 L2.025629,4.141045 L2.026238,4.144255 L2.026819,4.147471 L2.027371,4.150692 L2.027896,4.153918 L2.028392,4.157148 L2.028861,4.160382 L2.029301,4.163620 L2.029713,4.166862 L2.030096,4.170107 L2.030451,4.173356 L2.030778,4.176608 L2.031077,4.179862 L2.031347,4.183119 L2.031589,4.186378 L2.031802,4.189639 L2.031987,4.192901 L2.032144,4.196165 L2.032272,4.199431 L2.032372,4.202697 L2.032443,4.205964 L2.032486,4.209232 L2.032500,4.212500 M5.217500,4.212500 L5.217486,4.215768 L5.217443,4.219036 L5.217372,4.222303 L5.217272,4.225569 L5.217144,4.228835 L5.216987,4.232099 L5.216802,4.235361 L5.216589,4.238622 L5.216347,4.241881 L5.216077,4.245138 L5.215778,4.248392 L5.215451,4.251644 L5.215096,4.254893 L5.214713,4.258138 L5.214301,4.261380 L5.213861,4.264618 L5.213392,4.267852 L5.212896,4.271082 L5.212371,4.274308 L5.211819,4.277529 L5.211238,4.280745 L5.210629,4.283955 L5.209993,4.287161 L5.209328,4.290360 L5.208636,4.293554 L5.207915,4.296742 L5.207167,4.299923 L5.206392,4.303097 L5.205588,4.306265 L5.204757,4.309426 L5.203899,4.312579 L5.203013,4.315724 L5.202100,4.318862 L5.201159,4.321992 L5.200192,4.325113 L5.199197,4.328226 L5.198175,4.331330 L5.197126,4.334425 L5.196050,4.337511 L5.194947,4.340587 L5.193817,4.343653 L5.192661,4.346710 L5.191478,4.349756 L5.190269,4.352792 L5.189033,4.355818 L5.187771,4.358832 L5.186483,4.361835 L5.185168,4.364827 L5.183828,4.367808 L5.182461,4.370776 L5.181069,4.373733 L5.179651,4.376677 L5.178208,4.379609 L5.176739,4.382528 L5.175244,4.385434 L5.173725,4.388327 L5.172180,4.391207 L5.170610,4.394073 L5.169015,4.396926 L5.167396,4.399764 L5.165751,4.402588 L5.164083,4.405398 L5.162389,4.408193 L5.160672,4.410973 L5.158930,4.413738 L5.157165,4.416488 L5.155375,4.419223 L5.153562,4.421941 L5.151725,4.424644 L5.149864,4.427331 L5.147980,4.430001 L5.146073,4.432655 L5.144143,4.435292 L5.142190,4.437912 L5.140215,4.440515 L5.138216,4.443101 L5.136195,4.445669 L5.134152,4.448220 L5.132087,4.450753 L5.130000,4.453267 L5.127891,4.455763 L5.125760,4.458241 L5.123608,4.460700 L5.121434,4.463141 L5.119239,4.465562 L5.117024,4.467964 L5.114787,4.470346 L5.112530,4.472709 L5.110252,4.475053 L5.107954,4.477376 L5.105635,4.479679 L5.103297,4.481962 L5.100939,4.484225 L5.098561,4.486466 L5.096164,4.488688 L5.093748,4.490888 L5.091312,4.493066 L5.088858,4.495224 L5.086385,4.497360 L5.083893,4.499475 L5.081383,4.501567 L5.078855,4.503638 L5.076309,4.505687 L5.073745,4.507713 L5.071163,4.509717 L5.068565,4.511699 L5.065949,4.513657 L5.063316,4.515593 L5.060666,4.517506 L5.058000,4.519395 L5.055317,4.521262 L5.052619,4.523105 L5.049904,4.524924 L5.047173,4.526719 L5.044427,4.528491 L5.041666,4.530239 L5.038890,4.531962 L5.036098,4.533662 L5.033292,4.535336 L5.030471,4.536987 L5.027637,4.538613 L5.024788,4.540214 L5.021925,4.541790 L5.019049,4.543341 L5.016159,4.544867 L5.013256,4.546367 L5.010340,4.547843 L5.007411,4.549293 L5.004470,4.550717 L5.001516,4.552116 L4.998551,4.553488 L4.995573,4.554835 L4.992584,4.556156 L4.989584,4.557451 L4.986572,4.558720 L4.983550,4.559962 L4.980516,4.561178 L4.977473,4.562368 L4.974419,4.563531 L4.971354,4.564667 L4.968281,4.565776 L4.965197,4.566859 L4.962105,4.567915 L4.959003,4.568944 L4.955892,4.569945 L4.952773,4.570920 L4.949645,4.571867 L4.946510,4.572787 L4.943366,4.573680 L4.940215,4.574545 L4.937056,4.575383 L4.933890,4.576193 L4.930717,4.576976 L4.927538,4.577731 L4.924352,4.578458 L4.921159,4.579157 L4.917961,4.579829 L4.914757,4.580473 L4.911548,4.581088 L4.908333,4.581676 L4.905113,4.582236 L4.901889,4.582767 L4.898660,4.583271 L4.895427,4.583746 L4.892190,4.584193 L4.888949,4.584612 L4.885704,4.585003 L4.882456,4.585365 L4.879206,4.585699 L4.875952,4.586005 L4.872696,4.586282 L4.869437,4.586531 L4.866177,4.586752 L4.862915,4.586944 L4.859651,4.587108 L4.856386,4.587243 L4.853119,4.587350 L4.849852,4.587428 L4.846585,4.587478 L4.843317,4.587499 L4.840049,4.587492 L4.836781,4.587456 L4.833514,4.587392 L4.830247,4.587300 L4.826982,4.587179 L4.823717,4.587029 L4.820454,4.586851 L4.817193,4.586645 L4.813933,4.586410 L4.810676,4.586147 L4.807421,4.585856 L4.804169,4.585536 L4.800919,4.585188 L4.797673,4.584811 L4.794430,4.584406 L4.791191,4.583973 L4.787956,4.583512 L4.784725,4.583023 L4.781498,4.582505 L4.778276,4.581959 L4.775059,4.581386 L4.771847,4.580784 L4.768640,4.580154 L4.765439,4.579497 L4.762244,4.578811 L4.759055,4.578098 L4.755872,4.577357 L4.752696,4.576588 L4.749526,4.575792 L4.746364,4.574968 L4.743209,4.574116 L4.740061,4.573237 L4.736922,4.572331 L4.733790,4.571397 L4.730666,4.570436 L4.727551,4.569448 L4.724445,4.568433 L4.721348,4.567390 L4.718260,4.566321 L4.715181,4.565225 L4.712112,4.564102 L4.709053,4.562952 L4.706004,4.561776 L4.702966,4.560574 L4.699938,4.559344 L4.696921,4.558089 L4.693915,4.556807 L4.690920,4.555499 L4.687936,4.554165 L4.684965,4.552805 L4.682005,4.551420 L4.679058,4.550008 L4.676123,4.548571 L4.673201,4.547108 L4.670291,4.545620 L4.667395,4.544107 L4.664512,4.542568 L4.661642,4.541005 L4.658786,4.539416 L4.655944,4.537803 L4.653116,4.536165 L4.650303,4.534502 L4.647504,4.532815 L4.644720,4.531104 L4.641951,4.529368 L4.639198,4.527608 L4.636459,4.525825 L4.633737,4.524017 L4.631030,4.522186 L4.628339,4.520331 L4.625665,4.518453 L4.623007,4.516552 L4.620366,4.514628 L4.617741,4.512681 L4.615134,4.510711 L4.612544,4.508718 L4.609971,4.506703 L4.607416,4.504665 L4.604879,4.502606 L4.602360,4.500524 L4.599859,4.498420 L4.597377,4.496295 L4.594913,4.494148 L4.592468,4.491980 L4.590042,4.489790 L4.587635,4.487580 L4.585247,4.485348 L4.582879,4.483096 L4.580531,4.480823 L4.578203,4.478530 L4.575895,4.476217 L4.573607,4.473884 L4.571339,4.471530 L4.569092,4.469158 L4.566866,4.466765 L4.564660,4.464354 L4.562476,4.461923 L4.560313,4.459473 L4.558172,4.457005 L4.556052,4.454518 L4.553954,4.452012 L4.551877,4.449488 L4.549823,4.446947 L4.547791,4.444387 L4.545782,4.441810 L4.543795,4.439216 L4.541830,4.436604 L4.539889,4.433976 L4.537970,4.431330 L4.536075,4.428668 L4.534203,4.425990 L4.532354,4.423295 L4.530529,4.420584 L4.528727,4.417857 L4.526950,4.415115 L4.525196,4.412358 L4.523466,4.409585 L4.521761,4.406797 L4.520080,4.403995 L4.518423,4.401178 L4.516792,4.398347 L4.515184,4.395501 L4.513602,4.392642 L4.512045,4.389769 L4.510512,4.386882 L4.509005,4.383983 L4.507524,4.381070 L4.506067,4.378145 L4.504637,4.375206 L4.503232,4.372256 L4.501852,4.369293 L4.500499,4.366319 L4.499171,4.363333 L4.497870,4.360335 L4.496595,4.357326 L4.495346,4.354306 L4.494123,4.351276 L4.492927,4.348234 L4.491758,4.345183 L4.490615,4.342121 L4.489498,4.339050 L4.488409,4.335969 L4.487347,4.332879 L4.486311,4.329779 L4.485302,4.326671 L4.484321,4.323554 L4.483367,4.320428 L4.482440,4.317294 L4.481541,4.314153 L4.480668,4.311003 L4.479824,4.307846 L4.479007,4.304682 L4.478217,4.301511 L4.477455,4.298333 L4.476721,4.295149 L4.476015,4.291958 L4.475336,4.288761 L4.474686,4.285559 L4.474063,4.282351 L4.473468,4.279137 L4.472901,4.275919 L4.472363,4.272696 L4.471852,4.269468 L4.471370,4.266236 L4.470916,4.262999 L4.470490,4.259759 L4.470092,4.256516 L4.469723,4.253269 L4.469382,4.250019 L4.469069,4.246766 L4.468784,4.243510 L4.468528,4.240252 L4.468301,4.236992 L4.468101,4.233730 L4.467931,4.230467 L4.467788,4.227202 L4.467674,4.223936 L4.467589,4.220669 L4.467532,4.217402 L4.467504,4.214134 L4.467504,4.210866 L4.467532,4.207598 L4.467589,4.204331 L4.467674,4.201064 L4.467788,4.197798 L4.467931,4.194533 L4.468101,4.191270 L4.468301,4.188008 L4.468528,4.184748 L4.468784,4.181490 L4.469069,4.178234 L4.469382,4.174981 L4.469723,4.171731 L4.470092,4.168484 L4.470490,4.165241 L4.470916,4.162001 L4.471370,4.158764 L4.471852,4.155532 L4.472363,4.152304 L4.472901,4.149081 L4.473468,4.145863 L4.474063,4.142649 L4.474686,4.139441 L4.475336,4.136239 L4.476015,4.133042 L4.476721,4.129851 L4.477455,4.126667 L4.478217,4.123489 L4.479007,4.120318 L4.479824,4.117154 L4.480668,4.113997 L4.481541,4.110847 L4.482440,4.107706 L4.483367,4.104572 L4.484321,4.101446 L4.485302,4.098329 L4.486311,4.095221 L4.487347,4.092121 L4.488409,4.089031 L4.489498,4.085950 L4.490615,4.082879 L4.491758,4.079817 L4.492927,4.076766 L4.494123,4.073724 L4.495346,4.070694 L4.496595,4.067674 L4.497870,4.064665 L4.499171,4.061667 L4.500499,4.058681 L4.501852,4.055707 L4.503232,4.052744 L4.504637,4.049794 L4.506067,4.046855 L4.507524,4.043930 L4.509005,4.041017 L4.510512,4.038118 L4.512045,4.035231 L4.513602,4.032358 L4.515184,4.029499 L4.516792,4.026653 L4.518423,4.023822 L4.520080,4.021005 L4.521761,4.018203 L4.523466,4.015415 L4.525196,4.012642 L4.526950,4.009885 L4.528727,4.007143 L4.530529,4.004416 L4.532354,4.001705 L4.534203,3.999010 L4.536075,3.996332 L4.537970,3.993670 L4.539889,3.991024 L4.541830,3.988396 L4.543795,3.985784 L4.545782,3.983190 L4.547791,3.980613 L4.549823,3.978053 L4.551877,3.975512 L4.553954,3.972988 L4.556052,3.970482 L4.558172,3.967995 L4.560313,3.965527 L4.562476,3.963077 L4.564660,3.960646 L4.566866,3.958235 L4.569092,3.955842 L4.571339,3.953470 L4.573607,3.951116 L4.575895,3.948783 L4.578203,3.946470 L4.580531,3.944177 L4.582879,3.941904 L4.585247,3.939652 L4.587635,3.937420 L4.590042,3.935210 L4.592468,3.933020 L4.594913,3.930852 L4.597377,3.928705 L4.599859,3.926580 L4.602360,3.924476 L4.604879,3.922394 L4.607416,3.920335 L4.609971,3.918297 L4.612544,3.916282 L4.615134,3.914289 L4.617741,3.912319 L4.620366,3.910372 L4.623007,3.908448 L4.625665,3.906547 L4.628339,3.904669 L4.631030,3.902814 L4.633737,3.900983 L4.636459,3.899175 L4.639198,3.897392 L4.641951,3.895632 L4.644720,3.893896 L4.647504,3.892185 L4.650303,3.890498 L4.653116,3.888835 L4.655944,3.887197 L4.658786,3.885584 L4.661642,3.883995 L4.664512,3.882432 L4.667395,3.880893 L4.670291,3.879380 L4.673201,3.877892 L4.676123,3.876429 L4.679058,3.874992 L4.682005,3.873580 L4.684965,3.872195 L4.687936,3.870835 L4.690920,3.869501 L4.693915,3.868193 L4.696921,3.866911 L4.699938,3.865656 L4.702966,3.864426 L4.706004,3.863224 L4.709053,3.862048 L4.712112,3.860898 L4.715181,3.859775 L4.718260,3.858679 L4.721348,3.857610 L4.724445,3.856567 L4.727551,3.855552 L4.730666,3.854564 L4.733790,3.853603 L4.736922,3.852669 L4.740061,3.851763 L4.743209,3.850884 L4.746364,3.850032 L4.749526,3.849208 L4.752696,3.848412 L4.755872,3.847643 L4.759055,3.846902 L4.762244,3.846189 L4.765439,3.845503 L4.768640,3.844846 L4.771847,3.844216 L4.775059,3.843614 L4.778276,3.843041 L4.781498,3.842495 L4.784725,3.841977 L4.787956,3.841488 L4.791191,3.841027 L4.794430,3.840594 L4.797673,3.840189 L4.800919,3.839812 L4.804169,3.839464 L4.807421,3.839144 L4.810676,3.838853 L4.813933,3.838590 L4.817193,3.838355 L4.820454,3.838149 L4.823717,3.837971 L4.826982,3.837821 L4.830247,3.837700 L4.833514,3.837608 L4.836781,3.837544 L4.840049,3.837508 L4.843317,3.837501 L4.846585,3.837522 L4.849852,3.837572 L4.853119,3.837650 L4.856386,3.837757 L4.859651,3.837892 L4.862915,3.838056 L4.866177,3.838248 L4.869437,3.838469 L4.872696,3.838718 L4.875952,3.838995 L4.879206,3.839301 L4.882456,3.839635 L4.885704,3.839997 L4.888949,3.840388 L4.892190,3.840807 L4.895427,3.841254 L4.898660,3.841729 L4.901889,3.842233 L4.905113,3.842764 L4.908333,3.843324 L4.911548,3.843912 L4.914757,3.844527 L4.917961,3.845171 L4.921159,3.845843 L4.924352,3.846542 L4.927538,3.847269 L4.930717,3.848024 L4.933890,3.848807 L4.937056,3.849617 L4.940215,3.850455 L4.943366,3.851320 L4.946510,3.852213 L4.949645,3.853133 L4.952773,3.854080 L4.955892,3.855055 L4.959003,3.856056 L4.962105,3.857085 L4.965197,3.858141 L4.968281,3.859224 L4.971354,3.860333 L4.974419,3.861469 L4.977473,3.862632 L4.980516,3.863822 L4.983550,3.865038 L4.986572,3.866280 L4.989584,3.867549 L4.992584,3.868844 L4.995573,3.870165 L4.998551,3.871512 L5.001516,3.872884 L5.004470,3.874283 L5.007411,3.875707 L5.010340,3.877157 L5.013256,3.878633 L5.016159,3.880133 L5.019049,3.881659 L5.021925,3.883210 L5.024788,3.884786 L5.027637,3.886387 L5.030471,3.888013 L5.033292,3.889664 L5.036098,3.891338 L5.038890,3.893038 L5.041666,3.894761 L5.044427,3.896509 L5.047173,3.898281 L5.049904,3.900076 L5.052619,3.901895 L5.055317,3.903738 L5.058000,3.905605 L5.060666,3.907494 L5.063316,3.909407 L5.065949,3.911343 L5.068565,3.913301 L5.071163,3.915283 L5.073745,3.917287 L5.076309,3.919313 L5.078855,3.921362 L5.081383,3.923433 L5.083893,3.925525 L5.086385,3.927640 L5.088858,3.929776 L5.091312,3.931934 L5.093748,3.934112 L5.096164,3.936312 L5.098561,3.938534 L5.100939,3.940775 L5.103297,3.943038 L5.105635,3.945321 L5.107954,3.947624 L5.110252,3.949947 L5.112530,3.952291 L5.114787,3.954654 L5.117024,3.957036 L5.119239,3.959438 L5.121434,3.961859 L5.123608,3.964300 L5.125760,3.966759 L5.127891,3.969237 L5.130000,3.971733 L5.132087,3.974247 L5.134152,3.976780 L5.136195,3.979331 L5.138216,3.981899 L5.140215,3.984485 L5.142190,3.987088 L5.144143,3.989708 L5.146073,3.992345 L5.147980,3.994999 L5.149864,3.997669 L5.151725,4.000356 L5.153562,4.003059 L5.155375,4.005777 L5.157165,4.008512 L5.158930,4.011262 L5.160672,4.014027 L5.162389,4.016807 L5.164083,4.019602 L5.165751,4.022412 L5.167396,4.025236 L5.169015,4.028074 L5.170610,4.030927 L5.172180,4.033793 L5.173725,4.036673 L5.175244,4.039566 L5.176739,4.042472 L5.178208,4.045391 L5.179651,4.048323 L5.181069,4.051267 L5.182461,4.054224 L5.183828,4.057192 L5.185168,4.060173 L5.186483,4.063165 L5.187771,4.066168 L5.189033,4.069182 L5.190269,4.072208 L5.191478,4.075244 L5.192661,4.078290 L5.193817,4.081347 L5.194947,4.084413 L5.196050,4.087489 L5.197126,4.090575 L5.198175,4.093670 L5.199197,4.096774 L5.200192,4.099887 L5.201159,4.103008 L5.202100,4.106138 L5.203013,4.109276 L5.203899,4.112421 L5.204757,4.115574 L5.205588,4.118735 L5.206392,4.121903 L5.207167,4.125077 L5.207915,4.128258 L5.208636,4.131446 L5.209328,4.134640 L5.209993,4.137839 L5.210629,4.141045 L5.211238,4.144255 L5.211819,4.147471 L5.212371,4.150692 L5.212896,4.153918 L5.213392,4.157148 L5.213861,4.160382 L5.214301,4.163620 L5.214713,4.166862 L5.215096,4.170107 L5.215451,4.173356 L5.215778,4.176608 L5.216077,4.179862 L5.216347,4.183119 L5.216589,4.186378 L5.216802,4.189639 L5.216987,4.192901 L5.217144,4.196165 L5.217272,4.199431 L5.217372,4.202697 L5.217443,4.205964 L5.217486,4.209232 L5.217500,4.212500" />

</svg>
